<?xml version="1.0" encoding="UTF-8" standalone="no"?>
<svg
   id="emoji"
   viewBox="0 0 72 72"
   version="1.1"
   sodipodi:docname="bilan.svg"
   inkscape:version="1.2.1 (8a69933317, 2022-10-28, custom)"
   xmlns:inkscape="http://www.inkscape.org/namespaces/inkscape"
   xmlns:sodipodi="http://sodipodi.sourceforge.net/DTD/sodipodi-0.dtd"
   xmlns="http://www.w3.org/2000/svg"
   xmlns:svg="http://www.w3.org/2000/svg">
  <defs
     id="defs222" />
  <sodipodi:namedview
     id="namedview220"
     pagecolor="#ffffff"
     bordercolor="#666666"
     borderopacity="1.0"
     inkscape:showpageshadow="2"
     inkscape:pageopacity="0.0"
     inkscape:pagecheckerboard="0"
     inkscape:deskcolor="#d1d1d1"
     showgrid="false"
     inkscape:zoom="7.2538129"
     inkscape:cx="45.493316"
     inkscape:cy="54.109474"
     inkscape:window-width="1920"
     inkscape:window-height="1175"
     inkscape:window-x="0"
     inkscape:window-y="0"
     inkscape:window-maximized="1"
     inkscape:current-layer="line" />
  <g
     id="line"
     transform="matrix(0.88646884,0,0,0.88646884,4.8690864,2.2979384)"
     style="stroke:#32337b;stroke-opacity:1">
    <g
       id="line-3"
       transform="matrix(0.87688958,0,0,0.87688958,3.9044603,1.6656856)"
       style="fill:#32337b;fill-opacity:1;stroke:#32337b;stroke-opacity:1">
      <path
         fill="none"
         stroke="#000000"
         stroke-linecap="round"
         stroke-linejoin="round"
         stroke-width="2.27522"
         d="m 59.146963,68.170825 c 0,0 1.710487,-4.662228 0.572876,-9.212672 C 58.342307,53.445633 55.061154,48.487086 48.23549,48.487086 H 23.208056 c -6.825664,0 -9.890331,4.958547 -11.267863,10.471067 -1.137611,4.550444 0.102219,9.164078 0.102219,9.164078 0,0 10.447579,4.441591 23.093029,4.418959 13.744885,0.05443 24.011522,-4.370365 24.011522,-4.370365 z"
         id="path214-3-6"
         style="fill:#32337b;fill-opacity:1;stroke:none;stroke-width:3.26266;stroke-linecap:butt;stroke-dasharray:none;stroke-opacity:1"
         sodipodi:nodetypes="ccsscccc" />
      <path
         fill="none"
         stroke="#000000"
         stroke-linejoin="round"
         stroke-width="2.27522"
         d="m 24.145981,24.669844 c 0,4.237145 0.613285,8.883147 2.27522,11.376107 2.117435,3.177346 5.708076,4.550443 9.100886,4.550443 3.521701,0 6.981175,-1.373097 9.100885,-4.550443 1.660911,-2.49296 2.275221,-7.138962 2.275221,-11.376107 0,-3.177914 -1.137611,-13.651327 -11.376106,-13.651327 -10.238496,0 -11.376106,8.35484 -11.376106,13.651327 z"
         id="path216-7"
         style="fill:#32337b;fill-opacity:1;stroke:#32337b;stroke-width:3.26266;stroke-dasharray:none;stroke-opacity:1" />
    </g>
  </g>
</svg>
