<?xml version="1.0" encoding="UTF-8" standalone="no"?>
<svg
   id="emoji"
   viewBox="0 0 72 72"
   version="1.1"
   sodipodi:docname="divers . électroménager.svg"
   inkscape:version="1.2 (56b05e47e7, 2022-06-09, custom)"
   xmlns:inkscape="http://www.inkscape.org/namespaces/inkscape"
   xmlns:sodipodi="http://sodipodi.sourceforge.net/DTD/sodipodi-0.dtd"
   xmlns="http://www.w3.org/2000/svg"
   xmlns:svg="http://www.w3.org/2000/svg">
  <defs
     id="defs6479" />
  <sodipodi:namedview
     id="namedview6477"
     pagecolor="#ffffff"
     bordercolor="#666666"
     borderopacity="1.0"
     inkscape:showpageshadow="2"
     inkscape:pageopacity="0.0"
     inkscape:pagecheckerboard="0"
     inkscape:deskcolor="#d1d1d1"
     showgrid="false"
     inkscape:zoom="4.6408852"
     inkscape:cx="41.048204"
     inkscape:cy="3.9863085"
     inkscape:window-width="950"
     inkscape:window-height="1163"
     inkscape:window-x="962"
     inkscape:window-y="4"
     inkscape:window-maximized="1"
     inkscape:current-layer="color" />
  <g
     id="color">
    <path
       fill="#9b9b9a"
       stroke="none"
       d="M30.644,51.1065c0.5335-0.1424,1.0815,0.1746,1.224,0.708l1.455,5.449h8.387l1.455-5.426 c0.143-0.5334,0.6913-0.85,1.2248-0.7071c0.0001,0,0.0002,0,0.0002,0"
       id="path6449"
       style="fill:#3f3f3f;fill-opacity:1" />
    <path
       fill="#3F3F3F"
       stroke="none"
       d="M33.013,24.1055c-0.5523,0-1-0.4477-1-1V8.2195c0-1.2744-1.0331-2.3075-2.3075-2.3075 c-1.2744,0-2.3075,1.0331-2.3075,2.3075v14.883c0,0.5523-0.4477,1-1,1"
       id="path6451" />
    <path
       fill="#3F3F3F"
       stroke="none"
       d="M49.55,24.1055c-0.5523,0-1-0.4477-1-1V8.2195c-0.001-1.2741-1.0346-2.3062-2.3088-2.3052 c-1.2728,0.001-2.3043,1.0325-2.3052,2.3052v14.883c0,0.5523-0.4477,1-1,1"
       id="path6453" />
    <path
       fill="#d0cfce"
       stroke="none"
       d="M 47.807505,24.1885 H 20.435 v 10.559665 c -0.01259,9.553171 7.721654,17.307673 17.274725,17.320167 3.569428,0.0047 7.053009,-1.095061 9.972837,-3.148251 0.597407,-8.231702 0.639122,-16.494236 0.124943,-24.731581 z"
       id="path6455"
       style="fill:#2f2a24;fill-opacity:1;stroke-width:1.0076" />
    <path
       fill="#9b9b9a"
       stroke="none"
       d="M47.601,24.1885c0.5104,8.1755,0.469,16.3761-0.124,24.546c4.5953-3.2095,7.3349-8.4598,7.339-14.065 v-10.48L47.601,24.1885z"
       id="path6457"
       style="fill:#3f3f3f;fill-opacity:1" />
    <path
       fill="#d0cfce"
       stroke="none"
       d="M41.657,67.0965c-0.5523,0-1-0.4477-1-1v-7.083h-6.063v7.083c0,0.5523-0.4477,1-1,1"
       id="path6459"
       style="fill:#3f3f3f;fill-opacity:1" />
  </g>
  <g
     id="hair" />
  <g
     id="skin" />
  <g
     id="skin-shadow" />
  <g
     id="line">
    <path
       fill="none"
       stroke="#000000"
       stroke-linecap="round"
       stroke-miterlimit="10"
       stroke-width="2"
       d="M33.013,23.0925V8.2105 c0-1.8264-1.4806-3.307-3.307-3.307h0l0,0c-1.8264,0-3.307,1.4806-3.307,3.307l0,0v14.883"
       id="path6465" />
    <path
       fill="none"
       stroke="#000000"
       stroke-linecap="round"
       stroke-miterlimit="10"
       stroke-width="2"
       d="M49.55,23.0925V8.2105 c0-1.8264-1.4806-3.307-3.307-3.307h0l0,0c-1.8264,0-3.307,1.4806-3.307,3.307l0,0v14.883"
       id="path6467" />
    <path
       fill="none"
       stroke="#000000"
       stroke-linecap="round"
       stroke-linejoin="round"
       stroke-width="2"
       d="M19.435,23.1885v11.48 c0,10.0461,8.1439,18.19,18.19,18.19s18.19-8.144,18.19-18.19v-11.48H19.435z"
       id="path6469" />
    <polyline
       fill="none"
       stroke="#000000"
       stroke-linecap="round"
       stroke-linejoin="round"
       stroke-width="2"
       points="31.011,51.8095 32.665,58.0005 42.586,58.0005 44.24,51.8335"
       id="polyline6471" />
    <polyline
       fill="none"
       stroke="#000000"
       stroke-linecap="round"
       stroke-linejoin="round"
       stroke-width="2"
       points="33.618,66.0835 33.618,58.0005 41.681,58.0005 41.681,66.0835"
       id="polyline6473" />
  </g>
</svg>
