<?xml version="1.0" encoding="UTF-8" standalone="no"?>
<svg
   id="emoji"
   viewBox="0 0 72 72"
   version="1.1"
   sodipodi:docname="numérique . téléphone.svg"
   inkscape:version="1.2.1 (ef4d3fba62, 2022-07-19, custom)"
   xmlns:inkscape="http://www.inkscape.org/namespaces/inkscape"
   xmlns:sodipodi="http://sodipodi.sourceforge.net/DTD/sodipodi-0.dtd"
   xmlns="http://www.w3.org/2000/svg"
   xmlns:svg="http://www.w3.org/2000/svg">
  <defs
     id="defs10681" />
  <sodipodi:namedview
     id="namedview10679"
     pagecolor="#ffffff"
     bordercolor="#666666"
     borderopacity="1.0"
     inkscape:showpageshadow="2"
     inkscape:pageopacity="0.0"
     inkscape:pagecheckerboard="0"
     inkscape:deskcolor="#d1d1d1"
     showgrid="false"
     inkscape:zoom="4.9847185"
     inkscape:cx="30.693809"
     inkscape:cy="36.210671"
     inkscape:window-width="1920"
     inkscape:window-height="1175"
     inkscape:window-x="0"
     inkscape:window-y="0"
     inkscape:window-maximized="1"
     inkscape:current-layer="line" />
  <g
     id="color">
    <path
       fill="#9B9B9A"
       stroke="none"
       stroke-linecap="round"
       stroke-linejoin="round"
       stroke-miterlimit="10"
       stroke-width="2"
       d="M52.5,64.7644h-33c-0.5523,0-1-0.4477-1-1v-56c0-0.5523,0.4477-1,1-1h33c0.5523,0,1,0.4477,1,1v56 C53.5,64.3167,53.0523,64.7644,52.5,64.7644z"
       id="path10659"
       style="fill:#c6c6c6;fill-opacity:1" />
    <path
       fill="#D0CFCE"
       stroke="none"
       stroke-linecap="round"
       stroke-linejoin="round"
       stroke-miterlimit="10"
       stroke-width="2"
       d="M48.0339,55H23.9661C23.4325,55,23,54.5675,23,54.0339V13.9661C23,13.4325,23.4325,13,23.9661,13h24.0678 C48.5675,13,49,13.4325,49,13.9661v40.0678C49,54.5675,48.5675,55,48.0339,55z"
       id="path10661"
       style="fill:#232323;fill-opacity:1" />
    <polygon
       fill="#FFFFFF"
       stroke="none"
       stroke-linecap="round"
       stroke-linejoin="round"
       stroke-miterlimit="10"
       stroke-width="2"
       points="31,10 41,10 41,10 31,10"
       id="polygon10663" />
  </g>
  <g
     id="hair" />
  <g
     id="skin" />
  <g
     id="skin-shadow" />
  <g
     id="line">
    <path
       fill="none"
       stroke="#000000"
       stroke-linecap="round"
       stroke-linejoin="round"
       stroke-miterlimit="10"
       stroke-width="2"
       d="M52.5,64.7644h-33c-0.5523,0-1-0.4477-1-1v-56c0-0.5523,0.4477-1,1-1h33c0.5523,0,1,0.4477,1,1v56 C53.5,64.3167,53.0523,64.7644,52.5,64.7644z"
       id="path10669" />
    <path
       fill="none"
       stroke="#000000"
       stroke-linecap="round"
       stroke-linejoin="round"
       stroke-miterlimit="10"
       stroke-width="2"
       d="M48.0339,55H23.9661C23.4325,55,23,54.5675,23,54.0339V13.9661C23,13.4325,23.4325,13,23.9661,13h24.0678 C48.5675,13,49,13.4325,49,13.9661v40.0678C49,54.5675,48.5675,55,48.0339,55z"
       id="path10671" />
    <circle
       cx="36"
       cy="60"
       r="2"
       fill="#000000"
       stroke="#000000"
       stroke-miterlimit="10"
       id="circle10673" />
    <polygon
       fill="none"
       stroke="#000000"
       stroke-linecap="round"
       stroke-linejoin="round"
       stroke-miterlimit="10"
       stroke-width="2"
       points="31,10 41,10 41,10 31,10"
       id="polygon10675" />
  </g>
</svg>
