<?xml version="1.0" encoding="UTF-8" standalone="no"?>
<svg
   xmlns:dc="http://purl.org/dc/elements/1.1/"
   xmlns:cc="http://creativecommons.org/ns#"
   xmlns:rdf="http://www.w3.org/1999/02/22-rdf-syntax-ns#"
   xmlns:svg="http://www.w3.org/2000/svg"
   xmlns="http://www.w3.org/2000/svg"
   xmlns:sodipodi="http://sodipodi.sourceforge.net/DTD/sodipodi-0.dtd"
   xmlns:inkscape="http://www.inkscape.org/namespaces/inkscape"
   id="emoji"
   viewBox="0 0 72 72"
   version="1.1"
   sodipodi:docname="divers . ameublement.svg"
   inkscape:version="1.0.2 (e86c8708, 2021-01-15)">
  <metadata
     id="metadata287">
    <rdf:RDF>
      <cc:Work
         rdf:about="">
        <dc:format>image/svg+xml</dc:format>
        <dc:type
           rdf:resource="http://purl.org/dc/dcmitype/StillImage" />
        <dc:title></dc:title>
      </cc:Work>
    </rdf:RDF>
  </metadata>
  <defs
     id="defs232" />
  <sodipodi:namedview
     id="namedview230"
     pagecolor="#ffffff"
     bordercolor="#666666"
     borderopacity="1.0"
     inkscape:showpageshadow="2"
     inkscape:pageopacity="0.0"
     inkscape:pagecheckerboard="0"
     inkscape:deskcolor="#d1d1d1"
     showgrid="false"
     inkscape:zoom="4.8128969"
     inkscape:cx="34.796251"
     inkscape:cy="24.043161"
     inkscape:window-width="1434"
     inkscape:window-height="775"
     inkscape:window-x="0"
     inkscape:window-y="25"
     inkscape:window-maximized="1"
     inkscape:current-layer="color"
     inkscape:document-rotation="0" />
  <g
     id="hair"
     transform="matrix(0.74917834,0,0,0.74917834,33.832146,32.321793)" />
  <g
     id="skin"
     transform="matrix(0.74917834,0,0,0.74917834,33.832146,32.321793)" />
  <g
     id="skin-shadow"
     transform="matrix(0.74917834,0,0,0.74917834,33.832146,32.321793)" />
  <g
     id="hair-6"
     transform="matrix(0.74917834,0,0,0.74917834,11.502642,14.240946)" />
  <g
     id="skin-7"
     transform="matrix(0.74917834,0,0,0.74917834,11.502642,14.240946)" />
  <g
     id="skin-shadow-5"
     transform="matrix(0.74917834,0,0,0.74917834,11.502642,14.240946)" />
  <g
     id="color"
     transform="translate(0.5617089,-2.2005834)">
    <rect
       x="5"
       y="42.5"
       width="62"
       height="6.5"
       fill="#a57939"
       id="rect874" />
    <path
       fill="#d0cfce"
       d="m 5,42 v -4 c 0,-1.65 1.35,-3 3,-3 h 56 c 1.65,0 3,1.35 3,3 v 4"
       id="path876"
       style="fill:none" />
    <path
       fill="#92d3f5"
       d="m 5.125,30.44 c 0,0 6.387,-2.767 12.27,-2.721 2.296,0.01784 5.686,1.897 5.712,3.874 l -1.104,2.16 -15,1 -0.8125,1.25 -1.062,-1.625 -0.125,-3.625 z"
       id="path878"
       style="fill:#4d4d4d" />
    <path
       fill="#92d3f5"
       d="m 22,41.6 0.4337,-8.291 c -3.052,-4.924 32.48,-2.528 44.6,-2.638 0.8175,4.338 0.0439,6.264 -0.0301,11.32"
       id="path880"
       style="fill:none" />
  </g>
  <g
     id="line"
     transform="translate(0.5617089,-2.2005834)">
    <rect
       x="5"
       y="42"
       width="62"
       height="7"
       fill="none"
       stroke="#000000"
       stroke-linecap="round"
       stroke-linejoin="round"
       stroke-miterlimit="10"
       stroke-width="2"
       id="rect886" />
    <path
       fill="none"
       stroke="#000000"
       stroke-linecap="round"
       stroke-linejoin="round"
       stroke-miterlimit="10"
       stroke-width="2"
       d="m 5,40.99 v -4 c 0,-1.65 1.35,-3 3,-3 h 13.83"
       id="path888" />
    <line
       x1="5"
       x2="5"
       y1="55.029999"
       y2="16.969999"
       fill="none"
       stroke="#000000"
       stroke-linecap="round"
       stroke-linejoin="round"
       stroke-miterlimit="10"
       stroke-width="2"
       id="line890" />
    <line
       x1="67"
       x2="67"
       y1="27.040001"
       y2="55.040001"
       fill="none"
       stroke="#000000"
       stroke-linecap="round"
       stroke-linejoin="round"
       stroke-miterlimit="10"
       stroke-width="2"
       id="line892" />
    <path
       fill="none"
       stroke="#000000"
       stroke-linecap="round"
       stroke-linejoin="round"
       stroke-miterlimit="10"
       stroke-width="2"
       d="M 20.42,29.73 C 18.81,28.533 15.816,28.192 13.063,28.132 8.481,28.14316 4.181,29.461 5.13,33.406"
       id="path894" />
    <path
       fill="none"
       stroke="#000000"
       stroke-linecap="round"
       stroke-linejoin="round"
       stroke-miterlimit="10"
       stroke-width="2"
       d="m 67,41.99 v -8.32 c 0,-1.65 -1.35,-3 -2.99,-3.001 L 25.2,30.6676 c -1.65,-5.9e-5 -3,1.35 -3,3 v 8"
       id="path896" />
  </g>
</svg>
