<?xml version="1.0" encoding="UTF-8" standalone="no"?>
<svg
   id="emoji"
   viewBox="0 0 72 72"
   version="1.1"
   sodipodi:docname="divers . textile.svg"
   inkscape:version="1.2 (56b05e47e7, 2022-06-09, custom)"
   xmlns:inkscape="http://www.inkscape.org/namespaces/inkscape"
   xmlns:sodipodi="http://sodipodi.sourceforge.net/DTD/sodipodi-0.dtd"
   xmlns="http://www.w3.org/2000/svg"
   xmlns:svg="http://www.w3.org/2000/svg">
  <defs
     id="defs14348" />
  <sodipodi:namedview
     id="namedview14346"
     pagecolor="#ffffff"
     bordercolor="#666666"
     borderopacity="1.0"
     inkscape:showpageshadow="2"
     inkscape:pageopacity="0.0"
     inkscape:pagecheckerboard="0"
     inkscape:deskcolor="#d1d1d1"
     showgrid="false"
     inkscape:zoom="7.393846"
     inkscape:cx="34.014774"
     inkscape:cy="30.498336"
     inkscape:window-width="950"
     inkscape:window-height="1163"
     inkscape:window-x="962"
     inkscape:window-y="4"
     inkscape:window-maximized="1"
     inkscape:current-layer="color" />
  <g
     id="color"
     transform="translate(0,3.9620423)">
    <polygon
       fill="#61b2e4"
       stroke="none"
       points="20.8226,16.0208 20.8226,56 51.1774,56 51.1774,16.0208 48.3057,14.3892 45.0985,13.5285 45.732,11.1242 36.7395,7.4311 27.4371,9.6393 25.6361,13.4536 23.5126,14.3094 "
       id="polygon14316"
       style="fill:#256e9b;fill-opacity:1" />
    <polygon
       fill="#61b2e4"
       stroke="none"
       stroke-linecap="round"
       stroke-linejoin="round"
       stroke-miterlimit="10"
       stroke-width="2"
       points="51.1774,28.3289 51.1774,16.0208 64,22.0208 61,31.3289 "
       id="polygon14318"
       style="fill:#256e9b;fill-opacity:1" />
    <path
       fill="#92d3f5"
       stroke="none"
       d="m 45.732,11.1242 c 0,0 2.4511,2.4293 -4.7072,11.2827 l -3.2087,-5.165 4.5054,-4.8457 2.3198,-2.6622"
       id="path14320"
       style="fill:#256e9b;fill-opacity:1" />
    <path
       fill="#92d3f5"
       stroke="none"
       d="m 27.4371,9.6393 2.0075,2.7494 4.5124,4.8532 -3.2087,5.165 C 23.59,13.5535 26.0411,11.1242 26.0411,11.1242"
       id="path14322"
       style="fill:#256e9b;fill-opacity:1" />
    <polygon
       fill="#61b2e4"
       stroke="none"
       stroke-linecap="round"
       stroke-linejoin="round"
       stroke-miterlimit="10"
       stroke-width="2"
       points="20.8226,28.3289 20.8226,16.0208 8,22.0208 11,31.3289 "
       id="polygon14324"
       style="fill:#256e9b;fill-opacity:1" />
  </g>
  <g
     id="hair" />
  <g
     id="skin" />
  <g
     id="skin-shadow" />
  <g
     id="line"
     transform="translate(0,3.9620423)">
    <polyline
       fill="none"
       stroke="#000000"
       stroke-linecap="round"
       stroke-linejoin="round"
       stroke-miterlimit="10"
       stroke-width="2"
       points="48.3057,15.2396 51.1774,16.0208 51.1774,56 20.8226,56 20.8226,16.0208 23.5126,15.1598"
       id="polyline14330" />
    <polygon
       fill="none"
       stroke="#000000"
       stroke-linecap="round"
       stroke-linejoin="round"
       stroke-miterlimit="10"
       stroke-width="2"
       points="51.1774,28.3289 51.1774,16.0208 64,22.0208 61,31.3289 "
       id="polygon14332" />
    <polygon
       fill="none"
       stroke="#000000"
       stroke-linecap="round"
       stroke-linejoin="round"
       stroke-miterlimit="10"
       stroke-width="2"
       points="20.8226,28.3289 20.8226,16.0208 8,22.0208 11,31.3289 "
       id="polygon14334" />
    <path
       fill="none"
       stroke="#000000"
       stroke-linecap="round"
       stroke-linejoin="round"
       stroke-miterlimit="10"
       stroke-width="2"
       d="m 42.3216,12.3962 -4.5054,4.8457 3.2087,5.165 c 7.1583,-8.8534 4.7072,-11.2827 4.7072,-11.2827 -10.4429,-8.3615 -19.6909,0 -19.6909,0 0,0 -2.4511,2.4293 4.7072,11.2827 l 3.2087,-5.165 -4.5124,-4.8532"
       id="path14336" />
    <circle
       cx="35.8866"
       cy="21.6749"
       r="0.85290003"
       fill="#000000"
       stroke="none"
       id="circle19762" />
    <circle
       cx="35.8866"
       cy="24.941601"
       r="0.85290003"
       fill="#000000"
       stroke="none"
       id="circle19759" />
    <circle
       cx="35.8866"
       cy="28.208401"
       r="0.85290003"
       fill="#000000"
       stroke="none"
       id="circle19756" />
  </g>
</svg>
