<?xml version="1.0" encoding="UTF-8" standalone="no"?>
<svg
   id="emoji"
   viewBox="0 0 72 72"
   version="1.1"
   sodipodi:docname="logement . climatisation.svg"
   xml:space="preserve"
   inkscape:version="1.2.2 (732a01da63, 2022-12-09, custom)"
   xmlns:inkscape="http://www.inkscape.org/namespaces/inkscape"
   xmlns:sodipodi="http://sodipodi.sourceforge.net/DTD/sodipodi-0.dtd"
   xmlns="http://www.w3.org/2000/svg"
   xmlns:svg="http://www.w3.org/2000/svg"><defs
     id="defs240" /><sodipodi:namedview
     id="namedview238"
     pagecolor="#ffffff"
     bordercolor="#666666"
     borderopacity="1.0"
     inkscape:showpageshadow="2"
     inkscape:pageopacity="0.0"
     inkscape:pagecheckerboard="0"
     inkscape:deskcolor="#d1d1d1"
     showgrid="false"
     inkscape:zoom="18.915818"
     inkscape:cx="23.287388"
     inkscape:cy="35.816585"
     inkscape:window-width="1920"
     inkscape:window-height="1055"
     inkscape:window-x="0"
     inkscape:window-y="0"
     inkscape:window-maximized="1"
     inkscape:current-layer="color" /><g
     id="color"
     transform="matrix(0.93252049,0,0,0.93252049,2.0274828,1.5569643)"><path
       fill="#d0cfce"
       stroke="none"
       d="M 7.6078195,55.608992 H 65.759803 l 0.07146,-36.615871 H 7.4012207 Z"
       id="path198"
       style="stroke-width:1.27122"
       sodipodi:nodetypes="ccccc" /><circle
       cx="24.038589"
       cy="37.393093"
       r="3.2852035"
       fill="#3f3f3f"
       stroke="none"
       id="circle206"
       style="fill:#050000;fill-opacity:1;stroke-width:1.64228" /></g><g
     id="hair" /><g
     id="skin" /><g
     id="skin-shadow" /><g
     id="line"
     transform="matrix(1.1854366,0,0,1.1854366,-6.5527421,-16.939449)"><rect
       x="12.152374"
       y="29.823166"
       width="47.815125"
       height="30.524231"
       fill="none"
       stroke="#000000"
       stroke-linecap="round"
       stroke-linejoin="round"
       stroke-miterlimit="10"
       stroke-width="2"
       id="rect218" /><line
       x1="40.665989"
       x2="55.925339"
       y1="48.036228"
       y2="48.036228"
       fill="none"
       stroke="#000000"
       stroke-linecap="round"
       stroke-linejoin="round"
       stroke-miterlimit="10"
       stroke-width="1.30054"
       id="line222-6"
       style="stroke-width:2.26907;stroke-dasharray:none" /><line
       x1="40.902805"
       x2="55.916008"
       y1="37.433487"
       y2="37.433487"
       fill="none"
       stroke="#000000"
       stroke-linecap="round"
       stroke-linejoin="round"
       stroke-miterlimit="10"
       stroke-width="1.29"
       id="line220-7"
       style="stroke-width:2.25068;stroke-dasharray:none" /><line
       x1="40.650276"
       x2="55.909626"
       y1="42.875957"
       y2="42.875957"
       fill="none"
       stroke="#000000"
       stroke-linecap="round"
       stroke-linejoin="round"
       stroke-miterlimit="10"
       stroke-width="1.30054"
       id="line222-5"
       style="stroke-width:2.26907;stroke-dasharray:none" /><line
       x1="40.43391"
       x2="52.538155"
       y1="53.066452"
       y2="53.066452"
       fill="none"
       stroke="#000000"
       stroke-linecap="round"
       stroke-linejoin="round"
       stroke-miterlimit="10"
       stroke-width="1.30054"
       id="line222"
       style="stroke-width:2.02092;stroke-dasharray:none" /><path
       fill="none"
       stroke="#000000"
       stroke-linecap="round"
       stroke-linejoin="round"
       stroke-miterlimit="10"
       stroke-width="3.03757"
       id="circle226-3"
       style="stroke:#838383;stroke-width:1.79378;stroke-dasharray:none;stroke-opacity:1"
       sodipodi:type="arc"
       sodipodi:cx="27.087349"
       sodipodi:cy="46.114651"
       sodipodi:rx="10.627499"
       sodipodi:ry="10.627499"
       sodipodi:start="2.5840377"
       sodipodi:end="5.5655436"
       sodipodi:arc-type="arc"
       d="m 18.069371,51.737799 a 10.627499,10.627499 0 0 1 2.691775,-14.162638 10.627499,10.627499 0 0 1 14.332521,1.550742"
       sodipodi:open="true" /><circle
       cx="26.309181"
       cy="45.171459"
       fill="none"
       stroke="#000000"
       stroke-linecap="round"
       stroke-linejoin="round"
       stroke-miterlimit="10"
       stroke-width="3.03757"
       id="circle226"
       r="10.627499"
       style="stroke-width:1.79378;stroke-dasharray:none" /><path
       style="fill:none;stroke:#000000;stroke-width:2.04409;stroke-linecap:round;stroke-linejoin:miter;stroke-dasharray:none;stroke-opacity:1"
       d="M 56.170358,53.043969 H 55.087317"
       id="path5633"
       sodipodi:nodetypes="cc" /><path
       style="fill:none;stroke:#000000;stroke-width:0.896886;stroke-linecap:butt;stroke-linejoin:miter;stroke-dasharray:none;stroke-opacity:1"
       d="m 26.578398,43.070091 c 0,0 1.089614,-2.969742 2.626853,-2.784136 1.537238,0.185606 2.613071,1.239666 3.169704,2.391044 0.556632,1.151381 0.888125,2.695376 0.429191,3.386908 -0.458935,0.691532 -0.776341,0.924927 -2.11821,0.588757 -1.34187,-0.33617 -1.582156,-0.633775 -2.061567,-0.715122 -0.479413,-0.08135 -2.045971,-2.867451 -2.045971,-2.867451 z"
       id="path9277" /><path
       style="fill:none;stroke:#000000;stroke-width:0.896886;stroke-linecap:butt;stroke-linejoin:miter;stroke-dasharray:none;stroke-opacity:1"
       d="m 27.777362,46.83443 c 0,0 1.859893,2.558794 0.849685,3.732264 -1.010207,1.173472 -2.484807,1.480082 -3.751114,1.301252 -1.266307,-0.178832 -2.733348,-0.763298 -3.052167,-1.529583 -0.318818,-0.766285 -0.335923,-1.159893 0.690548,-2.087246 1.02647,-0.927352 1.407469,-0.961206 1.742005,-1.314105 0.334537,-0.352902 3.521043,-0.10258 3.521043,-0.10258 z"
       id="path9277-2" /><path
       style="fill:none;stroke:#000000;stroke-width:0.896886;stroke-linecap:butt;stroke-linejoin:miter;stroke-dasharray:none;stroke-opacity:1"
       d="m 24.167164,45.963146 c 0,0 -3.107171,0.59339 -3.738831,-0.820312 -0.631659,-1.413705 -0.281232,-2.878512 0.419748,-3.948156 0.700982,-1.069645 1.854462,-2.148205 2.683561,-2.110412 0.829102,0.03779 1.192532,0.189908 1.594573,1.513535 0.402041,1.323628 0.27045,1.682778 0.447323,2.135734 0.176875,0.452957 -1.406374,3.22961 -1.406374,3.229611 z"
       id="path9277-9" /></g></svg>
