<?xml version="1.0" encoding="UTF-8" standalone="no"?>
<svg
   id="emoji"
   viewBox="0 0 72 72"
   version="1.1"
   sodipodi:docname="numérique . tablette.svg"
   inkscape:version="1.2.1 (ef4d3fba62, 2022-07-19, custom)"
   xmlns:inkscape="http://www.inkscape.org/namespaces/inkscape"
   xmlns:sodipodi="http://sodipodi.sourceforge.net/DTD/sodipodi-0.dtd"
   xmlns="http://www.w3.org/2000/svg"
   xmlns:svg="http://www.w3.org/2000/svg">
  <defs
     id="defs289" />
  <sodipodi:namedview
     id="namedview287"
     pagecolor="#ffffff"
     bordercolor="#666666"
     borderopacity="1.0"
     inkscape:showpageshadow="2"
     inkscape:pageopacity="0.0"
     inkscape:pagecheckerboard="0"
     inkscape:deskcolor="#d1d1d1"
     showgrid="false"
     inkscape:zoom="2.963796"
     inkscape:cx="46.899315"
     inkscape:cy="55.840551"
     inkscape:window-width="950"
     inkscape:window-height="1163"
     inkscape:window-x="962"
     inkscape:window-y="4"
     inkscape:window-maximized="1"
     inkscape:current-layer="emoji" />
  <g
     id="color"
     transform="matrix(1.0548356,0,0,0.91868424,-2.7490038,2.6455289)">
    <rect
       x="13.3528"
       y="8.1195002"
       width="44.878502"
       height="55.438099"
       fill="#d0cfce"
       stroke="none"
       id="rect267" />
    <polygon
       fill="#ffffff"
       stroke="none"
       points="58.2313,25.7465 40.6043,8.1195 19.9355,8.1195 19.9142,8.1407 58.2313,46.4578 "
       id="polygon269" />
    <rect
       x="17.8806"
       y="13.0368"
       width="36.1591"
       height="41.438702"
       fill="#3f3f3f"
       stroke="none"
       id="rect271" />
    <polygon
       fill="#9b9b9a"
       stroke="none"
       points="54.0397,21.5549 45.5216,13.0368 24.8103,13.0368 54.0397,42.2662 "
       id="polygon273" />
  </g>
  <g
     id="hair" />
  <g
     id="skin" />
  <g
     id="skin-shadow" />
  <g
     id="line"
     transform="matrix(1.0548356,0,0,0.91868424,-2.7490038,2.6455289)">
    <path
       fill="none"
       stroke="#000000"
       stroke-linecap="round"
       stroke-linejoin="round"
       stroke-miterlimit="10"
       stroke-width="2"
       d="M 13.4698,62.5391 V 9.1669 c 0,-0.55 0.45,-1 1,-1 h 43.0444 c 0.55,0 1,0.45 1,1 v 53.3722 c 0,0.55 -0.45,1 -1,1 H 14.4698 c -0.55,0 -1,-0.45 -1,-1 z"
       id="path279" />
    <circle
       cx="35.992001"
       cy="59.084202"
       r="2"
       fill="#000000"
       stroke="none"
       id="circle281" />
    <rect
       x="17.8806"
       y="13.0368"
       width="36.1591"
       height="41.438702"
       fill="none"
       stroke="#000000"
       stroke-linecap="round"
       stroke-linejoin="round"
       stroke-miterlimit="10"
       stroke-width="2"
       id="rect283" />
  </g>
</svg>
