<?xml version="1.0" encoding="UTF-8" standalone="no"?>
<svg
   id="emoji"
   viewBox="0 0 72 72"
   version="1.1"
   sodipodi:docname="numérique . ordinateur portable.svg"
   inkscape:version="1.2.1 (ef4d3fba62, 2022-07-19, custom)"
   xmlns:inkscape="http://www.inkscape.org/namespaces/inkscape"
   xmlns:sodipodi="http://sodipodi.sourceforge.net/DTD/sodipodi-0.dtd"
   xmlns="http://www.w3.org/2000/svg"
   xmlns:svg="http://www.w3.org/2000/svg">
  <defs
     id="defs27463" />
  <sodipodi:namedview
     id="namedview27461"
     pagecolor="#ffffff"
     bordercolor="#666666"
     borderopacity="1.0"
     inkscape:showpageshadow="2"
     inkscape:pageopacity="0.0"
     inkscape:pagecheckerboard="0"
     inkscape:deskcolor="#d1d1d1"
     showgrid="false"
     inkscape:zoom="4.5900169"
     inkscape:cx="31.154569"
     inkscape:cy="33.006414"
     inkscape:window-width="1920"
     inkscape:window-height="1175"
     inkscape:window-x="0"
     inkscape:window-y="0"
     inkscape:window-maximized="1"
     inkscape:current-layer="color" />
  <g
     id="color">
    <path
       fill="#d0cfce"
       stroke="none"
       d="m 43.950344,56.825907 c 0,4.63091 7.32243,6.576746 7.32243,6.576746 H 36.683672 36.32923 21.740129 c 0,0 7.32243,-1.945742 7.32243,-6.576746 v -4.607842 h 14.736668 z"
       id="path27437"
       style="stroke-width:0.933971" />
    <path
       fill="#9B9B9A"
       stroke="none"
       stroke-linecap="round"
       stroke-linejoin="round"
       stroke-miterlimit="10"
       stroke-width="1.86794"
       d="M 61.705889,52.194996 H 11.307107 c -2.6175485,0 -4.7395316,-2.121983 -4.7395316,-4.739532 V 14.866958 c 0,-2.617548 2.1219831,-4.739532 4.7395316,-4.739532 h 50.398782 c 2.617548,0 4.739531,2.121984 4.739531,4.739532 v 32.588506 c 0,2.617549 -2.121983,4.739532 -4.739531,4.739532 z"
       id="path27439"
       style="fill:#1a1a1a;fill-opacity:1" />
    <path
       fill="#ffffff"
       stroke="none"
       d="M 65.77128,37.305469 6.6194108,16.105227 v -2.443092 c 0,-1.723644 1.7063659,-2.928001 3.3304489,-2.350526 L 65.77128,31.161118 Z"
       id="path27441"
       sodipodi:nodetypes="ccsccc"
       style="fill:#9c9393;fill-opacity:1;stroke-width:0.933971" />
    <path
       fill="#d0cfce"
       stroke="none"
       stroke-linecap="round"
       stroke-linejoin="round"
       stroke-miterlimit="10"
       stroke-width="0.9187"
       d="m 66.44542,44.314985 c 0,0 0.157655,4.534992 -1.447562,6.379492 -1.605217,1.844501 -0.674421,1.497624 -3.291969,1.497624 H 11.307107 c -2.6175485,0 -3.8890572,-1.729716 -3.8890572,-2.282066 l -0.8504744,-5.59505"
       id="path27443" />
  </g>
  <g
     id="hair" />
  <g
     id="skin" />
  <g
     id="skin-shadow" />
  <g
     id="line"
     transform="matrix(0.93397147,0,0,0.93397147,2.6844022,-0.10740604)">
    <path
       fill="none"
       stroke="#000000"
       stroke-linecap="round"
       stroke-linejoin="round"
       stroke-miterlimit="10"
       stroke-width="2"
       d="M 63.1941,56 H 9.2323 C 6.4297,56 4.1577,53.728 4.1577,50.9254 V 16.033 c 0,-2.8026 2.272,-5.0746 5.0746,-5.0746 h 53.9618 c 2.8026,0 5.0746,2.272 5.0746,5.0746 V 50.9254 C 68.2687,53.728 65.9967,56 63.1941,56 Z"
       id="path27449" />
    <path
       fill="none"
       stroke="#000000"
       stroke-linecap="round"
       stroke-linejoin="round"
       stroke-miterlimit="10"
       stroke-width="0.9187"
       d="m 68.2687,47.5629 c 0,0 0.1688,4.8556 -1.5499,6.8305 -1.7187,1.9749 -0.7221,1.6035 -3.5247,1.6035 H 9.2323 c -2.8026,0 -4.164,-1.852 -4.164,-2.4434 L 4.1577,47.5629"
       id="path27451" />
    <path
       fill="none"
       stroke="#000000"
       stroke-linecap="round"
       stroke-linejoin="round"
       stroke-miterlimit="10"
       stroke-width="2"
       d="M 63.1941,56 H 9.2323 C 6.4297,56 4.1577,53.728 4.1577,50.9254 V 16.033 c 0,-2.8026 2.272,-5.0746 5.0746,-5.0746 h 53.9618 c 2.8026,0 5.0746,2.272 5.0746,5.0746 V 50.9254 C 68.2687,53.728 65.9967,56 63.1941,56 Z"
       id="path27453" />
    <line
       x1="7.2132001"
       x2="65.213203"
       y1="48.492401"
       y2="48.492401"
       fill="none"
       stroke="#000000"
       stroke-linecap="round"
       stroke-linejoin="round"
       stroke-miterlimit="10"
       stroke-width="2"
       id="line27455" />
    <path
       fill="none"
       stroke="#000000"
       stroke-linecap="round"
       stroke-linejoin="round"
       stroke-miterlimit="10"
       stroke-width="2"
       d="m 43.1833,60.9583 c 0,4.9583 8.8401,7.0417 8.8401,7.0417 H 36.4029 36.0234 20.4029 c 0,0 8.8401,-2.0833 8.8401,-7.0417"
       id="path27457" />
  </g>
</svg>
