<?xml version="1.0" encoding="UTF-8" standalone="no"?>
<svg
   id="emoji"
   viewBox="0 0 72 72"
   version="1.1"
   sodipodi:docname="numérique . ordinateur portable.svg"
   inkscape:version="1.2 (56b05e47e7, 2022-06-09, custom)"
   xmlns:inkscape="http://www.inkscape.org/namespaces/inkscape"
   xmlns:sodipodi="http://sodipodi.sourceforge.net/DTD/sodipodi-0.dtd"
   xmlns="http://www.w3.org/2000/svg"
   xmlns:svg="http://www.w3.org/2000/svg">
  <defs
     id="defs27463" />
  <sodipodi:namedview
     id="namedview27461"
     pagecolor="#ffffff"
     bordercolor="#666666"
     borderopacity="1.0"
     inkscape:showpageshadow="2"
     inkscape:pageopacity="0.0"
     inkscape:pagecheckerboard="0"
     inkscape:deskcolor="#d1d1d1"
     showgrid="false"
     inkscape:zoom="4.5900169"
     inkscape:cx="30.827773"
     inkscape:cy="32.570686"
     inkscape:window-width="950"
     inkscape:window-height="1163"
     inkscape:window-x="962"
     inkscape:window-y="4"
     inkscape:window-maximized="1"
     inkscape:current-layer="color" />
  <g
     id="color">
    <path
       fill="#D0CFCE"
       stroke="none"
       d="M44.1833,60.9583c0,4.9583,7.8401,7.0417,7.8401,7.0417H36.4029h-0.3795H20.4029 c0,0,7.8401-2.0833,7.8401-7.0417v-4.9336h15.7785L44.1833,60.9583z"
       id="path27437" />
    <path
       fill="#9B9B9A"
       stroke="none"
       stroke-linecap="round"
       stroke-linejoin="round"
       stroke-miterlimit="10"
       stroke-width="2"
       d="M63.1941,56H9.2323c-2.8026,0-5.0746-2.272-5.0746-5.0746V16.033c0-2.8026,2.272-5.0746,5.0746-5.0746h53.9618 c2.8026,0,5.0746,2.272,5.0746,5.0746v34.8924C68.2687,53.728,65.9967,56,63.1941,56z"
       id="path27439" />
    <path
       fill="#ffffff"
       stroke="none"
       d="M 67.5469,40.057835 4.2132,17.35881 l 0,-2.61581 c 0,-1.8455 1.827,-3.135 3.5659,-2.5167 l 59.7678,21.2528 z"
       id="path27441"
       sodipodi:nodetypes="ccsccc"
       style="fill:#727272;fill-opacity:1" />
    <path
       fill="#D0CFCE"
       stroke="none"
       stroke-linecap="round"
       stroke-linejoin="round"
       stroke-miterlimit="10"
       stroke-width="0.9187"
       d="M68.2687,47.5629c0,0,0.1688,4.8556-1.5499,6.8305s-0.7221,1.6035-3.5247,1.6035H9.2323c-2.8026,0-4.164-1.852-4.164-2.4434 l-0.9106-5.9906"
       id="path27443" />
  </g>
  <g
     id="hair" />
  <g
     id="skin" />
  <g
     id="skin-shadow" />
  <g
     id="line">
    <path
       fill="none"
       stroke="#000000"
       stroke-linecap="round"
       stroke-linejoin="round"
       stroke-miterlimit="10"
       stroke-width="2"
       d="M63.1941,56H9.2323c-2.8026,0-5.0746-2.272-5.0746-5.0746V16.033c0-2.8026,2.272-5.0746,5.0746-5.0746h53.9618 c2.8026,0,5.0746,2.272,5.0746,5.0746v34.8924C68.2687,53.728,65.9967,56,63.1941,56z"
       id="path27449" />
    <path
       fill="none"
       stroke="#000000"
       stroke-linecap="round"
       stroke-linejoin="round"
       stroke-miterlimit="10"
       stroke-width="0.9187"
       d="M68.2687,47.5629c0,0,0.1688,4.8556-1.5499,6.8305s-0.7221,1.6035-3.5247,1.6035H9.2323c-2.8026,0-4.164-1.852-4.164-2.4434 l-0.9106-5.9906"
       id="path27451" />
    <path
       fill="none"
       stroke="#000000"
       stroke-linecap="round"
       stroke-linejoin="round"
       stroke-miterlimit="10"
       stroke-width="2"
       d="M63.1941,56H9.2323c-2.8026,0-5.0746-2.272-5.0746-5.0746V16.033c0-2.8026,2.272-5.0746,5.0746-5.0746h53.9618 c2.8026,0,5.0746,2.272,5.0746,5.0746v34.8924C68.2687,53.728,65.9967,56,63.1941,56z"
       id="path27453" />
    <line
       x1="7.2132"
       x2="65.2132"
       y1="48.4924"
       y2="48.4924"
       fill="none"
       stroke="#000000"
       stroke-linecap="round"
       stroke-linejoin="round"
       stroke-miterlimit="10"
       stroke-width="2"
       id="line27455" />
    <path
       fill="none"
       stroke="#000000"
       stroke-linecap="round"
       stroke-linejoin="round"
       stroke-miterlimit="10"
       stroke-width="2"
       d="M43.1833,60.9583c0,4.9583,8.8401,7.0417,8.8401,7.0417H36.4029h-0.3795H20.4029c0,0,8.8401-2.0833,8.8401-7.0417"
       id="path27457" />
  </g>
</svg>
