<?xml version="1.0" encoding="UTF-8" standalone="no"?>
<svg
   id="emoji"
   viewBox="0 0 72 72"
   version="1.1"
   sodipodi:docname="services marchands.svg"
   inkscape:version="1.2.2 (b0a8486541, 2022-12-01, custom)"
   xmlns:inkscape="http://www.inkscape.org/namespaces/inkscape"
   xmlns:sodipodi="http://sodipodi.sourceforge.net/DTD/sodipodi-0.dtd"
   xmlns="http://www.w3.org/2000/svg"
   xmlns:svg="http://www.w3.org/2000/svg">
  <defs
     id="defs23197" />
  <sodipodi:namedview
     id="namedview23195"
     pagecolor="#ffffff"
     bordercolor="#666666"
     borderopacity="1.0"
     inkscape:showpageshadow="2"
     inkscape:pageopacity="0.0"
     inkscape:pagecheckerboard="0"
     inkscape:deskcolor="#d1d1d1"
     showgrid="false"
     inkscape:zoom="13.887034"
     inkscape:cx="25.599418"
     inkscape:cy="43.169764"
     inkscape:window-width="1920"
     inkscape:window-height="1175"
     inkscape:window-x="0"
     inkscape:window-y="0"
     inkscape:window-maximized="1"
     inkscape:current-layer="line" />
  <g
     id="color">
    <rect
       x="12"
       y="56"
       width="48"
       height="4"
       fill="#fff"
       stroke-miterlimit="10"
       id="rect23157" />
    <rect
       x="14.13"
       y="22"
       width="43.74"
       height="4"
       fill="#fff"
       stroke-miterlimit="10"
       id="rect23159" />
    <rect
       x="15.72"
       y="52"
       width="40.55"
       height="4"
       fill="#fff"
       stroke-miterlimit="10"
       id="rect23161" />
    <polygon
       fill="#fff"
       stroke-linecap="round"
       stroke-linejoin="round"
       stroke-miterlimit="10"
       stroke-width="2"
       points="36 12 19 21.75 53 21.75"
       id="polygon23169" />
  </g>
  <g
     id="hair" />
  <g
     id="skin" />
  <g
     id="skin-shadow" />
  <g
     id="line">
    <rect
       x="11.99"
       y="55.89"
       width="48.01"
       height="3.993"
       fill="none"
       stroke="#000"
       stroke-linecap="round"
       stroke-linejoin="round"
       stroke-miterlimit="10"
       stroke-width="2"
       id="rect23177"
       style="fill:#474742;fill-opacity:1" />
    <path
       id="rect23187"
       style="fill:#474742;fill-opacity:1;stroke-width:1.09031"
       d="M 17.813156,25.403278 V 52.027833 H 54.943711 V 25.403278 Z m 20.935021,2.44877 c 0.867035,0 1.608183,0.06916 2.224742,0.205664 0.616559,0.136501 1.233512,0.320865 1.850072,0.554865 l -0.895401,3.393459 c -0.462419,-0.156001 -0.934444,-0.281694 -1.41613,-0.379194 -0.481688,-0.117 -1.080022,-0.175672 -1.792919,-0.175672 -1.156048,0 -2.060744,0.253529 -2.715837,0.76053 -0.635826,0.506999 -1.099601,1.257093 -1.388611,2.251594 h 6.415979 l -0.548248,2.896437 h -6.242403 c -0.01927,0.214499 -0.02963,0.398862 -0.02963,0.554864 v 0.439178 0.409187 c 0,0.117 0.01041,0.28252 0.02963,0.497021 h 5.895251 l -0.548248,2.896438 h -4.972331 c 0.327546,1.17 0.820305,1.989256 1.475399,2.457259 0.655093,0.4485 1.472832,0.672692 2.455474,0.672692 0.635825,0 1.281764,-0.05867 1.936858,-0.175672 0.655095,-0.116999 1.309284,-0.311856 1.964379,-0.584858 l 0.838247,3.363467 c -0.520222,0.273 -1.19303,0.507685 -2.021531,0.702684 -0.809234,0.214503 -1.763651,0.32135 -2.861896,0.32135 -2.408433,2e-6 -4.248927,-0.58457 -5.52058,-1.754571 -1.271652,-1.189502 -2.110125,-2.857351 -2.514742,-5.002351 h -2.080802 v -2.896438 h 1.820437 c -0.01927,-0.214501 -0.02751,-0.380021 -0.02751,-0.497021 v -0.409187 -0.497022 c 0,-0.175498 0.0082,-0.34102 0.02751,-0.49702 h -1.820437 v -2.896437 h 2.197226 c 0.500953,-2.184003 1.45537,-3.830866 2.861895,-4.942366 1.406525,-1.111501 3.207665,-1.66888 5.404157,-1.66888 z"
       sodipodi:nodetypes="cccccsscccscccccscscccccsscccscccccscsccccss" />
    <rect
       x="14.18"
       y="21.76"
       width="43.65"
       height="3.999"
       fill="none"
       stroke="#000"
       stroke-linecap="round"
       stroke-linejoin="round"
       stroke-miterlimit="10"
       stroke-width="2.001"
       id="rect23179"
       style="fill:#474742;fill-opacity:1" />
    <rect
       x="15.27"
       y="51.76"
       width="41.47"
       height="3.993"
       fill="none"
       stroke="#000"
       stroke-linecap="round"
       stroke-linejoin="round"
       stroke-miterlimit="10"
       stroke-width="2"
       id="rect23181"
       style="fill:#474742;fill-opacity:1" />
    <polygon
       transform="matrix(1.091 0 0 .9982 -3.283 .098)"
       fill="none"
       stroke="#000"
       stroke-linecap="round"
       stroke-linejoin="round"
       stroke-miterlimit="10"
       stroke-width="1.916"
       points="36 12 19 21.75 53 21.75"
       id="polygon23189"
       style="fill:#474742;fill-opacity:1" />
    <g
       aria-label="€"
       id="text787"
       style="font-size:26.6667px;line-height:1.25;font-family:Ubuntu;-inkscape-font-specification:Ubuntu;letter-spacing:0px;fill:#ffffff" />
  </g>
</svg>
