<?xml version="1.0" encoding="UTF-8" standalone="no"?>
<svg
   id="emoji"
   viewBox="0 0 72 72"
   version="1.1"
   sodipodi:docname="transport . bus.svg"
   inkscape:version="1.2 (56b05e47e7, 2022-06-09, custom)"
   xmlns:inkscape="http://www.inkscape.org/namespaces/inkscape"
   xmlns:sodipodi="http://sodipodi.sourceforge.net/DTD/sodipodi-0.dtd"
   xmlns="http://www.w3.org/2000/svg"
   xmlns:svg="http://www.w3.org/2000/svg">
  <defs
     id="defs247">
    <inkscape:path-effect
       effect="powerclip"
       id="path-effect2774"
       is_visible="true"
       lpeversion="1"
       inverse="true"
       flatten="false"
       hide_clip="false"
       message="Utilise la règle de remplissage « fill-rule: evenodd » de la boîte de dialogue &lt;b&gt;Fond et contour&lt;/b&gt; en l'absence de résultat de mise à plat après une conversion en chemin." />
    <inkscape:path-effect
       effect="powerclip"
       id="path-effect2770"
       is_visible="true"
       lpeversion="1"
       inverse="true"
       flatten="false"
       hide_clip="false"
       message="Utilise la règle de remplissage « fill-rule: evenodd » de la boîte de dialogue &lt;b&gt;Fond et contour&lt;/b&gt; en l'absence de résultat de mise à plat après une conversion en chemin." />
    <inkscape:path-effect
       effect="powerclip"
       id="path-effect361"
       is_visible="true"
       lpeversion="1"
       inverse="true"
       flatten="false"
       hide_clip="false"
       message="Utilise la règle de remplissage « fill-rule: evenodd » de la boîte de dialogue &lt;b&gt;Fond et contour&lt;/b&gt; en l'absence de résultat de mise à plat après une conversion en chemin." />
    <clipPath
       clipPathUnits="userSpaceOnUse"
       id="clipPath357">
      <rect
         x="20"
         y="20.9583"
         width="31"
         height="13"
         fill="#92d3f5"
         id="rect359"
         style="display:none"
         d="m 20,20.9583 h 31 v 13 H 20 Z" />
      <path
         id="lpe_path-effect361"
         class="powerclip"
         d="m 12,8.9583 h 48 v 45 H 12 Z m 8,12 v 13 h 31 v -13 z" />
    </clipPath>
    <clipPath
       clipPathUnits="userSpaceOnUse"
       id="clipPath2762">
      <rect
         x="44"
         y="41.958302"
         width="7"
         height="3"
         fill="#ffffff"
         id="rect2764"
         style="display:none"
         d="m 44,41.958302 h 7 v 3 h -7 z" />
      <path
         id="lpe_path-effect2770"
         class="powerclip"
         d="m 15,36.958302 h 17 v 13 H 15 Z m 29,5 v 3 h 7 v -3 z" />
    </clipPath>
    <clipPath
       clipPathUnits="userSpaceOnUse"
       id="clipPath2766">
      <rect
         x="44"
         y="41.958302"
         width="7"
         height="3"
         fill="#ffffff"
         id="rect2768"
         style="display:none"
         d="m 44,41.958302 h 7 v 3 h -7 z" />
      <path
         id="lpe_path-effect2774"
         class="powerclip"
         d="m 12,33.958302 h 48 v 20 H 12 Z m 32,8 v 3 h 7 v -3 z" />
    </clipPath>
  </defs>
  <sodipodi:namedview
     id="namedview245"
     pagecolor="#ffffff"
     bordercolor="#666666"
     borderopacity="1.0"
     inkscape:showpageshadow="2"
     inkscape:pageopacity="0.0"
     inkscape:pagecheckerboard="0"
     inkscape:deskcolor="#d1d1d1"
     showgrid="false"
     inkscape:zoom="9.8657217"
     inkscape:cx="36.743384"
     inkscape:cy="50.528488"
     inkscape:window-width="950"
     inkscape:window-height="1163"
     inkscape:window-x="962"
     inkscape:window-y="4"
     inkscape:window-maximized="1"
     inkscape:current-layer="line" />
  <g
     id="color">
    <rect
       x="27.6889"
       y="10.9583"
       rx="2.4704"
       ry="2.4704"
       width="16.9457"
       height="4.9408"
       fill="#fcea2b"
       id="rect198"
       style="fill:#054b9a;fill-opacity:1" />
    <path
       fill="#fcea2b"
       d="M 24.23,13.9583 H 47.7695 A 7.2305,7.2305 0 0 1 55,21.1888 v 26.2695 a 1.5,1.5 0 0 1 -1.5,1.5 h -35 a 1.5,1.5 0 0 1 -1.5,-1.5 v -26.27 a 7.23,7.23 0 0 1 7.23,-7.23 z"
       id="path200"
       clip-path="url(#clipPath357)"
       inkscape:path-effect="#path-effect361"
       inkscape:original-d="M 24.23,13.9583 H 47.7695 A 7.2305,7.2305 0 0 1 55,21.1888 v 26.2695 a 1.5,1.5 0 0 1 -1.5,1.5 h -35 a 1.5,1.5 0 0 1 -1.5,-1.5 v -26.27 a 7.23,7.23 0 0 1 7.23,-7.23 z"
       style="fill:#054b9a;fill-opacity:1"
       transform="matrix(1,0,0,0.73039821,0,3.7631826)" />
    <rect
       x="17"
       y="38.9583"
       width="38"
       height="10"
       fill="#f4aa41"
       id="rect202"
       style="fill:#0c5275;fill-opacity:1"
       clip-path="url(#clipPath2766)"
       inkscape:path-effect="#path-effect2774"
       d="m 17,38.958302 h 38 v 10 H 17 Z" />
    <rect
       x="20"
       y="41.9583"
       width="7"
       height="3"
       fill="#fff"
       id="rect206"
       clip-path="url(#clipPath2762)"
       inkscape:path-effect="#path-effect2770"
       d="m 20,41.958302 h 7 v 3 h -7 z" />
    <rect
       x="16"
       y="48.9583"
       rx="2.6211"
       ry="2.6211"
       width="40"
       height="8"
       fill="#3f3f3f"
       id="rect210" />
    <rect
       x="30.0444"
       y="13.2175"
       rx="1.4333"
       ry="1.4333"
       width="10.9112"
       height="2.8665"
       fill="#3f3f3f"
       id="rect212" />
  </g>
  <g
     id="line">
    <rect
       x="16"
       y="48.9583"
       rx="2.6211"
       ry="2.6211"
       width="40"
       height="8"
       fill="none"
       stroke="#000"
       stroke-linecap="round"
       stroke-linejoin="round"
       stroke-width="2"
       id="rect215" />
    <rect
       x="18"
       y="56.9583"
       rx="2"
       ry="2"
       width="6"
       height="4"
       id="rect217" />
    <rect
       x="48"
       y="56.9583"
       rx="2"
       ry="2"
       width="6"
       height="4"
       id="rect219" />
    <line
       x1="16"
       x2="13"
       y1="25.9583"
       y2="25.9583"
       fill="none"
       stroke="#000"
       stroke-linecap="round"
       stroke-linejoin="round"
       stroke-width="2"
       id="line221" />
    <line
       x1="13"
       x2="13"
       y1="22.9583"
       y2="28.9583"
       fill="none"
       stroke="#000"
       stroke-linecap="round"
       stroke-linejoin="round"
       stroke-width="2"
       id="line223" />
    <line
       x1="56"
       x2="59"
       y1="25.9583"
       y2="25.9583"
       fill="none"
       stroke="#000"
       stroke-linecap="round"
       stroke-linejoin="round"
       stroke-width="2"
       id="line225" />
    <line
       x1="59"
       x2="59"
       y1="22.9583"
       y2="28.9583"
       fill="none"
       stroke="#000"
       stroke-linecap="round"
       stroke-linejoin="round"
       stroke-width="2"
       id="line227" />
    <path
       fill="none"
       stroke="#000"
       stroke-linecap="round"
       stroke-linejoin="round"
       stroke-width="2"
       d="M44.1556,13.9583H47.77A7.2518,7.2518,0,0,1,55,21.1888v26.27a1.5044,1.5044,0,0,1-1.5,1.5h-35a1.5044,1.5044,0,0,1-1.5-1.5v-26.27a7.2515,7.2515,0,0,1,7.23-7.23h2.6142"
       id="path229" />
    <path
       fill="none"
       stroke="#000"
       stroke-linecap="round"
       stroke-linejoin="round"
       stroke-width="2"
       d="M51,21.9583v11.8H21"
       id="path231" />
    <polyline
       fill="none"
       stroke="#000"
       stroke-linecap="round"
       stroke-linejoin="round"
       stroke-width="2"
       points="21 44.958 27 44.958 27 42.958"
       id="polyline233" />
    <polyline
       fill="none"
       stroke="#000"
       stroke-linecap="round"
       stroke-linejoin="round"
       stroke-width="2"
       points="45 44.958 51 44.958 51 42.958"
       id="polyline235" />
    <line
       x1="32"
       x2="41"
       y1="41.9583"
       y2="41.9583"
       fill="none"
       stroke="#000"
       stroke-linecap="round"
       stroke-miterlimit="10"
       stroke-width="2"
       id="line237" />
    <line
       x1="32"
       x2="41"
       y1="44.9583"
       y2="44.9583"
       fill="none"
       stroke="#000"
       stroke-linecap="round"
       stroke-miterlimit="10"
       stroke-width="2"
       id="line239" />
    <path
       fill="none"
       stroke="#000"
       stroke-linecap="round"
       stroke-linejoin="round"
       stroke-width="2"
       d="M26.8444,13.9583v-.4791a2.5283,2.5283,0,0,1,2.5209-2.5209H41.6347a2.5283,2.5283,0,0,1,2.5209,2.5209v.4791"
       id="path241" />
  </g>
</svg>
