<?xml version="1.0" encoding="UTF-8" standalone="no"?>
<svg
   id="emoji"
   viewBox="0 0 72 72"
   version="1.1"
   sodipodi:docname="transport . voiture . empreinte.svg"
   inkscape:version="1.2 (56b05e47e7, 2022-06-09, custom)"
   xmlns:inkscape="http://www.inkscape.org/namespaces/inkscape"
   xmlns:sodipodi="http://sodipodi.sourceforge.net/DTD/sodipodi-0.dtd"
   xmlns="http://www.w3.org/2000/svg"
   xmlns:svg="http://www.w3.org/2000/svg">
  <defs
     id="defs28075" />
  <sodipodi:namedview
     id="namedview28073"
     pagecolor="#ffffff"
     bordercolor="#666666"
     borderopacity="1.0"
     inkscape:showpageshadow="2"
     inkscape:pageopacity="0.0"
     inkscape:pagecheckerboard="0"
     inkscape:deskcolor="#d1d1d1"
     showgrid="false"
     inkscape:zoom="10.235261"
     inkscape:cx="34.732872"
     inkscape:cy="39.569095"
     inkscape:window-width="1920"
     inkscape:window-height="1200"
     inkscape:window-x="0"
     inkscape:window-y="0"
     inkscape:window-maximized="1"
     inkscape:current-layer="line" />
  <g
     id="line">
    <path
       fill="none"
       stroke="#000000"
       stroke-linecap="round"
       stroke-linejoin="round"
       stroke-width="2"
       d="M8.1,51.4"
       id="path28057" />
    <line
       x1="47.6"
       x2="27"
       y1="51"
       y2="51.4"
       fill="none"
       stroke="#000000"
       stroke-linecap="round"
       stroke-linejoin="round"
       stroke-width="2"
       id="line28059" />
    <path
       fill="none"
       stroke="#000000"
       stroke-linecap="round"
       stroke-linejoin="round"
       stroke-width="2"
       d="M8.1,51.4 c-0.9-0.2-1.7-0.5-1.8-1c-0.1-1-0.3-3.8-0.3-5.1c0-0.5,0.1-1.1,0.4-1.5c1.1-2,4.8-6.8,14.9-6.4l10.3-6.9c0.5-0.3,1.1-0.5,1.6-0.5 l19.6-0.1c0.3,0,0.6,0,0.9,0.1c2.2,0.6,11.7,4,10.4,12.6l1.1,0.6c0.5,0.2,0.9,0.7,1,1.2c0.4,1.4,0.3,2.9-0.2,4.3"
       id="path28061" />
    <polyline
       fill="none"
       stroke="#000000"
       stroke-linecap="round"
       stroke-linejoin="round"
       stroke-width="2"
       points="24.9,39.9 55.1,39.7 55.1,35.2"
       id="polyline28063"
       style="fill:#000000;fill-opacity:1" />
    <circle
       cx="17.3"
       cy="50.4"
       r="5"
       fill="none"
       stroke="#000000"
       stroke-linecap="round"
       stroke-linejoin="round"
       stroke-width="2"
       id="circle28065"
       style="fill:#000000;fill-opacity:1" />
    <circle
       cx="57.1"
       cy="50.4"
       r="5"
       fill="none"
       stroke="#000000"
       stroke-linecap="round"
       stroke-linejoin="round"
       stroke-width="2"
       id="circle28067"
       style="fill:#000000;fill-opacity:1" />
    <polyline
       fill="none"
       stroke="#000000"
       stroke-linecap="round"
       stroke-linejoin="round"
       stroke-width="2"
       points="12.3,42.9 10.5,45.1 6.8,45"
       id="polyline28069"
       style="fill:#000000;fill-opacity:1" />
  </g>
</svg>
