<?xml version="1.0" encoding="UTF-8" standalone="no"?>
<!--
   ***************************************************************************
   Bundesanstalt fuer Strassenwesen
   RWB-Symbol Nr.: 9
   Bezeichnung:
   Hafen, Faehrhafen, Faehre
   Ausdehnung in cm:
         X_min     X_max     Y_min     Y_max
         0.00000  15.00000   0.00000  15.00000
-->

<svg
   width="140"
   height="140"
   version="1.0"
   id="svg2"
   sodipodi:version="0.32"
   inkscape:version="1.2.2 (732a01da63, 2022-12-09, custom)"
   sodipodi:docname="transport . ferry.svg"
   inkscape:output_extension="org.inkscape.output.svg.inkscape"
   sodipodi:modified="true"
   xmlns:inkscape="http://www.inkscape.org/namespaces/inkscape"
   xmlns:sodipodi="http://sodipodi.sourceforge.net/DTD/sodipodi-0.dtd"
   xmlns="http://www.w3.org/2000/svg"
   xmlns:svg="http://www.w3.org/2000/svg"
   xmlns:rdf="http://www.w3.org/1999/02/22-rdf-syntax-ns#"
   xmlns:cc="http://creativecommons.org/ns#"
   xmlns:dc="http://purl.org/dc/elements/1.1/">
  <metadata
     id="metadata17">
    <rdf:RDF>
      <cc:Work
         rdf:about="">
        <dc:format>image/svg+xml</dc:format>
        <dc:type
           rdf:resource="http://purl.org/dc/dcmitype/StillImage" />
      </cc:Work>
    </rdf:RDF>
  </metadata>
  <defs
     id="defs15" />
  <sodipodi:namedview
     inkscape:window-height="1055"
     inkscape:window-width="1920"
     inkscape:pageshadow="2"
     inkscape:pageopacity="0.0"
     borderopacity="1.0"
     bordercolor="#666666"
     pagecolor="#ffffff"
     id="base"
     inkscape:zoom="2.6866667"
     inkscape:cx="34.42928"
     inkscape:cy="40.756823"
     inkscape:window-x="0"
     inkscape:window-y="0"
     inkscape:current-layer="svg2"
     width="140px"
     height="80px"
     inkscape:showpageshadow="2"
     inkscape:pagecheckerboard="0"
     inkscape:deskcolor="#d1d1d1"
     showgrid="false"
     inkscape:window-maximized="0" />
  <!--
   ***************************************************************************
-->
  <!--
      INHALT
-->
  <path
     d="m 137.12385,93.869132 -2,0.8333 -2.14285,0.89283 c -4.57143,1.904756 -9.71427,1.904756 -14.28569,0 l -4.28572,-1.78566 c -4.57142,-1.90476 -9.71426,-1.90476 -14.28568,0 l -4.285803,1.78566 c -4.571426,1.904756 -9.714274,1.904756 -14.285695,0 l -4.28571,-1.78566 c -2.2633,-0.94304 -4.690938,-1.42857 -7.142845,-1.42857 -2.451907,0 -4.879545,0.48553 -7.142845,1.42857 l -4.28571,1.78566 c -4.571421,1.904756 -9.714269,1.904756 -14.285685,0 l -4.28582,-1.78566 c -4.57142,-1.90476 -9.71426,-1.90476 -14.28568,0 l -4.28572,1.78566 c -4.57142,1.904756 -9.71426,1.904756 -14.2856805,0 l -2.14286,-0.89283 -2,-0.8333 v 7.999998 l 2,0.8333 2.14286,0.89283 c 4.5714205,1.90476 9.7142605,1.90476 14.2856805,0 l 4.28572,-1.78566 c 4.57142,-1.904758 9.71426,-1.904758 14.28568,0 l 4.28582,1.78566 c 4.571416,1.90476 9.714264,1.90476 14.285685,0 l 4.28571,-1.78566 c 2.2633,-0.94304 4.690938,-1.42857 7.142845,-1.42857 2.451907,0 4.879545,0.48553 7.142845,1.42857 l 4.28571,1.78566 c 4.571421,1.90476 9.714269,1.90476 14.285695,0 l 4.285803,-1.78566 c 4.57142,-1.904758 9.71426,-1.904758 14.28568,0 l 4.28572,1.78566 c 4.57142,1.90476 9.71426,1.90476 14.28569,0 l 2.14285,-0.89283 2,-0.8333 z"
     id="path6"
     style="fill:#000000;fill-rule:evenodd;stroke:none" />
  <!--
       OBERE WASSERWELLE
       UNTERE WASSERWELLE
-->
  <!--
      SCHIFF
-->
  <path
     d="m 128.79417,87.385974 c 4.11982,-7.552495 6.32968,-16.549153 6.32968,-25.769048 v -2.567255 h -13.3333 l 3.3333,-8.985393 H 98.123857 l 3.333293,-8.985392 H 73.123857 l 3,-7.701766 h -24 l -3,7.701766 -3.840445,9.290581 -16.492855,-0.305189 H 3.6517565 l 2.1351,6.783459 2e-5,1.8e-5 c 1.27757,4.058926 3.04487,7.834441 5.2370405,11.187947 l 4e-5,4e-6 3.4883,4.681903 -3e-5,-4.5e-5 c 3.08089,4.713048 5.42934,10.140537 6.91821,15.988622 l 2e-5,3.1e-5 4.40766,-2.516977 c 4.57142,-2.445001 9.71426,-2.445001 14.28568,0 l 4.28582,2.292125 c 4.571416,2.445002 9.714264,2.445002 14.285685,0 l 4.28571,-2.292125 c 2.2633,-1.210514 4.690938,-1.83375 7.142845,-1.83375 2.451907,0 4.879545,0.623236 7.142845,1.83375 l 4.28571,2.292125 c 4.571421,2.445002 9.714269,2.445002 14.285695,0 l 4.285803,-2.292125 c 4.57142,-2.445001 9.71426,-2.445001 14.28568,0 l 4.28572,2.292125 c 2.2633,1.210511 4.69093,1.833751 7.14284,1.833751 h 0.27952 c 1.07181,-0.668051 1.99304,-1.676234 2.67644,-2.929065 z"
     id="path10"
     style="fill:#000000;fill-rule:evenodd;stroke:none;stroke-width:1.13297"
     sodipodi:nodetypes="cccccccccccccccccccccccccccscccccccccc" />
  <!--
      HECK
      AUFBAU
      SCHORNSTEIN UNTERTEIL
      VORDECK
      BUG
      GEWELLTE WASSERLINIE
      SCHORNSTEIN
-->
  <path
     d="m 51.886732,34.036879 h 24 l 3.3333,-8.985393 h -24 z"
     id="path12"
     style="fill:#000000;fill-rule:evenodd;stroke:none;stroke-width:1.13297" />
</svg>
