<?xml version="1.0" encoding="UTF-8" standalone="no"?>
<svg
   id="emoji"
   viewBox="0 0 72 72"
   version="1.1"
   sodipodi:docname="2754.svg"
   inkscape:version="1.2.1 (8a69933317, 2022-10-28, custom)"
   xmlns:inkscape="http://www.inkscape.org/namespaces/inkscape"
   xmlns:sodipodi="http://sodipodi.sourceforge.net/DTD/sodipodi-0.dtd"
   xmlns="http://www.w3.org/2000/svg"
   xmlns:svg="http://www.w3.org/2000/svg">
  <defs
     id="defs216" />
  <sodipodi:namedview
     id="namedview214"
     pagecolor="#ffffff"
     bordercolor="#666666"
     borderopacity="1.0"
     inkscape:showpageshadow="2"
     inkscape:pageopacity="0.0"
     inkscape:pagecheckerboard="true"
     inkscape:deskcolor="#d1d1d1"
     showgrid="false"
     inkscape:zoom="4.4861111"
     inkscape:cx="36.111455"
     inkscape:cy="36"
     inkscape:window-width="950"
     inkscape:window-height="1043"
     inkscape:window-x="962"
     inkscape:window-y="4"
     inkscape:window-maximized="1"
     inkscape:current-layer="line" />
  <g
     id="color"
     transform="matrix(0.80047427,0,0,0.80047427,6.3181628,6.9704875)">
    <path
       fill="#ffffff"
       stroke-miterlimit="10"
       d="M 48.72,20.15 C 49.0251,29.448 40.699,32.9 37.9,39.36 v 7.565 c 0,1.39 -1.11,2.5 -2.5,2.5 -1.38,0 -2.5,-1.11 -2.5,-2.5 V 37.06 C 36.393,30.918 43.28,29.591 43.57,20 c 0,-5.66 -6.543,-6.151 -7.988,-6.175 h -0.05 c -5.767,1.187 -6.135,4.99 -7.289,9.549 -0.6671,1.521 -1.564,2.045 -2.9,2.03 -1.36,-0.2401 -2.26,-1.54 -2.02,-2.9 0.5877,-2.752 0.758,-6.639 2.35,-8.502 2.71,-3.14 4.819,-4.957 9.179,-5.167 0.24,0 0.49,-0.01 0.73,-0.01 0.09,0 0.18,0 0.27,0.01 8.27,0.2401 12.6,2.992 12.87,11.32 z"
       id="path198" />
    <circle
       cx="34.950001"
       cy="58.84"
       r="3"
       fill="#ffffff"
       stroke-miterlimit="10"
       id="circle200" />
  </g>
  <g
     id="hair" />
  <g
     id="skin" />
  <g
     id="skin-shadow" />
  <g
     id="line">
    <circle
       cx="35"
       cy="35"
       r="33"
       stroke="#fff"
       stroke-width="4"
       fill="none"
       id="circle206" />
    <circle
       cx="34.574905"
       cy="54.070396"
       r="2.1012449"
       fill="#ffffff"
       stroke="#ffffff"
       stroke-linecap="round"
       stroke-linejoin="round"
       stroke-miterlimit="10"
       stroke-width="1.75"
       id="circle208" />
    <path
       fill="#ffffff"
       d="m 34.87108,15.031263 c 5.259116,0 9.629706,2.746427 9.629706,8.172842 0,2.938541 -0.384228,5.223895 -2.96976,7.808627 -3.166676,3.166676 -5.750607,5.079809 -5.769819,6.843254 -0.05211,4.663563 -0.004,6.626326 -0.0035,6.691965 a 1.1815,1.1815 0 0 1 -1.171894,1.190305 h -0.0092 a 1.1815,1.1815 0 0 1 -1.1815,-1.171894 c -4.01e-4,-0.06556 -0.04859,-2.050015 0.0035,-6.736791 0.02866,-2.586333 2.905721,-4.904506 6.711976,-8.709161 1.743433,-1.740231 1.980374,-3.775036 1.980374,-5.70498 0,-2.627156 -2.373406,-6.073198 -7.191461,-6.073198 -4.272932,0 -6.803231,2.775244 -6.803231,7.64613 a 1.1478801,1.1478801 0 0 1 -1.116662,1.270353 1.2423361,1.2423361 0 0 1 -1.204713,-1.408034 c 0,-7.910287 5.836258,-9.82182 9.093387,-9.82182 m 0,-1.600948 c -3.973554,0 -10.694336,2.405425 -10.694336,11.422768 a 2.816869,2.816869 0 0 0 2.805662,3.008983 2.7360211,2.7360211 0 0 0 2.717611,-2.871302 c 0,-2.757634 0.902935,-6.045181 5.202282,-6.045181 3.855884,0 5.590512,2.615149 5.590512,4.472249 0,1.892322 -0.252549,3.317166 -1.509694,4.572309 -0.601557,0.600356 -1.179899,1.16389 -1.726623,1.697006 -3.148266,3.068218 -5.423214,5.284731 -5.455232,8.124814 -0.04403,3.959145 -0.01745,6.034775 -0.004,6.743195 a 2.7824663,2.7824663 0 1 0 5.564897,-0.01985 l -9.6e-4,-0.06003 c -0.01313,-0.688008 -0.03906,-2.708805 0.0045,-6.602312 0.0074,-0.671118 1.682597,-2.258939 3.160273,-3.659769 0.647664,-0.613963 1.381618,-1.309575 2.141268,-2.069226 2.863297,-2.863296 3.438838,-5.544084 3.438838,-8.941297 0,-5.844263 -4.513074,-9.773791 -11.230654,-9.773791 z"
       id="path210"
       style="stroke-width:0.800474" />
  </g>
</svg>
