<svg xmlns="http://www.w3.org/2000/svg" viewBox="0 0 133.55 42.66"><defs><style>.cls-1{fill:#3056a2;}.cls-2{fill:#8cb8e3;}</style></defs><title>ABC_logo</title><g id="Camada_2" data-name="Camada 2"><g id="Camada_1-2" data-name="Camada 1"><path class="cls-1" d="M60.07,1.27h4.47L76.63,28.93h-5.1L68.74,22.3h-13l-2.82,6.63H48ZM67,18,62.23,7,57.52,18Z"/><path class="cls-1" d="M81.33,1.46H93.65c3.14,0,5.61.86,7.18,2.43a6.15,6.15,0,0,1,1.84,4.55v.08a6.54,6.54,0,0,1-3.92,6.12c3.22,1.1,5.45,2.94,5.45,6.67v.08c0,4.91-4,7.54-10.16,7.54H81.33ZM92.67,13c3.1,0,5.18-1.22,5.18-3.73V9.23c0-2.16-1.73-3.49-4.83-3.49H86.08V13Zm1.41,11.61c3.3,0,5.3-1.3,5.3-3.77v-.08c0-2.32-1.84-3.69-5.65-3.69H86.08v7.53Z"/><path class="cls-1" d="M108.44,15.28V15.2A13.9,13.9,0,0,1,122.6,1a14.31,14.31,0,0,1,10.75,4.28l-3.1,3.57c-2.2-2-4.55-3.41-7.69-3.41-5.26,0-9.07,4.31-9.07,9.69v.08c0,5.38,3.81,9.77,9.07,9.77,3.37,0,5.53-1.37,7.89-3.57l3.1,3.14a14.18,14.18,0,0,1-11.14,4.87A13.81,13.81,0,0,1,108.44,15.28Z"/><path class="cls-1" d="M24.15,1.44c-.83,3.46-1.7,6.91-2.59,10.35L18.86,22.11,16,32.4,14.6,37.54l-1.49,5.12,1.27-5.18,1.32-5.17L18.41,22,21.22,11.7C22.18,8.27,23.14,4.85,24.15,1.44Z"/><path class="cls-1" d="M19.86.68a20.15,20.15,0,0,0-9.72,2.49A19.25,19.25,0,1,1,5.86,35.52,20.23,20.23,0,1,0,19.86.68Z"/><path class="cls-1" d="M37.4,15.38a4.16,4.16,0,0,0-1-3.62,3.58,3.58,0,0,1,.61,2.9C36,18,28.59,18.83,20.4,16.47s-14-7-13.08-10.33c.42-1.47,2.08-2.45,4.51-2.89-3,.37-5.12,1.45-5.61,3.17-1,3.52,5.15,8.39,13.75,10.86S36.38,18.91,37.4,15.38Z"/><path class="cls-1" d="M31.83,35a4.16,4.16,0,0,0-1-3.62,3.59,3.59,0,0,1,.61,2.9c-1,3.35-8.38,4.16-16.57,1.81s-14-7-13.08-10.33c.42-1.47,2.08-2.45,4.51-2.89-3,.37-5.12,1.45-5.61,3.17-1,3.53,5.15,8.39,13.75,10.86S30.82,38.53,31.83,35Z"/><path class="cls-1" d="M38.5,25.6c.39-1.37-.09-2.9-1.27-4.45A4.41,4.41,0,0,1,38,24.72c-1.19,4.12-10.31,5.12-20.39,2.22S.31,18.35,1.49,14.23c.52-1.81,2.56-3,5.55-3.56-3.71.46-6.3,1.79-6.9,3.9C-1.11,18.91,6.46,24.9,17.06,27.94S37.25,29.94,38.5,25.6Z"/><path class="cls-1" d="M31.14,5.83a2,2,0,0,0-.5-1.74,1.72,1.72,0,0,1,.29,1.39c-.46,1.61-4,2-8,.87s-6.75-3.36-6.29-5c.2-.71,1-1.18,2.17-1.39-1.45.18-2.46.7-2.7,1.52-.49,1.69,2.47,4,6.61,5.22S30.65,7.53,31.14,5.83Z"/><path class="cls-2" d="M49.1,37.5h.6l1.61,3.7h-.68l-.37-.89H48.52l-.38.89h-.66ZM50,39.74l-.63-1.47-.63,1.47Z"/><path class="cls-2" d="M51.63,40.67l.39-.46a1.69,1.69,0,0,0,1.16.48c.4,0,.65-.18.65-.46h0c0-.26-.15-.4-.83-.56s-1.22-.42-1.22-1.1h0A1.12,1.12,0,0,1,53,37.48a2,2,0,0,1,1.33.46l-.35.49A1.67,1.67,0,0,0,53,38c-.38,0-.6.19-.6.44h0c0,.28.17.41.87.58s1.18.47,1.18,1.07h0c0,.69-.54,1.1-1.31,1.1A2.26,2.26,0,0,1,51.63,40.67Z"/><path class="cls-2" d="M54.93,40.67l.39-.46a1.69,1.69,0,0,0,1.16.48c.4,0,.65-.18.65-.46h0c0-.26-.15-.4-.83-.56s-1.22-.42-1.22-1.1h0a1.12,1.12,0,0,1,1.25-1.06,2,2,0,0,1,1.33.46l-.35.49a1.67,1.67,0,0,0-1-.38c-.38,0-.6.19-.6.44h0c0,.28.17.41.87.58s1.18.47,1.18,1.07h0c0,.69-.54,1.1-1.31,1.1A2.26,2.26,0,0,1,54.93,40.67Z"/><path class="cls-2" d="M58.37,39.38h0a1.92,1.92,0,0,1,3.84,0h0a1.92,1.92,0,0,1-3.84,0Zm3.16,0h0a1.26,1.26,0,0,0-1.25-1.31A1.24,1.24,0,0,0,59,39.36h0a1.26,1.26,0,0,0,1.25,1.31A1.24,1.24,0,0,0,61.53,39.38Z"/><path class="cls-2" d="M62.83,39.38h0a1.86,1.86,0,0,1,1.89-1.9,1.91,1.91,0,0,1,1.44.57l-.41.48a1.45,1.45,0,0,0-1-.46,1.23,1.23,0,0,0-1.21,1.29h0a1.24,1.24,0,0,0,1.21,1.31,1.44,1.44,0,0,0,1.05-.48l.41.42a1.89,1.89,0,0,1-1.49.65A1.85,1.85,0,0,1,62.83,39.38Z"/><path class="cls-2" d="M66.89,37.53h.64V41.2h-.64Z"/><path class="cls-2" d="M69.82,37.5h.6L72,41.2h-.68L71,40.32H69.24l-.38.89H68.2Zm.92,2.24-.63-1.47-.63,1.47Z"/><path class="cls-2" d="M73.09,38.13H71.93v-.6h3v.6H73.74V41.2h-.65Z"/><path class="cls-2" d="M75.62,37.53h.64V41.2h-.64Z"/><path class="cls-2" d="M77.08,39.38h0a1.92,1.92,0,0,1,3.84,0h0a1.92,1.92,0,0,1-3.84,0Zm3.16,0h0A1.26,1.26,0,0,0,79,38.06a1.24,1.24,0,0,0-1.24,1.29h0A1.26,1.26,0,0,0,79,40.67,1.24,1.24,0,0,0,80.25,39.38Z"/><path class="cls-2" d="M81.7,37.53h.6l2,2.54V37.53h.63V41.2h-.54l-2-2.61V41.2H81.7Z"/><path class="cls-2" d="M87.9,37.53h1.65a1.32,1.32,0,0,1,1,.33.82.82,0,0,1,.25.61h0a.87.87,0,0,1-.52.82.9.9,0,0,1,.73.89h0c0,.66-.54,1-1.36,1H87.9Zm1.51,1.55c.41,0,.69-.16.69-.5h0c0-.29-.23-.47-.65-.47h-.93v1Zm.19,1.55c.44,0,.71-.17.71-.5h0c0-.31-.25-.49-.76-.49h-1v1Z"/><path class="cls-2" d="M91.72,37.53h.64V41.2h-.64Z"/><path class="cls-2" d="M93.34,37.53H94v3.08h1.93v.59H93.34Z"/><path class="cls-2" d="M97.89,37.5h.6l1.61,3.7h-.68L99,40.32H97.31l-.38.89h-.66Zm.92,2.24-.63-1.47-.63,1.47Z"/><path class="cls-2" d="M100.73,37.53h.6l2,2.54V37.53h.64V41.2h-.54l-2-2.61V41.2h-.63Z"/><path class="cls-2" d="M106.28,39.38h0a1.86,1.86,0,0,1,1.89-1.9,1.91,1.91,0,0,1,1.44.57l-.41.48a1.46,1.46,0,0,0-1-.46A1.23,1.23,0,0,0,107,39.36h0a1.24,1.24,0,0,0,1.21,1.31,1.44,1.44,0,0,0,1.05-.48l.41.42a1.89,1.89,0,0,1-1.49.65A1.85,1.85,0,0,1,106.28,39.38Z"/><path class="cls-2" d="M111.61,37.5h.6l1.61,3.7h-.68l-.37-.89H111l-.38.89H110Zm.92,2.24-.63-1.47-.63,1.47Z"/><path class="cls-2" d="M114.45,37.53h1.64a1.48,1.48,0,0,1,1.06.37,1.11,1.11,0,0,1,.3.79h0a1.1,1.1,0,0,1-.88,1.11l1,1.39h-.76l-.9-1.28h-.81V41.2h-.64ZM116,39.35c.46,0,.75-.24.75-.61h0c0-.39-.28-.61-.76-.61h-.94v1.23Z"/><path class="cls-2" d="M118.24,37.53h1.65a1.32,1.32,0,0,1,1,.33.82.82,0,0,1,.25.61h0a.87.87,0,0,1-.52.82.9.9,0,0,1,.73.89h0c0,.66-.54,1-1.36,1h-1.7Zm1.52,1.55c.41,0,.69-.16.69-.5h0c0-.29-.23-.47-.64-.47h-.93v1Zm.19,1.55c.44,0,.71-.17.71-.5h0c0-.31-.25-.49-.76-.49h-1v1Z"/><path class="cls-2" d="M121.86,39.38h0a1.92,1.92,0,0,1,3.84,0h0a1.92,1.92,0,0,1-3.84,0Zm3.16,0h0a1.26,1.26,0,0,0-1.25-1.31,1.24,1.24,0,0,0-1.24,1.29h0a1.26,1.26,0,0,0,1.25,1.31A1.24,1.24,0,0,0,125,39.38Z"/><path class="cls-2" d="M126.48,37.53h.6l2,2.54V37.53h.63V41.2h-.54l-2-2.61V41.2h-.63Z"/><path class="cls-2" d="M130.62,37.53h2.72v.58h-2.08v1h1.84v.58h-1.84v1h2.1v.58h-2.75Z"/></g></g></svg>