<?xml version="1.0" encoding="UTF-8" standalone="no"?>
<!-- Created with Inkscape (http://www.inkscape.org/) -->

<svg
   width="210mm"
   height="210mm"
   viewBox="0 0 210 210"
   version="1.1"
   id="svg1052"
   inkscape:version="1.2.1 (2ed6d7ae0b, 2022-08-22, custom)"
   sodipodi:docname="climate-change-small.svg"
   xmlns:inkscape="http://www.inkscape.org/namespaces/inkscape"
   xmlns:sodipodi="http://sodipodi.sourceforge.net/DTD/sodipodi-0.dtd"
   xmlns="http://www.w3.org/2000/svg"
   xmlns:svg="http://www.w3.org/2000/svg">
  <sodipodi:namedview
     id="namedview1054"
     pagecolor="#ffffff"
     bordercolor="#666666"
     borderopacity="1.0"
     inkscape:pageshadow="2"
     inkscape:pageopacity="0.0"
     inkscape:pagecheckerboard="0"
     inkscape:document-units="mm"
     showgrid="false"
     inkscape:zoom="0.42589916"
     inkscape:cx="216.01358"
     inkscape:cy="426.15722"
     inkscape:window-width="1920"
     inkscape:window-height="1055"
     inkscape:window-x="0"
     inkscape:window-y="0"
     inkscape:window-maximized="1"
     inkscape:current-layer="g991"
     inkscape:showpageshadow="2"
     inkscape:deskcolor="#d1d1d1" />
  <defs
     id="defs1049" />
  <g
     inkscape:label="Calque 1"
     inkscape:groupmode="layer"
     id="layer1">
    <g
       id="g1374"
       transform="matrix(2.9335582,0,0,2.9335582,0.951152,0.36784076)">
      <g
         id="color">
        <g
           id="g991"
           transform="matrix(1.8925445,0,0,1.8925445,-32.784068,-51.251895)">
          <ellipse
             style="fill:#f5a292;fill-opacity:1;fill-rule:evenodd;stroke:#151533;stroke-width:2.16143;stroke-miterlimit:4;stroke-dasharray:none;stroke-opacity:1"
             id="path850-3"
             cx="36.099613"
             cy="46.035187"
             rx="14.388253"
             ry="14.388214" />
          <g
             id="g935"
             transform="translate(51.989318,41.906318)"
             style="fill:#d22f27;fill-opacity:1;stroke:#151533;stroke-opacity:1">
            <g
               id="g972"
               transform="matrix(0.4738451,0,0,0.4738451,-5.0014199,6.6236573)"
               style="fill:#d22f27;fill-opacity:1;stroke:#151533;stroke-opacity:1">
              <path
                 fill="none"
                 stroke="#000000"
                 stroke-linecap="round"
                 stroke-linejoin="round"
                 stroke-miterlimit="10"
                 stroke-width="2.53931"
                 d="m -37.734002,-12.142295 c -0.05294,0.740591 -2.116518,3.2830792 -2.645076,3.6502632 -1.102316,0.765604 -1.532603,0.41467 -2.492971,1.170497 -0.608674,0.479042 -1.369325,0.991222 -2.301253,1.170497 -0.515862,0.09916 -0.287705,-0.388261 -1.448298,0.357028 -0.502215,1.635386 1.528871,2.854329 2.539314,3.808971 2.252968,0.01986 3.544073,2.11031497 5.078627,3.80897 0.514592,0.08596 0.699327,-0.183211 1.269657,0 0.522083,0.167849 1.121234,0.635845 1.269657,1.269657 -0.179878,1.78346 -1.694649,2.918456 -2.539314,3.808971 -1.602068,2.6874016 -2.539313,4.6837018 -2.539313,7.6179418 -0.165945,0.631019 -1.447409,1.183701 -1.930895,1.110949 -0.951734,-0.14309 -0.934594,-3.431882 -0.978651,-3.941269 0.446094,-1.998632 0.03103,-3.6495971 -0.0032,-5.2571428 -1.472867,-1.394635 -1.441425,-3.106484 -2.165874,-4.609107 0.09831,-2.00732703 -1.318141,-2.80764503 -2.539314,-3.80897 -0.933324,-0.763191 -1.761141,-1.440045 -2.539313,-2.539314 -1.919503,-1.325261 -1.781847,-12.6627932 2.539313,-15.2358842 0.821088,-0.410861 0.42851,-1.499211 1.269657,-2.539313 1.525811,-1.507577 3.759743,-1.269657 5.078628,-1.269657 1.870903,-1.216008 3.12171,-1.30655 5.078628,-1.269657 1.636391,1.680276 2.180379,0.920504 3.80897,0 1.001379,-0.140551 2.192571,0.407814 2.539314,1.269657 0.306593,1.53339 -0.792358,2.933605 -1.269657,3.80897 0.380502,2.245794 -0.35204,2.428468 -1.30927,3.57091 -0.308781,0.254186 -0.383563,0.661238 -1.230044,1.507718 -0.423176,0.423177 -0.862604,0.830863 -1.269656,1.269657 -0.927739,0.999982 -1.075781,1.07578 -1.269657,1.269657"
                 id="path16"
                 style="fill:#d22f27;fill-opacity:1;stroke:#151533;stroke-opacity:1"
                 sodipodi:nodetypes="ccsccccccccccccccccccccccscc" />
              <path
                 fill="none"
                 stroke="#000000"
                 stroke-linecap="round"
                 stroke-linejoin="round"
                 stroke-miterlimit="10"
                 stroke-width="2.53931"
                 d="m -18.227423,-6.4411238 c -0.295449,-0.376453 -1.559393,-2.318393 -1.269657,-2.539313 0.659676,-1.8397172 -0.635353,-2.9911622 2.539314,-2.5393142 1.760016,0.114384 -0.999517,-2.759295 0.137694,-4.34212 -0.594275,-1.097433 1.893582,-1.135869 2.40162,-2.006164 1.387675,-0.486959 1.849415,0.792436 2.539314,1.269657 1.382179,0.504603 1.871979,-0.805718 2.5393134,-1.269657 0.4351115,-0.196035 0.651461,0.01346 1.2696569,0 1.4185881,-0.03085 2.4621191,-1.182178 2.5393141,-1.269657 0.639273,-0.724974 0.315256,-1.015091 1.269657,-2.539314 0.589519,-1.561569 1.692379,-0.953719 2.539314,-1.269657 0.662022,1.427364 1.7375,0.888338 2.539314,1.269657 4.035923,4.064643 7.113399,10.535642 6.348411,13.9662262 -0.43765,0.778553 0.489707,1.504162 0,2.539313 -0.839078,0.919027 -1.747771,1.782263 -2.539313,2.539314 0.82322,1.66443997 -0.906661,0.906661 -1.269657,1.269657 -1.637731,-0.614006 -1.70388,-2.501478 -2.539314,-2.539314 -1.001632,-0.04533 -1.611655,4.81111797 -2.599956,4.71195797 -0.221936,-0.02222 -0.953278,-2.15172397 -1.651843,-2.98334897 -0.587426,-1.530347 -1.132313,-1.30031 -2.096486,-1.728609 -1.376339,0.862289 -0.728425,3.18830697 -1.258185,4.29672597 -1.5603787,0.69299003 -2.1500112,1.09598803 -2.550786,2.05155903 0.026282,0.779442 0.038598,1.171258 0,1.269657 -1.3954544,0.665573 -0.8711474,1.712853 -1.2696574,2.539314 -0.07643,1.3128248 -1.510637,6.4208148 -2.539313,6.2329058 -1.420953,-0.859671 -2.471269,-4.8090089 -3.092921,-6.0949378 -0.234379,-1.161609 -0.0098,-1.859495 -0.204654,-3.116074 -0.663851,-2.80342403 -1.392736,-1.976865 -3.316646,-1.976865 -0.891934,-0.41086103 -1.03305,-3.03041 -1.003721,-3.932628 0.03136,-0.963923 0.563601,-1.641158 1.269657,-2.539314 0.553063,-0.70377 0.829721,-1.055719 1.26953,-1.269657"
                 id="path18"
                 style="fill:#d22f27;fill-opacity:1;stroke:#151533;stroke-opacity:1"
                 sodipodi:nodetypes="cccccccsccccccccccccccccccccscc" />
              <path
                 fill="none"
                 stroke="#000000"
                 stroke-linecap="round"
                 stroke-linejoin="round"
                 stroke-miterlimit="10"
                 stroke-width="2.53931"
                 d="m -3.0872746,8.6786433 c -1.498322,0.7355122 -2.214409,0.5750276 -2.539314,1.2696569 -0.252027,0.5389688 -0.05002,1.1247888 0,1.2696568 0.3084,0.893712 1.174433,1.23398 1.269657,1.269657 1.09673,0.410734 1.699944,-0.450093 2.539314,0 0.640415,0.343442 0.540366,0.979286 1.269657,1.269657 -0.122682,-0.303833 1.790308,-1.091305 2.467743,-1.908737 1.215555,-1.769683 0.375909,-3.1911735 0.07157,-4.4395477 -0.159596,-0.054849 -0.174959,-0.014855 -1.269657,0 -0.9285,0.01257 -1.023725,-0.014855 -1.269657,0 -0.971415,0.058658 -1.148278,0.5868355 -2.539313,1.269657 z"
                 id="path20"
                 style="fill:#d22f27;fill-opacity:1;stroke:#151533;stroke-opacity:1"
                 sodipodi:nodetypes="scccscccsss" />
            </g>
          </g>
        </g>
      </g>
    </g>
  </g>
</svg>
