<svg width="898" height="106" viewBox="0 0 898 106" fill="none" xmlns="http://www.w3.org/2000/svg">
<path d="M100.58 105.9C103.518 105.9 105.9 103.518 105.9 100.58C105.9 97.6419 103.518 95.26 100.58 95.26C97.6419 95.26 95.26 97.6419 95.26 100.58C95.26 103.518 97.6419 105.9 100.58 105.9Z" fill="black"/>
<path d="M53.26 105.9C56.1982 105.9 58.58 103.518 58.58 100.58C58.58 97.6419 56.1982 95.26 53.26 95.26C50.3218 95.26 47.94 97.6419 47.94 100.58C47.94 103.518 50.3218 105.9 53.26 105.9Z" fill="black"/>
<path d="M5.93999 105.9C8.87815 105.9 11.26 103.518 11.26 100.58C11.26 97.6419 8.87815 95.26 5.93999 95.26C3.00184 95.26 0.619995 97.6419 0.619995 100.58C0.619995 103.518 3.00184 105.9 5.93999 105.9Z" fill="black"/>
<path d="M100.58 58.5799C103.518 58.5799 105.9 56.1981 105.9 53.2599C105.9 50.3218 103.518 47.9399 100.58 47.9399C97.6419 47.9399 95.26 50.3218 95.26 53.2599C95.26 56.1981 97.6419 58.5799 100.58 58.5799Z" fill="black"/>
<path d="M5.93999 58.5799C8.87815 58.5799 11.26 56.1981 11.26 53.2599C11.26 50.3218 8.87815 47.9399 5.93999 47.9399C3.00184 47.9399 0.619995 50.3218 0.619995 53.2599C0.619995 56.1981 3.00184 58.5799 5.93999 58.5799Z" fill="black"/>
<path d="M100.58 11.26C103.518 11.26 105.9 8.87815 105.9 5.93999C105.9 3.00184 103.518 0.619995 100.58 0.619995C97.6419 0.619995 95.26 3.00184 95.26 5.93999C95.26 8.87815 97.6419 11.26 100.58 11.26Z" fill="black"/>
<path d="M53.26 11.26C56.1982 11.26 58.58 8.87815 58.58 5.93999C58.58 3.00184 56.1982 0.619995 53.26 0.619995C50.3218 0.619995 47.94 3.00184 47.94 5.93999C47.94 8.87815 50.3218 11.26 53.26 11.26Z" fill="black"/>
<path d="M5.93999 11.26C8.87815 11.26 11.26 8.87815 11.26 5.93999C11.26 3.00184 8.87815 0.619995 5.93999 0.619995C3.00184 0.619995 0.619995 3.00184 0.619995 5.93999C0.619995 8.87815 3.00184 11.26 5.93999 11.26Z" fill="black"/>
<path d="M78.88 45.29H56.45V26.46C56.4501 26.0058 56.3084 25.5629 56.0445 25.1931C55.7807 24.8234 55.408 24.5453 54.9784 24.3977C54.5488 24.2501 54.0839 24.2404 53.6485 24.3699C53.2131 24.4994 52.8291 24.7616 52.55 25.12L25.91 57.71C25.6585 58.0328 25.5029 58.4198 25.461 58.8268C25.4191 59.2338 25.4926 59.6444 25.6731 60.0116C25.8535 60.3788 26.1337 60.6878 26.4815 60.9033C26.8294 61.1188 27.2308 61.232 27.64 61.23H50.07V80.06C50.0699 80.5142 50.2116 80.9572 50.4755 81.3269C50.7393 81.6966 51.1121 81.9747 51.5416 82.1223C51.9712 82.2699 52.4361 82.2796 52.8715 82.1501C53.3069 82.0207 53.6909 81.7584 53.97 81.4L80.61 48.81C80.8615 48.4873 81.0171 48.1003 81.059 47.6933C81.1009 47.2862 81.0274 46.8756 80.847 46.5084C80.6665 46.1412 80.3863 45.8322 80.0385 45.6167C79.6906 45.4013 79.2892 45.2881 78.88 45.29V45.29Z" fill="black"/>
<path d="M191.68 73.21V82.33H156.43V24.27H191.27V33.4H166V48.49H189.2V57.49H166V73.17L191.68 73.21Z" fill="black"/>
<path d="M235.54 73.21V82.33H202.36V24.27H211.9V73.21H235.54Z" fill="black"/>
<path d="M278.2 73.21V82.33H242.94V24.27H277.78V33.4H252.48V48.49H275.71V57.49H252.48V73.17L278.2 73.21Z" fill="black"/>
<path d="M284.48 53.3C284.48 36.47 297.17 23.19 314.84 23.19C319.856 23.1064 324.806 24.3428 329.194 26.7754C333.582 29.208 337.253 32.7513 339.84 37.05L331.54 41.86C328.47 36.13 322.17 32.48 314.87 32.48C302.35 32.48 294.05 41.36 294.05 53.3C294.05 65.24 302.35 74.12 314.87 74.12C322.17 74.12 328.56 70.47 331.54 64.75L339.84 69.48C335.03 77.94 325.57 83.41 314.84 83.41C297.17 83.41 284.48 70.14 284.48 53.3Z" fill="black"/>
<path d="M387.2 33.4H370.86V82.33H361.32V33.4H344.9V24.27H387.2V33.4Z" fill="black"/>
<path d="M415.43 61.18H404.15V82.33H394.61V24.27H417.83C420.284 24.2608 422.716 24.7374 424.986 25.6724C427.255 26.6073 429.317 27.9822 431.052 29.7177C432.788 31.4532 434.163 33.5151 435.098 35.7844C436.033 38.0537 436.509 40.4857 436.5 42.94C436.468 46.5695 435.358 50.1076 433.31 53.1044C431.262 56.1013 428.37 58.4215 425 59.77L438.18 82.33H427.7L415.43 61.18ZM404.15 52.64H417.83C419.067 52.6051 420.285 52.3262 421.414 51.8194C422.544 51.3125 423.561 50.5877 424.41 49.6864C425.258 48.7852 425.92 47.7253 426.358 46.5675C426.795 45.4098 427 44.1771 426.96 42.94C426.96 37.46 422.89 33.23 417.83 33.23H404.15V52.64Z" fill="black"/>
<path d="M456.63 24.27V82.33H447.09V24.27H456.63Z" fill="black"/>
<path d="M466.66 53.3C466.66 36.47 479.35 23.19 497.02 23.19C502.036 23.1064 506.986 24.3428 511.374 26.7754C515.762 29.208 519.433 32.7513 522.02 37.05L513.72 41.86C510.65 36.13 504.35 32.48 497.05 32.48C484.52 32.48 476.23 41.36 476.23 53.3C476.23 65.24 484.52 74.12 497.05 74.12C504.35 74.12 510.74 70.47 513.72 64.75L522.02 69.48C517.21 77.94 507.75 83.41 497.02 83.41C479.35 83.41 466.66 70.14 466.66 53.3Z" fill="black"/>
<path d="M540.7 24.27V82.33H531.16V24.27H540.7Z" fill="black"/>
<path d="M590.31 33.4H574V82.33H564.47V33.4H548V24.27H590.31V33.4Z" fill="black"/>
<path d="M625.06 59.28V82.33H615.52V59.28L595.28 24.28H606.15L620.33 50L634.43 24.28H645.3L625.06 59.28Z" fill="black"/>
<path d="M732.8 82.33H723.26V40.94L705.6 70.14H704.44L686.77 40.86V82.33H677.23V24.27H687.51L705.02 53.27L722.6 24.27H732.8V82.33Z" fill="black"/>
<path d="M779.08 70.64H754.36L750.3 82.33H739.93L761 24.27H772.44L793.44 82.33H783.14L779.08 70.64ZM775.93 61.64L766.72 35.43L757.51 61.64H775.93Z" fill="black"/>
<path d="M841.15 43.35C841.179 45.8779 840.699 48.3859 839.74 50.7249C838.78 53.0639 837.361 55.1863 835.565 56.966C833.769 58.7457 831.635 60.1464 829.287 61.0851C826.94 62.0237 824.428 62.481 821.9 62.43H810V82.33H800.5V24.27H821.9C824.429 24.2119 826.945 24.6645 829.295 25.6006C831.646 26.5368 833.783 27.9373 835.58 29.7184C837.377 31.4995 838.797 33.6247 839.754 35.9668C840.711 38.309 841.186 40.8201 841.15 43.35V43.35ZM831.61 43.35C831.61 37.46 827.54 33.23 821.9 33.23H810V53.47H821.9C827.54 53.47 831.61 49.16 831.61 43.35Z" fill="black"/>
<path d="M846.41 69.15L854.62 64.34C856.7 70.22 861.18 74.12 869.06 74.12C876.61 74.12 879.84 70.72 879.84 66.49C879.84 61.35 875.28 59.61 866.65 56.95C857.65 54.22 848.82 50.95 848.82 39.95C848.82 29.25 857.69 23.19 867.48 23.19C871.742 23.0833 875.941 24.2436 879.544 26.5239C883.147 28.8041 885.992 32.1019 887.72 36L879.67 40.64C877.6 36 874 32.48 867.48 32.48C861.92 32.48 858.36 35.3 858.36 39.7C858.36 44.1 861.59 46.09 870.05 48.7C879.67 51.77 889.38 54.76 889.38 66.29C889.38 76.9 880.92 83.37 868.81 83.37C857.36 83.41 849.48 77.77 846.41 69.15Z" fill="black"/>
</svg>