<?xml version="1.0" encoding="UTF-8" standalone="no"?>
<svg xmlns:dc="http://purl.org/dc/elements/1.1/" xmlns:cc="http://creativecommons.org/ns#" xmlns:rdf="http://www.w3.org/1999/02/22-rdf-syntax-ns#" xmlns:svg="http://www.w3.org/2000/svg" xmlns="http://www.w3.org/2000/svg" version="1.1" id="svg2" xml:space="preserve" width="732.65997" height="732.66132" viewBox="0 0 732.65997 732.66132"><metadata id="metadata8"><rdf:RDF><cc:Work rdf:about=""><dc:format>image/svg+xml</dc:format><dc:type rdf:resource="http://purl.org/dc/dcmitype/StillImage"/><dc:title/></cc:Work></rdf:RDF></metadata><defs id="defs6"><clipPath clipPathUnits="userSpaceOnUse" id="clipPath18"><path d="M 0,680.315 H 680.315 V 0 H 0 Z" id="path16"/></clipPath></defs><g id="g10" transform="matrix(1.3333333,0,0,-1.3333333,-85.419598,818.02971)"><g id="g12"><g id="g14" clip-path="url(#clipPath18)"><g id="g20" transform="translate(609.7795,336.141)"><path d="m 0,0 c 0,-149.597 -121.272,-270.869 -270.868,-270.869 -149.596,0 -270.868,121.272 -270.868,270.869 0,149.598 121.272,270.87 270.868,270.87 C -121.272,270.87 0,149.598 0,0" style="fill:#ffffff;fill-opacity:1;fill-rule:nonzero;stroke:none" id="path22"/></g><g id="g24" transform="translate(338.8127,598.4193)"><path d="m 0,0 c -143.167,0 -259.645,-116.478 -259.645,-259.645 0,-143.17 116.478,-259.644 259.645,-259.644 143.17,0 259.645,116.474 259.645,259.644 C 259.645,-116.478 143.17,0 0,0 m 0,-534.393 c -151.497,0 -274.748,123.251 -274.748,274.748 0,151.497 123.251,274.748 274.748,274.748 151.496,0 274.747,-123.251 274.747,-274.748 0,-151.497 -123.251,-274.748 -274.747,-274.748" style="fill:#169b62;fill-opacity:1;fill-rule:nonzero;stroke:none" id="path26"/></g><g id="g28" transform="translate(338.8127,472.9794)"><path d="m 0,0 c -74.001,0 -134.206,-60.205 -134.206,-134.206 0,-74.001 60.205,-134.206 134.206,-134.206 74.001,0 134.206,60.205 134.206,134.206 C 134.206,-60.205 74.001,0 0,0 m 0,-274.073 c -77.125,0 -139.867,62.742 -139.867,139.867 0,77.125 62.742,139.868 139.867,139.868 77.125,0 139.867,-62.743 139.867,-139.868 0,-77.125 -62.742,-139.867 -139.867,-139.867" style="fill:#169b62;fill-opacity:1;fill-rule:nonzero;stroke:none" id="path30"/></g><g id="g32" transform="translate(519.0715,345.3182)"><path d="m 0,0 -45.983,-79.647 -43.161,24.915 45.984,79.65 z" style="fill:#e1000f;fill-opacity:1;fill-rule:nonzero;stroke:none" id="path34"/></g><g id="g36" transform="translate(475.9123,370.2357)"><path d="m 0,0 -45.983,-79.65 -43.161,24.918 45.984,79.65 z" style="fill:#ffffff;fill-opacity:1;fill-rule:nonzero;stroke:none" id="path38"/></g><g id="g40" transform="translate(432.7541,395.1532)"><path d="m 0,0 -45.982,-79.647 -43.161,24.915 45.983,79.65 z" style="fill:#000091;fill-opacity:1;fill-rule:nonzero;stroke:none" id="path42"/></g><g id="g44" transform="translate(389.5939,420.0702)"><path d="m 0,0 -45.983,-79.647 129.477,-74.755 45.984,79.651 z m 1.866,-6.962 120.65,-69.655 -40.887,-70.823 -120.65,69.656 z" style="fill:#000091;fill-opacity:1;fill-rule:nonzero;stroke:none" id="path46"/></g><g id="g48" transform="translate(304.736,264.6049)"><path d="m 0,0 -4.905,2.832 91.429,158.352 4.904,-2.829 z" style="fill:#000091;fill-opacity:1;fill-rule:nonzero;stroke:none" id="path50"/></g><g id="g52" transform="translate(334.0172,340.7738)"><path d="M 0,0 -129.478,-74.755 -175.464,4.896 -45.983,79.647 Z" style="fill:#000091;fill-opacity:1;fill-rule:nonzero;stroke:none" id="path54"/></g><g id="g56" transform="translate(260.0661,312.0267)"><path d="M 0,0 1.623,3.495 5.315,3.066 2.513,5.533 4.194,8.916 0.951,7.038 -1.826,9.466 -1.115,5.85 -4.397,3.956 -0.735,3.659 Z" style="fill:#ffe910;fill-opacity:1;fill-rule:nonzero;stroke:none" id="path58"/></g><g id="g60" transform="translate(230.9958,364.0009)"><path d="M 0,0 1.604,3.437 5.312,3.066 2.546,5.552 4.193,8.916 0.948,7.041 -1.841,9.408 -1.115,5.847 -4.361,3.975 -0.726,3.716 Z" style="fill:#ffe910;fill-opacity:1;fill-rule:nonzero;stroke:none" id="path62"/></g><g id="g64" transform="translate(218.4919,322.6986)"><path d="M 0,0 1.608,3.437 5.385,3.111 2.623,5.594 4.355,8.906 1.067,7.01 -1.784,9.396 -1.073,5.771 -4.354,3.877 -0.756,3.691 Z" style="fill:#ffe910;fill-opacity:1;fill-rule:nonzero;stroke:none" id="path66"/></g><g id="g68" transform="translate(272.3805,353.9095)"><path d="M 0,0 1.607,3.437 5.348,3.091 2.601,5.634 4.275,8.864 1.027,6.986 -1.784,9.393 -1.106,5.752 -4.355,3.877 -0.757,3.692 Z" style="fill:#ffe910;fill-opacity:1;fill-rule:nonzero;stroke:none" id="path70"/></g><g id="g72" transform="translate(246.7243,368.3617)"><path d="M 0,0 1.647,3.455 5.384,3.105 2.619,5.591 4.291,8.922 1.042,7.044 -1.79,9.49 -1.094,5.81 -4.379,3.914 -0.736,3.659 Z" style="fill:#ffe910;fill-opacity:1;fill-rule:nonzero;stroke:none" id="path74"/></g><g id="g76" transform="translate(261.7936,364.3212)"><path d="M 0,0 1.647,3.461 5.385,3.112 2.601,5.634 4.272,8.958 1.021,7.086 -1.79,9.49 -1.152,5.826 -4.397,3.957 -0.72,3.716 Z" style="fill:#ffe910;fill-opacity:1;fill-rule:nonzero;stroke:none" id="path78"/></g><g id="g80" transform="translate(275.4328,338.9974)"><path d="M 0,0 1.628,3.397 5.406,3.072 2.637,5.558 4.33,8.94 1.045,7.044 -1.772,9.457 -1.097,5.81 -4.376,3.914 -0.714,3.622 Z" style="fill:#ffe910;fill-opacity:1;fill-rule:nonzero;stroke:none" id="path82"/></g><g id="g84" transform="translate(271.2008,323.6683)"><path d="M 0,0 1.623,3.491 5.385,3.105 2.601,5.634 4.306,8.977 1.061,7.104 -1.79,9.49 -1.115,5.847 -4.361,3.975 -0.72,3.717 Z" style="fill:#ffe910;fill-opacity:1;fill-rule:nonzero;stroke:none" id="path86"/></g><g id="g88" transform="translate(245.0846,308.5873)"><path d="M 0,0 1.623,3.494 5.418,3.13 2.601,5.634 4.306,8.979 1.021,7.086 -1.79,9.493 -1.115,5.853 -4.403,3.956 -0.757,3.695 Z" style="fill:#ffe910;fill-opacity:1;fill-rule:nonzero;stroke:none" id="path90"/></g><g id="g92" transform="translate(230.362,312.8754)"><path d="M 0,0 1.629,3.403 5.349,3.09 2.604,5.539 4.291,8.925 1.009,7.028 -1.784,9.396 -1.13,5.792 -4.379,3.914 -0.72,3.622 Z" style="fill:#ffe910;fill-opacity:1;fill-rule:nonzero;stroke:none" id="path94"/></g><g id="g96" transform="translate(214.5407,337.0404)"><path d="M 0,0 1.604,3.437 5.388,3.108 2.601,5.634 4.306,8.979 1.024,7.083 -1.826,9.469 -1.152,5.825 -4.394,3.954 -0.753,3.695 Z" style="fill:#ffe910;fill-opacity:1;fill-rule:nonzero;stroke:none" id="path98"/></g><g id="g100" transform="translate(218.3258,351.8666)"><path d="M 0,0 1.607,3.437 5.348,3.09 2.586,5.576 4.251,8.897 1.012,7.029 -1.866,9.451 -1.13,5.792 -4.413,3.896 -0.769,3.634 Z" style="fill:#ffe910;fill-opacity:1;fill-rule:nonzero;stroke:none" id="path102"/></g><g id="g104" transform="translate(372.9513,264.6049)"><path d="m 0,0 -91.425,158.355 4.904,2.829 L 4.905,2.832 Z" style="fill:#000091;fill-opacity:1;fill-rule:nonzero;stroke:none" id="path106"/></g><g id="g108" transform="translate(131.8327,438.432)"><path d="M 0,0 19.63,34.342 29.562,28.665 16.765,6.272 30.734,-1.714 41.607,17.309 51.541,11.633 40.668,-7.39 65.75,-21.728 58.917,-33.682 Z" style="fill:#169b62;fill-opacity:1;fill-rule:nonzero;stroke:none" id="path110"/></g><g id="g112" transform="translate(192.6906,500.391)"><path d="m 0,0 11.228,-13.477 5.956,4.965 c 4.467,3.723 4.905,8.497 1.368,12.742 C 15.264,8.177 10.426,8.688 5.956,4.965 Z M -17.896,-0.018 -1.96,13.255 c 11.468,9.554 23.444,9.563 31.509,-0.115 5.272,-6.33 6.126,-13.568 2.814,-20.491 l 35.539,-9.496 -12.438,-10.362 -31.479,9.472 -5.436,-4.525 17.555,-21.077 -10.575,-8.81 z" style="fill:#169b62;fill-opacity:1;fill-rule:nonzero;stroke:none" id="path114"/></g><g id="g116" transform="translate(299.8542,525.66)"><path d="m 0,0 -15.437,22.335 -2.577,-27.027 z m -27.434,32.63 17.449,4.547 41.968,-59.199 -14.167,-3.689 -10.733,15.434 -26.27,-6.841 -1.838,-18.713 -14.167,-3.689 z" style="fill:#169b62;fill-opacity:1;fill-rule:nonzero;stroke:none" id="path118"/></g><g id="g120" transform="translate(355.1906,569.4066)"><path d="M 0,0 17.275,-3.592 36.998,-57.804 46.986,-9.77 60.467,-12.578 46.649,-79.021 29.37,-75.426 9.651,-21.22 -0.34,-69.251 l -13.48,2.804 z" style="fill:#169b62;fill-opacity:1;fill-rule:nonzero;stroke:none" id="path122"/></g><g id="g124" transform="translate(468.505,467.7494)"><path d="m 0,0 3.376,-13.265 c -10.089,-2.786 -21.366,-0.817 -31.038,6.795 -16.829,13.246 -18.136,35.241 -6.148,50.471 11.988,15.231 33.676,19.124 50.505,5.877 9.669,-7.611 14.173,-18.184 13.951,-28.494 l -13.745,0.088 c 0.374,6.737 -2.087,13.483 -8.18,18.281 -10.049,7.911 -23.38,5.704 -31.415,-4.5 C -30.726,25.045 -29.741,11.568 -19.688,3.658 -13.599,-1.14 -6.464,-1.945 0,0" style="fill:#169b62;fill-opacity:1;fill-rule:nonzero;stroke:none" id="path126"/></g><g id="g128" transform="translate(529.4933,467.3734)"><path d="m 0,0 19.139,-34.606 -10.007,-5.534 -12.481,22.557 -14.079,-7.782 10.603,-19.169 -10.01,-5.536 -10.6,19.169 -15.266,-8.442 12.477,-22.563 -10.009,-5.534 -19.139,34.603 z" style="fill:#169b62;fill-opacity:1;fill-rule:nonzero;stroke:none" id="path130"/></g><g id="g132" transform="translate(177.5602,269.934)"><path d="m 0,0 -15.705,-7.812 3.453,-6.941 c 2.588,-5.209 7.138,-6.731 12.085,-4.272 4.598,2.285 6.211,6.882 3.619,12.088 z m 4.111,17.419 9.239,-18.57 c 6.645,-13.362 3.895,-25.019 -7.388,-30.631 -7.378,-3.668 -14.613,-2.832 -20.585,1.993 l -17.449,-32.388 -7.208,14.495 16.486,28.444 -3.151,6.333 -24.56,-12.219 -6.129,12.325 z" style="fill:#169b62;fill-opacity:1;fill-rule:nonzero;stroke:none" id="path134"/></g><g id="g136" transform="translate(212.0109,233.6888)"><path d="M 0,0 28.452,-27.462 20.512,-35.694 1.96,-17.79 -9.214,-29.364 6.545,-44.58 l -7.94,-8.226 -15.762,15.209 -12.116,-12.552 18.552,-17.906 -7.946,-8.228 -28.453,27.465 z" style="fill:#169b62;fill-opacity:1;fill-rule:nonzero;stroke:none" id="path138"/></g><g id="g140" transform="translate(252.3761,198.8724)"><path d="m 0,0 12.374,-6.02 -24.216,-49.76 23.176,-11.281 -5.466,-11.24 -35.557,17.303 z" style="fill:#169b62;fill-opacity:1;fill-rule:nonzero;stroke:none" id="path142"/></g><g id="g144" transform="translate(331.6457,136.5589)"><path d="M 0,0 -7.171,26.174 -18.549,1.535 Z m -15.084,39.86 17.965,-1.483 20.011,-69.74 -14.59,1.2 -5.017,18.12 -27.048,2.237 -7.928,-17.045 -14.587,1.206 z" style="fill:#169b62;fill-opacity:1;fill-rule:nonzero;stroke:none" id="path146"/></g><g id="g148" transform="translate(365.8546,174.4193)"><path d="M 0,0 16.564,6.072 61.925,-29.527 45.044,16.517 57.965,21.254 81.321,-42.442 64.76,-48.518 19.394,-12.915 36.277,-58.959 23.356,-63.696 Z" style="fill:#169b62;fill-opacity:1;fill-rule:nonzero;stroke:none" id="path150"/></g><g id="g152" transform="translate(503.5294,204.6625)"><path d="m 0,0 13.571,1.753 c 1.557,-10.35 -1.756,-21.311 -10.477,-29.996 -15.179,-15.114 -37.174,-13.766 -50.852,-0.03 -13.678,13.735 -14.935,35.739 0.243,50.854 8.722,8.682 19.762,11.885 29.969,10.42 l -1.741,-13.635 c -6.643,1.179 -13.638,-0.45 -19.132,-5.92 -9.065,-9.031 -8.478,-22.529 0.687,-31.733 9.165,-9.202 22.666,-9.85 31.731,-0.821 C -0.507,-13.635 1.149,-6.649 0,0" style="fill:#169b62;fill-opacity:1;fill-rule:nonzero;stroke:none" id="path154"/></g><g id="g156" transform="translate(480.3986,254.7611)"><path d="M 0,0 16.249,36.056 26.675,31.36 16.082,7.853 30.753,1.24 39.754,21.211 50.181,16.519 41.183,-3.458 57.087,-10.624 67.678,12.882 78.106,8.181 61.858,-27.872 Z" style="fill:#169b62;fill-opacity:1;fill-rule:nonzero;stroke:none" id="path158"/></g></g></g></g></svg>