<svg width="24" height="24" viewBox="0 0 24 24" fill="none" xmlns="http://www.w3.org/2000/svg">
<path fill-rule="evenodd" clip-rule="evenodd" d="M17.2507 5.00691C17.6123 5.00445 17.9707 5.07365 18.3054 5.21051C18.6401 5.34736 18.9444 5.54916 19.2006 5.80427L19.2021 5.80569C19.4573 6.06193 19.6592 6.36624 19.7962 6.70101C19.9331 7.03578 20.0023 7.39439 19.9999 7.75609C19.9974 8.1178 19.9233 8.47543 19.7819 8.80831C19.6408 9.14033 19.4354 9.44116 19.1777 9.6935L10.1389 18.7323C10.0801 18.7911 10.0067 18.8332 9.92632 18.8543L5.58758 19.9915C5.42646 20.0338 5.25503 19.9873 5.13727 19.8695C5.01951 19.7516 4.97309 19.5802 5.01534 19.419L6.15284 15.0803C6.17394 14.9998 6.21604 14.9264 6.27485 14.8676L15.3137 5.82872C15.5661 5.57108 15.8669 5.36584 16.1989 5.22481C16.5317 5.08342 16.8892 5.00936 17.2507 5.00691ZM17.9507 6.07854C17.7306 5.98854 17.4948 5.94304 17.2571 5.94465C17.0193 5.94627 16.7842 5.99497 16.5654 6.08795C16.3465 6.18092 16.1483 6.31634 15.982 6.48637L15.9783 6.49014L7.02747 15.441L6.12557 18.8811L9.56589 17.9794L18.5206 9.02461C18.6906 8.85846 18.8261 8.66026 18.9191 8.44143C19.0121 8.2226 19.0608 7.9875 19.0624 7.74973C19.064 7.51195 19.0185 7.27621 18.9285 7.05614C18.8386 6.83641 18.7061 6.63666 18.5387 6.46838C18.3703 6.30092 18.1705 6.16843 17.9507 6.07854Z" fill="#491273"/>
<path fill-rule="evenodd" clip-rule="evenodd" d="M15.057 6.08585C15.24 5.90271 15.5368 5.90265 15.7199 6.08572L18.9211 9.28663C19.1042 9.46971 19.1043 9.76659 18.9213 9.94974C18.7382 10.1329 18.4414 10.1329 18.2583 9.94986L15.0571 6.74895C14.874 6.56588 14.8739 6.269 15.057 6.08585Z" fill="#491273"/>
<path fill-rule="evenodd" clip-rule="evenodd" d="M13.7513 7.39123C13.9343 7.20809 14.2311 7.20803 14.4142 7.3911L17.6155 10.592C17.7986 10.7751 17.7986 11.072 17.6156 11.2551C17.4326 11.4383 17.1358 11.4383 16.9527 11.2552L13.7514 8.05433C13.5683 7.87126 13.5683 7.57438 13.7513 7.39123Z" fill="#491273"/>
<path fill-rule="evenodd" clip-rule="evenodd" d="M6.17537 15.0152C6.27698 14.777 6.55238 14.6663 6.79049 14.768L9.03424 15.7257C9.14517 15.7731 9.23359 15.8614 9.2811 15.9723L10.2411 18.2129C10.3431 18.4509 10.2329 18.7266 9.9949 18.8286C9.75695 18.9306 9.48138 18.8204 9.37941 18.5823L8.49343 16.5145L6.42252 15.6305C6.18441 15.5288 6.07376 15.2534 6.17537 15.0152Z" fill="#491273"/>
<path fill-rule="evenodd" clip-rule="evenodd" d="M16.0144 8.99167C16.1975 9.1748 16.1974 9.47168 16.0143 9.65477L9.1812 16.488C8.99812 16.671 8.70132 16.671 8.51829 16.4879C8.33526 16.3047 8.3353 16.0079 8.51838 15.8248L15.3515 8.99158C15.5346 8.80849 15.8314 8.80853 16.0144 8.99167Z" fill="#491273"/>
</svg> 