<?xml version="1.0" encoding="UTF-8" standalone="no"?>
<!-- Generator: Adobe Illustrator 25.2.3, SVG Export Plug-In . SVG Version: 6.00 Build 0)  -->

<svg
   version="1.1"
   id="Layer_2"
   x="0px"
   y="0px"
   viewBox="0 0 128 128"
   style="enable-background:new 0 0 128 128;"
   xml:space="preserve"
   sodipodi:docname="pompe-essence.svg"
   inkscape:version="1.1.1 (1:1.1+202109281954+c3084ef5ed)"
   xmlns:inkscape="http://www.inkscape.org/namespaces/inkscape"
   xmlns:sodipodi="http://sodipodi.sourceforge.net/DTD/sodipodi-0.dtd"
   xmlns="http://www.w3.org/2000/svg"
   xmlns:svg="http://www.w3.org/2000/svg"><defs
   id="defs871" /><sodipodi:namedview
   id="namedview869"
   pagecolor="#ffffff"
   bordercolor="#666666"
   borderopacity="1.0"
   inkscape:pageshadow="2"
   inkscape:pageopacity="0.0"
   inkscape:pagecheckerboard="0"
   showgrid="false"
   inkscape:zoom="3.0574925"
   inkscape:cx="43.663231"
   inkscape:cy="91.905377"
   inkscape:window-width="1920"
   inkscape:window-height="1056"
   inkscape:window-x="0"
   inkscape:window-y="0"
   inkscape:window-maximized="1"
   inkscape:current-layer="g850" />
<g
   id="g866">
	
	<g
   id="g850"
   transform="translate(-171.78357,-23.784073)">
		<g
   id="g828">
			<path
   style="fill:#82aec0"
   d="m 80.82,56.1 c -1.87,0 -1.14,-1.61 -1.14,-3.6 V 25.92 c 0,-1.99 -0.73,-3.6 1.14,-3.6 1.87,0 5.12,1.11 5.12,3.6 0,2.49 0,24.59 0,26.58 0,1.99 -3.25,3.6 -5.12,3.6 z"
   id="path826" />
		</g>
		<path
   style="fill:#f44336"
   d="M 82.1,113.93 V 27.96 C 82.1,14.73 71.37,4 58.14,4 H 34.96 C 21.72,4 11,14.73 11,27.96 v 85.97 c -3.3,0.97 -5.71,4.02 -5.71,7.63 v 0.3 c 0,1.18 0.96,2.14 2.14,2.14 h 7.02 64.2 7.02 c 1.18,0 2.14,-0.96 2.14,-2.14 v -0.3 c 0,-3.62 -2.41,-6.66 -5.71,-7.63 z"
   id="path830" />
		<g
   id="g834">
			<path
   style="fill:#ffffff"
   d="M 65.68,56.57 H 26.93 c -1.77,0 -3.21,-1.44 -3.21,-3.21 V 22.42 c 0,-1.77 1.44,-3.21 3.21,-3.21 h 38.75 c 1.77,0 3.21,1.44 3.21,3.21 v 30.93 c 0,1.78 -1.43,3.22 -3.21,3.22 z"
   id="path832" />
		</g>
		<rect
   x="32.220001"
   y="29.6"
   style="fill:#9e9e9e"
   width="29.309999"
   height="7.6399999"
   id="rect836" />
		<rect
   x="32.220001"
   y="41.360001"
   style="fill:#9e9e9e"
   width="29.309999"
   height="7.6399999"
   id="rect838" />
		<path
   style="fill:#82aec0"
   d="m 24.13,47 c -0.05,0.52 -0.81,0.52 -0.86,0.01 -0.74,-7.27 -1.16,-14.55 -1.48,-21.82 -0.47,-4.02 2.63,-7.49 6.78,-7.21 11.79,-0.35 23.64,-0.35 35.43,-0.01 4.14,-0.28 7.27,3.19 6.79,7.21 -0.32,7.28 -0.75,14.57 -1.49,21.85 -0.05,0.52 -0.81,0.52 -0.86,0 C 67.67,39.5 67.25,31.96 66.91,24.44 66.9,24.28 66.86,24.13 66.82,23.99 66.57,23.09 65.7,22.34 64.8,22.43 c -0.48,0.02 -36.58,0.01 -37.04,-0.01 -0.9,-0.09 -1.77,0.66 -2.02,1.57 -0.04,0.15 -0.07,0.3 -0.09,0.45 C 25.31,31.95 24.9,39.48 24.13,47 Z"
   id="path840" />
		<ellipse
   style="fill:#f5f5f5"
   cx="46.310001"
   cy="84.080002"
   rx="16.790001"
   ry="17.889999"
   id="ellipse842" />
		<path
   style="fill:#212121"
   d="m 38.87,86.6 c 0,-4.37 7.43,-12.95 7.43,-12.95 0,0 7.43,8.58 7.43,12.95 0,4.37 -3.33,7.92 -7.43,7.92 -4.1,0 -7.43,-3.55 -7.43,-7.92 z"
   id="path844" />
		<rect
   x="11"
   y="110.03"
   style="fill:#c62828"
   width="71.099998"
   height="3.8900001"
   id="rect846" />
		<path
   style="fill:none;stroke:#ff7555;stroke-width:5;stroke-linecap:round;stroke-miterlimit:10"
   d="m 17.45,22.04 c 0.88,-4.96 5.2,-11.1 14.13,-11.1"
   id="path848" />
	<path
   style="fill:#f2ac58;stroke-width:0.794761;fill-opacity:1"
   d="m 288.24234,60.808009 c 0,-3.472968 -5.90528,-10.291747 -5.90528,-10.291747 0,0 -5.90528,6.818779 -5.90528,10.291747 0,3.472968 2.64665,6.294258 5.90528,6.294258 3.25863,0 5.90528,-2.82129 5.90528,-6.294258 z"
   id="path844-3" /></g>
	
<g
   id="g1146"
   transform="matrix(1.0794966,0,0,1.0794966,-64.146903,116.14005)"><path
     style="fill:none;stroke:#000000;stroke-width:8.12146;stroke-linecap:round;stroke-miterlimit:10;stroke-opacity:1"
     d="M 88.636776,0.56461373 C 100.41086,-3.8900038 104.39268,-25.986722 107.71757,-39.405243 l 1.54046,-6.316067"
     id="path824"
     sodipodi:nodetypes="ccc" /><g
     id="g864"
     transform="matrix(1.2092331,0.60820902,-0.60820902,1.2092331,16.913145,-175.56166)"><rect
       x="101.69"
       y="55.91"
       transform="matrix(-0.9692,0.2462,-0.2462,-0.9692,220.382,88.132)"
       style="fill:#9e9e9e"
       width="5.98"
       height="3.8800001"
       id="rect852" /><g
       id="g856"><path
         style="fill:#9e9e9e"
         d="m 104.77,29.85 6.73,-12.2 c 0.5,-0.9 1.16,-1.7 1.95,-2.35 2.46,-2.02 7.97,-6.58 9.13,-7.84 1.51,-1.64 -1.29,-5.1 -3.28,-3.73 -1.56,1.08 -7.3,6.12 -9.69,8.23 -0.7,0.61 -1.28,1.34 -1.73,2.16 l -7.07,12.82 z"
         id="path854" /></g><path
       style="fill:#000000;fill-opacity:1"
       d="m 100.66,37.73 9.42,-1.95 3.32,11.82 c 0.53,2.08 -0.43,2.68 -2.27,3.15 l -6.66,1.85 m -5.22,-15.27 8.05,18.35 7.62,-2.13 c 3.19,-0.93 3.1,-3.53 2.61,-5.46 l -3.93,-14.4 z"
       id="path858" /><path
       style="fill:#f44336"
       d="m 103.82,21.12 4.87,2.74 c 0.65,0.36 0.89,1.17 0.56,1.83 l -0.97,1.94 2.25,1.7 c 1.57,1.18 2.68,2.86 3.16,4.77 l 0.27,1.05 -6.96,1.79 c -1.46,0.39 -2.33,1.88 -1.95,3.34 l 3.21,12.63 c 0.32,1.36 0.4,2.48 -0.97,2.78 l -5.55,1.38 c -1.32,0.29 -2.63,-0.52 -2.96,-1.83 L 94.9,39.95 c -1.74,-6.85 0.94,-9.17 1.5,-10.3 0.56,-1.13 3.5,-4.21 3.5,-4.21 l 2.01,-3.76 c 0.37,-0.69 1.23,-0.94 1.91,-0.56 z"
       id="path860" /><line
       style="fill:none;stroke:#ff7555;stroke-width:4;stroke-linecap:round;stroke-miterlimit:10"
       x1="106.8"
       y1="29.34"
       x2="101.97"
       y2="26.92"
       id="line862" /></g></g></g>
</svg>
