<svg width="204" height="205" viewBox="0 0 204 205" fill="none" xmlns="http://www.w3.org/2000/svg">
<g opacity="0.38">
<path d="M197.49 68.0076C195.486 62.4968 193.012 57.1322 190.009 52.0964C186.847 46.7805 183.149 41.7812 179.183 37.0377C175.388 32.4951 171.318 28.1047 166.834 24.232C158.579 17.0954 148.686 12.1509 138.323 8.86878C128.039 5.61712 117.25 4.10698 106.479 3.93648C96.7621 3.78425 86.9781 4.79507 77.5717 7.29775C68.6954 9.66038 59.8618 12.5041 51.6556 16.6874C42.0665 21.577 33.5618 28.2204 26.5619 36.4105C24.6246 38.6818 22.803 41.0566 21.0972 43.5044C20.6769 44.1073 20.2748 44.7162 19.8849 45.3251C18.8553 46.8718 17.8927 48.4367 16.9911 49.9773C11.9407 58.5875 8.27318 68.0867 5.70837 77.7199C2.68056 89.0947 2.03479 101.218 2.8024 112.928C3.66749 126.075 6.64657 139.234 12.3245 151.162C17.1495 161.313 23.9545 170.246 32.2581 177.797C41.0369 185.78 50.9855 192.417 61.9879 196.917C68.1106 199.42 74.4891 201.362 80.9895 202.617C87.6969 203.914 94.4471 204.285 101.27 204.145C114.734 203.877 128.289 201.965 140.748 196.637C146.505 194.177 152.061 191.084 157.428 187.862C161.467 185.433 165.397 182.796 169.009 179.764C175.686 174.161 180.81 167.311 185.428 159.967C188.815 154.585 191.983 149.074 194.584 143.265C197.234 137.364 199.354 131.202 200.877 124.918C203.442 114.329 204.186 103.283 203.095 92.4437C202.254 84.1197 200.347 75.8749 197.49 68.0137V68.0076Z" fill="#518FFF"/>
<path d="M98.7053 204.255C92.2233 204.255 86.3991 203.743 80.9832 202.696C74.6168 201.466 68.2201 199.548 61.9695 196.99C51.4666 192.697 41.4571 186.261 32.2153 177.852C23.7106 170.118 16.997 161.149 12.2573 151.187C6.85354 139.83 3.64906 126.958 2.72914 112.922C1.87623 99.9761 2.85707 88.1204 5.63511 77.6895C8.39487 67.3377 12.1903 57.9968 16.9239 49.9286C17.9352 48.2053 18.8856 46.6769 19.8238 45.2703C20.2563 44.5883 20.6584 43.9916 21.0361 43.4435C22.7724 40.9469 24.6122 38.5539 26.5069 36.3435C33.4703 28.1899 41.9201 21.5527 51.625 16.596C58.698 12.9851 66.697 10.0927 77.5533 7.2003C86.5332 4.81331 96.2685 3.68071 106.485 3.83903C117.841 4.01562 128.563 5.67799 138.353 8.77133C149.605 12.3335 159.207 17.5033 166.895 24.1528C170.892 27.6115 174.937 31.8009 179.256 36.9706C183.606 42.177 187.146 47.1032 190.088 52.0415C192.976 56.8947 195.498 62.2532 197.575 67.971C200.463 75.9114 202.352 84.138 203.186 92.4194C204.289 103.343 203.54 114.28 200.969 124.924C199.464 131.147 197.344 137.322 194.669 143.289C192.391 148.373 189.479 153.689 185.507 160.004C179.969 168.815 174.9 174.923 169.07 179.818C165.847 182.528 162.058 185.177 157.483 187.929C150.921 191.869 145.78 194.579 140.796 196.71C129.696 201.46 116.775 203.92 101.288 204.224C100.417 204.242 99.5643 204.248 98.7175 204.248L98.7053 204.255ZM104.615 4.00344C95.0988 4.00344 86.0214 5.13604 77.6081 7.37689C66.7579 10.2632 58.7711 13.1556 51.7103 16.7604C42.0237 21.6988 33.5921 28.33 26.647 36.4652C24.7585 38.6756 22.9247 41.0565 21.1884 43.5531C20.8107 44.1012 20.4147 44.6918 19.9761 45.3738C19.0379 46.7804 18.0936 48.2967 17.0823 50.0199C12.3548 58.0821 8.56545 67.4047 5.81178 77.7382C3.03984 88.1508 2.059 99.9883 2.9119 112.916C3.83182 126.927 7.03022 139.782 12.4279 151.12C17.1554 161.057 23.8568 170.009 32.3432 177.73C41.5729 186.121 51.5641 192.545 62.0487 196.832C68.2932 199.383 74.6778 201.301 81.0319 202.525C87.1485 203.707 93.7768 204.206 101.295 204.054C116.756 203.743 129.66 201.289 140.735 196.552C145.713 194.42 150.854 191.717 157.403 187.783C161.973 185.037 165.756 182.394 168.973 179.691C174.784 174.807 179.841 168.712 185.373 159.919C189.339 153.61 192.251 148.307 194.529 143.222C197.198 137.267 199.318 131.098 200.816 124.887C203.387 114.262 204.131 103.35 203.028 92.4376C202.193 84.1684 200.311 75.954 197.429 68.0258C195.358 62.3202 192.842 56.9738 189.954 52.1268C187.018 47.2006 183.478 42.2744 179.14 37.0803C174.827 31.9166 170.794 27.7333 166.804 24.2806C159.134 17.6495 149.557 12.4858 138.323 8.93574C128.545 5.8424 117.841 4.18612 106.503 4.00953C105.876 3.99735 105.254 3.99735 104.627 3.99735L104.615 4.00344Z" fill="#518FFF"/>
</g>
<path d="M195.37 64.1289C193.366 58.6181 190.892 53.2535 187.889 48.2177C184.727 42.9018 181.029 37.9025 177.063 33.159C173.267 28.6164 169.198 24.2261 164.714 20.3533C156.459 13.2167 146.565 8.27222 136.203 4.99012C125.919 1.73237 115.136 0.222232 104.365 0.057822C94.6478 -0.0944093 84.8638 0.916406 75.4575 3.41909C66.5812 5.78172 57.7475 8.6254 49.5413 12.8087C39.9522 17.6984 31.4476 24.3418 24.4476 32.5318C22.5103 34.8031 20.6888 37.1779 18.983 39.6258C18.5626 40.2286 18.1605 40.8375 17.7706 41.4465C16.741 42.9931 15.7785 44.5581 14.8768 46.0986C9.82641 54.7088 6.15892 64.2081 3.59411 73.8413C0.5663 85.216 -0.0794706 97.3397 0.688144 109.049C1.55323 122.196 4.53231 135.355 10.2102 147.284C15.0352 157.435 21.8402 166.367 30.1438 173.918C38.9227 181.901 48.8712 188.538 59.8737 193.038C65.9963 195.541 72.3748 197.484 78.8752 198.738C85.5827 200.035 92.3328 200.406 99.1561 200.266C112.62 199.998 126.175 198.086 138.633 192.758C144.391 190.298 149.947 187.205 155.314 183.984C159.353 181.554 163.282 178.917 166.895 175.885C173.572 170.283 178.696 163.432 183.313 156.089C186.701 150.706 189.869 145.195 192.47 139.386C195.12 133.485 197.24 127.323 198.763 121.039C201.328 110.45 202.071 99.404 200.981 88.5651C200.14 80.2411 198.233 71.9962 195.376 64.135L195.37 64.1289Z" fill="#518FFF"/>
<mask id="mask0_1712_3844" style="mask-type:luminance" maskUnits="userSpaceOnUse" x="0" y="0" width="202" height="201">
<path d="M195.37 64.1042C193.366 58.5934 190.892 53.2288 187.889 48.1869C184.727 42.871 181.029 37.8656 177.063 33.1221C173.267 28.5734 169.198 24.1892 164.714 20.3103C156.459 13.1737 146.565 8.22316 136.203 4.94715C125.919 1.69549 115.136 0.185352 104.365 0.0148533C94.6478 -0.137378 84.8638 0.873438 75.4575 3.37612C66.5812 5.73875 57.7475 8.58243 49.5413 12.7657C39.9522 17.6615 31.4476 24.2988 24.4476 32.4949C22.5103 34.7662 20.6888 37.141 18.983 39.5889C18.5626 40.1917 18.1605 40.8007 17.7706 41.4096C16.741 42.9563 15.7785 44.5212 14.8768 46.0618C9.82641 54.672 6.15892 64.1773 3.59411 73.8105C0.5663 85.1852 -0.0794706 97.315 0.688144 109.025C1.55323 122.177 4.53231 135.336 10.2102 147.265C15.0352 157.416 21.8402 166.349 30.1438 173.906C38.9227 181.889 48.8712 188.532 59.8737 193.032C65.9963 195.535 72.3748 197.477 78.8752 198.731C85.5827 200.028 92.3328 200.4 99.1561 200.266C112.62 199.998 126.175 198.086 138.633 192.752C144.391 190.286 149.947 187.198 155.314 183.977C159.353 181.548 163.282 178.911 166.895 175.872C173.572 170.264 178.696 163.414 183.313 156.076C186.701 150.687 189.869 145.177 192.47 139.367C195.12 133.461 197.24 127.305 198.763 121.014C201.328 110.419 202.071 99.3793 200.981 88.5343C200.14 80.2103 198.233 71.9654 195.376 64.0981L195.37 64.1042Z" fill="white"/>
</mask>
<g mask="url(#mask0_1712_3844)">
<path d="M7.49214 38.1097C17.0447 31.8256 26.6033 25.5658 36.1863 19.3183C40.7737 16.3284 45.7937 13.5822 50.1191 10.2818C53.214 7.91918 56.0529 5.66007 60.5489 7.0606C62.7117 7.7365 64.5454 9.11876 66.3243 10.4767C68.8526 12.413 71.3869 14.3494 73.9152 16.2858C76.346 18.143 78.795 20.0185 81.5365 21.4495C89.4442 25.5841 97.9245 28.2695 101.147 37.6713C101.555 38.8708 101.842 40.1191 102.39 41.2639C103.279 43.1151 104.9 44.5765 106.783 45.3681C107.91 45.843 111.784 45.5568 112.241 46.5737C112.704 47.5967 111.059 48.3944 110.675 49.1799C109.938 50.6718 109.987 51.7374 110.225 53.3693C110.895 57.9972 115.171 67.4538 107.8 68.836C100.849 70.1452 96.042 66.9666 89.8584 64.671C85.7157 63.1365 81.2745 61.9369 76.8151 62.4484C72.8003 62.9051 70.1502 65.3165 66.8604 67.1311C63.1929 69.1527 59.3671 70.6811 55.2122 71.7467C49.187 73.2873 43.7101 73.8901 42.0409 80.4361C41.3037 83.3346 41.6449 86.4157 42.3089 89.3812C43.3385 93.9298 46.4334 95.8967 49.7353 99.1849C50.4907 99.9399 51.301 100.725 52.361 101.012C55.0355 101.742 57.0155 99.057 59.1965 97.5712C62.669 95.1964 67.8413 95.848 71.6489 98.0462C75.4017 100.214 78.3869 103.356 82.1579 105.579C87.1718 108.532 92.6182 111.065 97.297 114.542C102.89 118.701 107.306 126.038 104.662 132.487C102.561 137.614 96.9497 140.153 92.5512 143.533C81.8594 151.747 77.8142 165.753 74.3965 178.79C72.8734 184.593 71.3504 190.39 69.8273 196.193C69.1024 198.957 67.8778 202.215 65.0693 202.745C61.3592 203.451 59.0381 198.927 58.0268 195.292C55.5412 186.316 54.0608 177.73 52.4281 168.712C50.4359 157.678 46.0069 148.849 49.2114 137.371C49.8572 135.331 50.7527 133.297 50.6309 131.141C50.4237 127.518 47.4386 124.504 44.5265 121.977C41.6144 119.45 38.416 116.783 37.5205 113.221C36.631 109.664 39.6406 105.298 43.4786 106.181C35.1567 98.4724 26.8348 90.7634 18.5068 83.0544C16.4172 81.1181 14.2971 79.1452 12.8594 76.7582C8.86897 70.1209 10.788 61.3828 5.85943 55.2875C4.06224 53.0588 1.39387 51.2625 0.614067 48.6076C-0.659198 44.2781 3.63579 40.6306 7.47386 38.1097H7.49214Z" fill="#21AB8E"/>
<path d="M8.38232 39.6256C12.9697 36.928 17.5937 34.3035 22.108 31.4903C26.6284 28.6771 31.1305 25.8456 35.6265 22.9897C39.7753 20.3531 44.0581 17.9356 48.1582 15.232C49.9858 14.0263 51.6977 12.6684 53.4888 11.4141C54.2564 10.8782 55.0606 10.3667 55.9135 9.98308C55.4566 10.1901 55.883 9.99526 55.9744 9.9709C56.2425 9.89174 56.4984 9.79431 56.7664 9.73342C56.9492 9.69079 57.1319 9.64817 57.3147 9.61772C56.7177 9.72124 57.6802 9.61772 57.8204 9.61772C58.0701 9.61772 58.326 9.62381 58.5819 9.65426C58.1128 9.60555 58.8012 9.70297 58.9109 9.72733C59.4104 9.83694 59.9161 9.97699 60.3974 10.1718C59.9953 10.0074 60.9822 10.4641 60.9091 10.4276C61.1101 10.5311 61.3051 10.6407 61.5 10.7503C62.0849 11.0852 62.6454 11.4628 63.1937 11.8586C65.1919 13.2835 67.1109 14.8301 69.0604 16.3281C72.9046 19.2692 76.6513 22.3503 80.9889 24.5547C84.2421 26.2109 87.6111 27.6784 90.7059 29.6331C91.437 30.0959 92.1498 30.5769 92.8382 31.1006C92.7468 31.0275 92.3996 30.7413 92.8382 31.1006C93.0332 31.265 93.2342 31.4294 93.4292 31.5938C93.752 31.8739 94.0688 32.1662 94.3795 32.4646C94.6902 32.763 94.9888 33.0796 95.2751 33.3962C95.4518 33.5911 95.6162 33.7921 95.7868 33.993C95.8599 34.0782 96.1341 34.4436 95.8051 33.9991C96.4021 34.7968 96.9382 35.6371 97.3952 36.52C97.4805 36.6844 97.5657 36.8549 97.651 37.0254C97.6693 37.0559 98.0531 37.9145 97.8155 37.3604C97.9922 37.7805 98.1445 38.2128 98.2907 38.6452C98.7233 39.9361 99.0766 41.2392 99.6432 42.4814C100.6 44.5944 102.33 46.3968 104.346 47.5355C106.058 48.5098 107.746 48.6072 109.659 48.796C109.811 48.8081 109.957 48.8264 110.11 48.8447C109.275 48.7655 109.969 48.8264 110.146 48.8629C110.499 48.936 111.231 49.3501 110.39 48.869C109.604 48.4245 109.104 47.1762 109.385 46.3664C109.445 46.1837 109.994 45.5443 109.567 45.9157C109.281 46.1654 109.007 46.4455 108.757 46.7256C105.985 49.8799 107.252 54.3189 108.148 57.9542C108.318 58.6362 108.483 59.3243 108.629 60.0124C108.702 60.3595 108.775 60.7126 108.836 61.0597C108.861 61.1998 108.885 61.3398 108.909 61.4799C108.934 61.6199 108.952 61.76 108.976 61.9C108.922 61.4738 108.909 61.3764 108.934 61.6077C108.964 62.2471 109.05 62.8743 109.037 63.5198C109.037 63.7085 109.007 63.9034 109.007 64.0922C109.013 64.4088 109.141 64.3053 109.05 63.8425C109.104 64.147 108.867 64.5976 108.806 64.8899C108.684 65.4257 108.915 64.6219 108.922 64.6463C108.94 64.7437 108.727 65.0177 108.684 65.103C108.684 65.103 108.532 65.3831 108.495 65.3892C108.678 65.3526 108.964 64.8777 108.526 65.2978C108.483 65.3405 108.306 65.5353 108.264 65.5353L108.593 65.2796C108.489 65.3526 108.385 65.4196 108.282 65.4805C108.172 65.5353 108.038 65.6023 107.941 65.6632C107.441 65.9859 108.465 65.5353 107.898 65.6632C107.478 65.7606 107.076 65.8763 106.649 65.9494C105.614 66.1321 107.106 65.9494 106.089 66.0164C105.869 66.0285 105.644 66.0529 105.425 66.059C104.889 66.0833 104.346 66.0833 103.81 66.059C103.548 66.0468 103.286 66.0285 103.024 66.0042C102.872 65.992 102.714 65.9737 102.561 65.9555C102.86 65.992 102.829 65.9859 102.458 65.9311C97.9556 65.0238 94.611 63.1605 90.5171 61.6504C85.7104 59.8784 80.4833 58.6666 75.3597 59.5739C70.9368 60.3595 67.4034 63.4771 63.4739 65.4318C59.5444 67.3864 55.615 68.446 51.3261 69.5116C47.9328 70.3519 44.2774 71.4845 41.8893 74.2003C38.5691 77.9817 38.1731 83.0724 38.892 87.8585C39.2331 90.1481 39.8119 92.4011 41.0486 94.3923C42.1025 96.0851 43.4916 97.5404 44.9354 98.8983C46.5255 100.39 48.0851 102.278 49.9919 103.356C52.2582 104.64 54.9266 104.415 57.1137 103.094C58.0397 102.534 58.8743 101.815 59.7028 101.121C59.8612 100.993 60.8604 100.189 60.3547 100.567C60.7629 100.262 61.1893 99.9822 61.6462 99.7447C61.7864 99.6717 62.359 99.4707 61.8107 99.6595C62.0361 99.5803 62.2616 99.5072 62.4931 99.4403C62.7246 99.3733 62.9622 99.3246 63.1937 99.2698C63.7846 99.1297 63.3703 99.2332 63.2241 99.2454C63.7115 99.1845 64.2111 99.1723 64.7045 99.1784C65.003 99.1784 65.3016 99.2089 65.6062 99.2271C66.2763 99.2637 65.2528 99.1297 65.9778 99.2759C66.983 99.4768 67.9699 99.7325 68.9142 100.122C68.7863 100.067 68.4512 99.903 69.0056 100.171C69.2798 100.305 69.5478 100.439 69.8159 100.585C70.3032 100.853 70.7723 101.145 71.2414 101.45C73.3981 102.856 74.8175 104.123 76.9254 105.743C80.6782 108.623 84.9367 110.681 89.0367 113.007C91.1263 114.195 93.1855 115.443 95.1411 116.849C95.3299 116.983 95.5188 117.123 95.7076 117.264C95.1837 116.874 95.9574 117.471 95.994 117.501C96.3778 117.824 96.7555 118.153 97.1149 118.494C97.8521 119.188 98.5283 119.937 99.1802 120.716C99.832 121.496 98.8695 120.229 99.4178 121.033C99.5335 121.197 99.6493 121.362 99.765 121.526C100.045 121.94 100.313 122.366 100.563 122.799C100.813 123.231 101.044 123.663 101.252 124.114C101.233 124.083 101.611 124.96 101.446 124.54C101.337 124.248 101.66 125.143 101.69 125.247C101.836 125.703 101.964 126.16 102.068 126.629C102.111 126.811 102.141 127 102.178 127.189C102.348 128.06 102.178 126.781 102.196 127.317C102.208 127.786 102.257 128.249 102.245 128.717C102.238 128.949 102.22 129.186 102.202 129.418C102.135 130.294 102.36 128.821 102.153 129.679C102.037 130.148 101.909 130.599 101.775 131.062C101.532 131.92 101.952 130.769 101.727 131.226C101.623 131.433 101.532 131.646 101.422 131.847C101.203 132.249 100.953 132.633 100.703 133.016C100.38 133.516 100.636 133.126 100.715 133.016C100.52 133.266 100.307 133.51 100.094 133.747C99.5031 134.399 98.8573 134.995 98.1871 135.562C97.9739 135.744 97.7546 135.921 97.5292 136.091C97.6328 136.012 98.0044 135.738 97.5048 136.104C97.0418 136.445 96.5788 136.78 96.1097 137.102C92.692 139.471 89.2256 141.7 86.35 144.75C80.5807 150.876 77.0777 158.683 74.4886 166.593C71.5217 175.629 69.3894 184.964 66.9769 194.152C66.721 195.133 66.4773 196.119 66.1423 197.081C66.0814 197.252 66.0204 197.422 65.9534 197.593C65.6488 198.421 66.2824 197.039 65.8559 197.8C65.6427 198.184 65.4295 198.567 65.2041 198.939C64.802 199.602 65.6671 198.567 65.0883 199.067C64.9726 199.17 64.8446 199.298 64.735 199.408C65.2772 198.872 64.7837 199.334 64.607 199.456C64.3512 199.627 64.2354 199.462 64.7106 199.42C64.668 199.42 63.8455 199.572 64.4121 199.517C64.9787 199.462 64.144 199.523 64.138 199.493C64.1319 199.468 64.8873 199.73 64.2293 199.487C63.4556 199.2 64.6131 199.815 64.077 199.438C63.9613 199.353 63.809 199.267 63.6871 199.194C64.3634 199.578 63.8029 199.28 63.6262 199.109C63.5105 199 63.3947 198.878 63.285 198.762C63.2607 198.738 62.7733 198.104 63.0657 198.512C63.3582 198.92 62.883 198.226 62.8769 198.214C62.755 198.031 62.6454 197.843 62.5357 197.648C62.292 197.215 62.0788 196.777 61.8717 196.326C62.1702 196.954 61.9082 196.406 61.8412 196.235C61.762 196.028 61.6828 195.821 61.6097 195.608C61.4696 195.2 61.3416 194.786 61.2259 194.372C60.8604 193.075 60.5253 191.772 60.1963 190.468C57.7716 180.75 56.5593 170.782 54.1468 161.07C53.6046 158.884 53.0319 156.704 52.5384 154.505C52.313 153.507 52.112 152.502 51.9353 151.491C51.8439 150.961 51.7586 150.432 51.6794 149.902C51.7769 150.596 51.6368 149.543 51.6368 149.494C51.6002 149.171 51.5698 148.848 51.5393 148.526C51.3505 146.321 51.3566 144.093 51.6246 141.895C51.5454 142.522 51.7038 141.383 51.7038 141.389C51.7404 141.158 51.783 140.92 51.8317 140.689C51.9475 140.092 52.0815 139.501 52.2277 138.917C52.5567 137.632 53.0624 136.402 53.4218 135.123C54.1102 132.639 54.1894 130.033 53.2147 127.609C52.2399 125.186 50.723 123.249 48.9319 121.471C47.3784 119.925 45.6421 118.579 44.0581 117.069C43.3088 116.356 42.5655 115.607 41.938 114.779C42.0233 114.895 42.2487 115.236 41.9137 114.712C41.7492 114.462 41.5786 114.213 41.4324 113.957C41.3349 113.787 41.2435 113.61 41.1461 113.439C40.7744 112.794 41.2192 113.793 41.0059 113.147C40.9146 112.867 40.8415 112.575 40.744 112.301C40.5308 111.698 40.7135 112.41 40.7379 112.459C40.6404 112.258 40.6404 111.473 40.7379 111.241C40.4394 111.929 40.6952 111.509 40.7744 111.272C40.8415 111.083 40.8963 110.876 40.9511 110.681C41.1522 110.011 40.677 110.949 40.9633 110.681C41.079 110.571 41.1887 110.291 41.2679 110.151C41.536 109.658 41.2679 110.133 41.1765 110.23C41.3349 110.048 41.5055 109.883 41.6639 109.701C42.0294 109.293 41.6578 109.682 41.5421 109.762C41.737 109.628 41.938 109.512 42.1391 109.39C42.3828 109.232 42.5412 109.36 41.9929 109.445C42.1391 109.421 42.5351 109.201 42.6752 109.268C42.3097 109.098 42.2488 109.628 42.5168 109.323H42.7605C42.2975 109.25 42.2548 109.25 42.6386 109.323C44.0338 109.603 45.6604 109.153 46.3671 107.807C47.0372 106.54 46.9519 104.829 45.8492 103.806C41.0181 99.3307 36.187 94.8551 31.3559 90.3795C28.9617 88.163 26.5736 85.9465 24.1793 83.73C21.9557 81.6718 19.6285 79.6806 17.5815 77.4459C17.35 77.1962 17.1307 76.9405 16.9114 76.6847C16.8017 76.5569 16.6921 76.429 16.5885 76.295C16.8139 76.5995 16.6372 76.3498 16.5885 76.295C16.1742 75.7287 15.7904 75.1381 15.4492 74.523C15.303 74.2612 15.169 73.9933 15.0411 73.7254C14.9558 73.5427 14.7182 72.9033 14.901 73.427C14.6877 72.8241 14.4623 72.2274 14.2856 71.6063C13.5729 69.1706 13.2439 66.6496 12.8052 64.1591C12.3483 61.5408 11.7086 59.0198 10.5999 56.5902C9.49109 54.1606 7.62689 52.1877 5.7444 50.2574C5.50072 50.0077 5.25703 49.752 5.01943 49.4901C4.8915 49.3501 4.33102 48.6681 4.69046 49.143C4.48941 48.8751 4.30056 48.595 4.12998 48.3088C4.05687 48.187 3.98986 48.0592 3.92284 47.9374C3.63651 47.4198 3.92284 48.1566 3.8802 47.8095C3.86192 47.6816 3.801 47.5233 3.76445 47.3954C3.65479 47.0301 3.74617 47.1701 3.74617 47.4624C3.74008 47.1519 3.74617 46.8474 3.74617 46.5368C3.74617 46.1593 3.73398 46.7317 3.71571 46.7682C3.77054 46.6038 3.79491 46.4272 3.84364 46.2567C3.8802 46.1289 3.93503 46.0071 3.96549 45.8792C4.08124 45.4591 3.70962 46.3055 3.94721 45.9279C4.11779 45.66 4.24573 45.3616 4.4224 45.0937C4.49551 44.978 4.58689 44.8623 4.66 44.7466C4.89759 44.3386 4.3432 45.0937 4.66 44.7283C5.123 44.2108 5.57991 43.6993 6.09166 43.2243C6.35362 42.9807 6.61558 42.7493 6.88973 42.5179C7.00548 42.4205 7.12733 42.3231 7.24308 42.2257C7.64516 41.8908 6.88364 42.4875 7.304 42.1709C7.90104 41.7142 8.52244 41.2879 9.14384 40.8739C10.5694 39.93 11.3127 37.9388 10.3196 36.3983C9.4058 34.9795 7.36492 34.2122 5.84188 35.223C1.16308 38.3225 -4.64276 43.3522 -2.47395 49.7033C-1.46874 52.6383 0.821922 54.5747 2.85062 56.7851C3.08821 57.0408 3.31362 57.3026 3.53294 57.5767C3.19787 57.1626 3.63042 57.7289 3.72789 57.875C4.1117 58.4474 4.44677 59.0442 4.74529 59.6653C4.83667 59.8601 5.06817 60.4691 4.87322 59.9393C4.9707 60.2133 5.08036 60.4812 5.17783 60.7613C5.39715 61.4068 5.58601 62.0644 5.7505 62.7221C7.0725 68.0015 7.13342 73.5792 10.015 78.3715C11.6599 81.1055 13.9993 83.3159 16.3265 85.4654C18.8609 87.8159 21.3952 90.1602 23.9357 92.5107C29.6745 97.8266 35.4194 103.143 41.1582 108.458L44.3749 102.942C41.7492 102.412 39.3976 103.021 37.3324 104.707C35.6022 106.126 34.4995 108.349 34.2071 110.541C33.5369 115.504 36.9546 119.584 40.4272 122.689C42.1452 124.23 43.9607 125.673 45.4776 127.426C45.6177 127.591 45.7578 127.755 45.8919 127.92C45.4959 127.426 46.1173 128.242 46.1356 128.267C46.428 128.693 46.6778 129.138 46.9214 129.594C47.22 130.148 47.0128 129.777 46.958 129.637C47.0677 129.917 47.159 130.197 47.2382 130.489C47.287 130.684 47.3296 130.873 47.3723 131.068C47.2261 130.349 47.3662 131.622 47.3723 131.799C47.3723 131.859 47.3174 132.444 47.3784 131.981C47.3357 132.328 47.2443 132.681 47.153 133.022C47.0067 133.601 46.8179 134.173 46.629 134.74C46.2026 136.012 45.8127 137.267 45.5446 138.588C45.0329 141.103 44.7709 143.685 44.8257 146.248C44.9293 150.992 45.9954 155.65 47.1469 160.229C48.3592 165.046 49.34 169.869 50.2295 174.752C51.1677 179.916 52.1546 185.073 53.367 190.176C54.4392 194.688 55.3713 199.584 58.4783 203.207C59.9343 204.906 62.1032 206.069 64.3695 206.045C67.0378 206.02 69.2249 204.559 70.7297 202.44C71.9847 200.674 72.6244 198.512 73.1666 196.436C73.8611 193.787 74.5556 191.138 75.2501 188.489C77.5773 179.624 79.6121 170.581 83.1029 162.08C83.3466 161.49 83.176 161.91 83.1212 162.038C83.2369 161.764 83.3588 161.49 83.4806 161.216C83.6817 160.765 83.8888 160.315 84.102 159.864C84.565 158.884 85.0585 157.915 85.5824 156.965C86.5633 155.163 87.672 153.446 88.8783 151.79C89.2499 151.284 88.9758 151.65 88.8966 151.753C89.0732 151.522 89.256 151.296 89.4388 151.071C89.7434 150.693 90.0602 150.328 90.3831 149.963C91.0958 149.165 91.8391 148.398 92.625 147.667C92.9844 147.332 93.35 147.009 93.7216 146.693C93.9104 146.535 94.0993 146.376 94.2882 146.224C94.4039 146.127 94.9217 145.731 94.4344 146.102C95.269 145.469 96.1341 144.872 96.9992 144.282C100.545 141.87 104.249 139.477 106.57 135.775C109.025 131.866 109.232 126.939 107.575 122.689C105.833 118.22 102.738 114.584 98.9182 111.741C94.9096 108.751 90.4013 106.528 86.0454 104.105C85.028 103.538 84.0106 102.978 83.0298 102.351C82.4998 102.016 81.9819 101.663 81.4702 101.297C81.2874 101.164 81.1047 101.03 80.9219 100.896C80.7391 100.762 80.5564 100.622 80.3797 100.488C80.5198 100.597 80.5076 100.591 80.3432 100.457C78.2962 98.874 76.3223 97.1933 74.1291 95.8111C70.1936 93.3267 64.9787 91.9809 60.4278 93.4972C58.1432 94.2583 56.474 95.7015 54.6463 97.1994C54.1772 97.583 54.5306 97.2847 54.6281 97.2177C54.4087 97.3699 54.1955 97.5282 53.964 97.6622C53.8178 97.7535 53.6655 97.8266 53.5132 97.9119C54.1163 97.5648 53.4949 97.8997 53.3243 97.9545C52.7639 98.1372 53.3 97.918 53.4157 97.9545H53.1659C53.568 98.0276 53.5802 98.0276 53.2147 97.9484L52.9344 97.8571C53.1903 97.9545 53.2147 97.9545 53.0258 97.8571C52.8979 97.784 52.776 97.7048 52.6603 97.6196C52.904 97.8023 52.8857 97.7779 52.6055 97.5465C51.1494 96.0973 49.5837 94.7576 48.1399 93.2962C47.8231 92.9735 47.5124 92.6447 47.22 92.3037C47.2321 92.3158 46.6717 91.646 46.9519 91.9992C47.2322 92.3524 46.7082 91.6582 46.7204 91.6704C46.4645 91.2989 46.233 90.9092 46.0198 90.5134C46.032 90.5378 45.6421 89.7279 45.8188 90.1237C45.9406 90.3916 45.6055 89.5148 45.569 89.4052C44.8318 87.0304 44.6125 84.9966 44.8075 82.5061C44.8928 81.3917 44.7526 82.7253 44.8623 82.092C44.9171 81.7997 44.978 81.5074 45.0512 81.2151C45.1669 80.7584 45.3131 80.3261 45.4715 79.8816C45.24 80.5453 45.5202 79.7903 45.5751 79.6806C45.6482 79.5345 45.7274 79.3884 45.8127 79.2483C45.9345 79.0413 46.0685 78.8464 46.1965 78.6455C46.5255 78.1157 45.8127 79.023 46.2757 78.548C46.5376 78.2801 46.7996 78.0244 47.0677 77.7625C47.5916 77.2449 46.5194 78.1035 47.1347 77.7016C47.2565 77.6225 47.3784 77.5311 47.5002 77.452C47.8109 77.251 48.1399 77.0684 48.4689 76.8979C48.6699 76.7943 48.8831 76.7091 49.0842 76.6056C48.3958 76.9588 49.0537 76.6178 49.206 76.5629C50.8387 75.9418 52.5445 75.546 54.2382 75.132C58.9657 73.9872 63.5226 72.3796 67.8176 70.084C69.7306 69.061 71.4973 67.7883 73.3981 66.7532C73.8367 66.5096 74.2875 66.2782 74.7505 66.0773C74.2083 66.3086 75.1404 65.9433 75.1526 65.9372C75.3963 65.852 75.6461 65.7789 75.8959 65.7058C76.1456 65.6327 76.4137 65.584 76.6696 65.5231C77.6321 65.2857 76.3893 65.5353 77.0107 65.4622C77.6687 65.3831 78.3327 65.3587 78.9968 65.3587C83.6207 65.3587 88.3848 67.2342 92.8382 69.1097C97.0662 70.8878 101.416 72.5075 106.089 72.0873C108.398 71.8803 110.621 71.448 112.437 69.9196C113.673 68.8844 114.526 67.356 114.855 65.7789C115.519 62.5455 114.74 59.239 113.96 56.097C113.801 55.4637 113.643 54.8304 113.497 54.191C113.43 53.9048 113.369 53.6126 113.308 53.3203C113.284 53.1863 113.156 52.3582 113.192 52.6626C113.137 52.1755 113.101 51.6762 113.143 51.183C113.076 51.9989 113.363 50.2574 113.32 50.6715L113.412 50.5131C113.143 50.8602 113.125 50.9028 113.357 50.6532C113.472 50.5618 113.594 50.4279 113.698 50.3244C114.143 49.8798 114.569 49.3866 114.874 48.8386C116.336 46.2019 114.465 43.4983 111.773 42.9625C110.859 42.7798 109.921 42.7067 108.995 42.6276C108.885 42.6154 108.008 42.4449 107.922 42.5301C108.251 42.2074 108.519 42.8041 108.014 42.5301C107.782 42.4022 107.606 42.2744 108.069 42.5971C107.679 42.3292 107.204 42.1404 106.795 41.8786C106.083 41.4219 107.088 42.2257 106.485 41.6289C106.345 41.4889 106.198 41.3671 106.064 41.227C105.595 40.7521 105.126 40.0335 104.822 39.1384C104.06 36.9341 103.42 34.7359 102.238 32.7021C100.21 29.2129 97.1637 26.5032 93.7764 24.3781C90.3892 22.2529 87.0567 20.8585 83.6878 19.1352C79.1552 16.8213 75.2257 13.4905 71.1988 10.4215C67.1719 7.35252 63.0414 3.44931 57.6985 3.6259C52.8918 3.78422 49.5533 7.21247 45.8249 9.76996C41.6822 12.6075 37.3445 15.1589 33.1714 17.9539C28.6327 20.9924 24.1123 24.0553 19.6102 27.1548C15.1081 30.2542 10.9349 33.3962 6.62168 36.5566C4.83058 37.8658 6.39627 40.7764 8.40059 39.6012L8.38232 39.6256Z" fill="#21AB8E"/>
<path d="M191.58 52.6871C189.539 47.4626 186.968 42.445 183.928 37.738C182.393 39.2116 180.431 40.2346 178.348 40.6609C176.569 41.0201 174.631 40.9836 173.108 41.9701C172.109 42.6155 171.415 43.6324 170.489 44.3814C169.739 44.9842 168.85 45.3983 168.155 46.0499C165.572 48.4734 167.869 53.0038 165.804 55.0924C164.658 56.2433 160.906 55.9693 159.431 55.8597C154.899 55.5187 151.384 48.7839 149.233 45.4166C149.458 45.7698 145.255 48.8631 145.163 50.154C144.67 57.0531 159.206 58.5267 154.034 65.1214C152.212 67.4414 148.593 66.7411 145.779 65.8582C142.964 64.9753 139.284 64.3907 137.591 66.802C134.922 70.6017 140.18 75.2052 141.411 83.4988C141.575 84.5887 142.385 85.7092 143.476 85.8675C144.091 85.9588 144.688 85.6848 145.243 85.3986C147.174 84.4061 149.008 83.2369 150.719 81.9034C153.887 79.4311 157.159 77.239 160.363 74.8642C163.117 72.8243 164.908 70.3338 168.624 69.8527C169.496 69.7431 170.434 69.7858 171.177 70.2607C171.859 70.6992 172.274 71.4481 172.664 72.1606C175.399 77.2207 178.14 82.2748 180.876 87.335C183.191 85.4595 184.982 82.9568 186.018 80.1679C191.842 82.5975 196.977 86.6408 200.7 91.7314C203.027 89.381 202.649 85.5387 201.918 82.3114C198.592 67.5754 191.367 53.7345 181.168 42.5851" fill="#21AB8E"/>
<path d="M193.286 52.2182C192.372 49.4293 191.318 46.6952 190.16 43.9977C189.003 41.3001 187.565 38.9253 186.267 36.3739C185.664 35.1804 183.678 34.5472 182.563 35.4057C181.796 35.9964 180.949 36.514 180.09 36.9585C179.944 37.0316 179.798 37.1046 179.651 37.1777C178.939 37.5309 180.206 37.0194 179.45 37.2569C178.902 37.4274 178.366 37.6101 177.799 37.7258C177.397 37.8049 176.983 37.8719 176.569 37.9206C177.726 37.7927 175.271 38.0972 175.826 38.018C175.576 38.0546 175.332 38.085 175.082 38.1216C173.937 38.3042 172.81 38.6391 171.792 39.2176C170.873 39.7413 170.105 40.4903 169.374 41.2392C169.209 41.4097 169.039 41.5802 168.868 41.7447C168.783 41.8238 168.174 42.317 168.746 41.8969C168.326 42.2074 167.869 42.4693 167.437 42.7616C165.578 44.022 164.275 45.6783 163.915 47.9313C163.757 48.9178 163.702 49.8921 163.69 50.8907C163.69 51.2134 163.69 51.5362 163.678 51.8589C163.678 52.0477 163.666 52.2364 163.653 52.4191C163.592 53.296 163.781 51.9624 163.653 52.4861C163.623 52.6201 163.58 52.7662 163.556 52.9063C163.489 53.2655 163.263 53.2046 163.672 52.7053C163.611 52.7723 163.452 53.0463 163.428 53.1316C163.525 52.681 163.86 52.6505 163.507 52.9672C164.171 52.3704 163.946 52.6262 163.672 52.7662C164.482 52.3521 164.202 52.5653 163.988 52.614C163.824 52.6505 163.666 52.7053 163.501 52.7418C162.642 52.9245 164.013 52.7236 163.428 52.7662C162.088 52.8636 160.778 52.7967 159.444 52.7236C158.81 52.687 160.217 52.9123 159.608 52.7358C159.444 52.687 159.279 52.6566 159.115 52.6018C158.749 52.4861 158.688 52.2608 159.218 52.6688C159.139 52.6079 158.987 52.5592 158.901 52.5165C158.579 52.3521 158.28 52.1512 157.975 51.9502C157.415 51.591 158.524 52.4313 158.018 51.9868C157.872 51.8589 157.726 51.7371 157.579 51.6092C156.934 51.0247 156.349 50.3792 155.801 49.7033L155.673 49.545C155.465 49.2832 155.502 49.3319 155.782 49.6911C155.599 49.5876 155.417 49.1979 155.289 49.0213C155.051 48.6864 154.814 48.3454 154.588 48.0044C153.674 46.6343 152.846 45.2094 151.962 43.815C151.079 42.4206 149.495 41.9091 148.027 42.5241C146.668 43.0965 145.687 44.7467 146.205 46.2385C146.193 46.2081 146.559 43.8455 146.473 43.9855C146.455 44.0159 147.009 43.3766 146.863 43.4862C146.784 43.5471 146.717 43.6506 146.644 43.7237C146.406 43.9733 146.157 44.2047 145.901 44.4361C145.334 44.9659 144.755 45.4895 144.213 46.0498C143.598 46.683 142.952 47.3833 142.556 48.1749C141.996 49.2771 141.947 50.367 142.105 51.5605C142.574 55.0314 145.291 57.2844 147.96 59.2147C148.514 59.6166 149.081 60.0124 149.641 60.4082C149.897 60.5909 150.147 60.7736 150.397 60.9562C150.452 60.9928 150.5 61.0354 150.555 61.0719C150.927 61.3399 150.196 60.7918 150.214 60.8101C150.342 60.9197 150.476 61.0171 150.61 61.1267C151.067 61.5043 151.469 61.9183 151.877 62.3507C152.194 62.6856 151.378 61.62 151.67 62.0828C151.737 62.1863 151.804 62.2837 151.871 62.3872C151.938 62.4907 151.975 62.6003 152.036 62.6978C151.938 62.5455 151.767 61.8453 151.908 62.4298C151.932 62.5273 151.944 62.6734 151.987 62.7587C152.011 62.8135 151.962 61.7966 151.914 62.3324C151.908 62.4359 151.883 62.5882 151.902 62.6856C151.902 62.6551 152.115 61.7722 151.92 62.3446C151.883 62.4542 151.81 62.6064 151.798 62.7221C151.798 62.716 152.206 61.9183 151.981 62.2776C151.95 62.3324 151.926 62.3933 151.895 62.4481C151.822 62.5882 151.743 62.7221 151.658 62.8561C151.609 62.9353 151.548 63.0144 151.499 63.0936C151.231 63.5259 152.005 62.6064 151.67 62.8744C151.566 62.9596 151.207 63.258 151.177 63.3615C151.195 63.2823 151.725 63.0449 151.451 63.1301C151.347 63.1606 151.207 63.2519 151.116 63.3189C150.872 63.5076 151.42 63.1606 151.463 63.1788C151.426 63.1666 151.164 63.2763 151.097 63.2945C150.969 63.3311 150.841 63.3493 150.72 63.3798C150.251 63.4955 150.915 63.2945 151.006 63.3432C150.884 63.2762 150.336 63.3798 150.19 63.3798C149.982 63.3798 149.769 63.3676 149.562 63.3493C149.562 63.3493 149.172 63.2823 149.136 63.3067C149.178 63.2763 149.976 63.4468 149.373 63.3311C149.087 63.2763 148.807 63.2275 148.52 63.1606C146.254 62.6491 144.152 61.8392 141.788 61.7722C138.937 61.687 136.257 62.8135 134.667 65.237C132.291 68.854 134.259 73.0069 135.788 76.4899C135.879 76.697 135.97 76.9101 136.062 77.1171C136.123 77.2572 136.421 77.9513 136.214 77.4642C136.007 76.9771 136.306 77.6956 136.366 77.8417C136.476 78.1097 136.58 78.3715 136.683 78.6394C137.091 79.7111 137.451 80.8072 137.737 81.9155C138.084 83.2855 138.176 84.6861 138.803 85.9648C139.522 87.4384 140.905 88.6319 142.513 89.0338C144.518 89.527 146.315 88.6258 148.015 87.6759C149.16 87.0365 150.269 86.3362 151.329 85.569C151.621 85.3559 151.914 85.1428 152.2 84.9235C152.462 84.7226 152.724 84.5216 152.98 84.3207C153.364 84.0223 152.59 84.6191 152.992 84.3085C153.571 83.864 154.156 83.4256 154.747 82.9932C155.916 82.1347 157.098 81.2883 158.286 80.4479C160.534 78.8465 162.77 77.2511 164.866 75.4548C165.243 75.132 165.627 74.8154 166.005 74.4987C166.34 74.2186 165.475 74.8885 165.828 74.6327C165.914 74.5718 165.999 74.5109 166.084 74.45C166.31 74.2856 166.541 74.1334 166.779 73.9872C167.016 73.8411 167.266 73.7011 167.516 73.5732C167.613 73.5245 167.711 73.4818 167.802 73.4331C168.192 73.2322 167.181 73.6462 167.607 73.5184C168.034 73.3905 168.813 72.9947 169.283 73.086C169.234 73.0739 168.478 73.1226 169.124 73.1287C169.246 73.1287 169.368 73.1226 169.49 73.1287C169.624 73.1287 170.135 73.0921 169.642 73.1287C169.264 73.1591 169.502 73.1104 169.666 73.1713C168.978 72.9155 169.343 73.0191 169.514 73.1347C169.386 73.0434 169.057 72.6659 169.386 73.086C169.374 73.0678 169.051 72.5745 169.24 72.8912C169.343 73.0678 169.459 73.2383 169.563 73.4149C170.276 74.651 170.921 75.9236 171.598 77.1719C173.011 79.7903 174.43 82.4087 175.844 85.0271C176.563 86.3606 177.282 87.6881 178 89.0216C178.494 89.9411 179.444 90.483 180.443 90.617C181.558 90.7692 182.399 90.3978 183.252 89.6975C186.024 87.414 187.992 84.3938 189.259 81.0569L185.14 83.3951C184.763 83.2368 184.751 83.2307 185.128 83.3951C185.281 83.4621 185.427 83.5291 185.573 83.5961C185.908 83.7544 186.237 83.9127 186.566 84.0771C187.261 84.4303 187.943 84.8018 188.613 85.1976C189.247 85.5751 189.868 85.9709 190.477 86.385C190.782 86.592 191.086 86.8051 191.379 87.0243C191.543 87.1461 191.708 87.2679 191.872 87.3897C192.256 87.6698 191.245 86.8843 191.872 87.3897C193.024 88.3152 194.12 89.2956 195.156 90.3491C195.698 90.9032 196.222 91.4817 196.728 92.0723C196.965 92.3524 197.197 92.6386 197.434 92.9248C197.788 93.3511 197.386 92.8213 197.361 92.8274C197.386 92.8213 197.782 93.3876 197.8 93.418C198.446 94.301 199.14 94.8734 200.255 95.0195C201.285 95.1596 202.339 94.8673 203.076 94.094C206.152 90.8606 206.146 86.3971 205.342 82.2808C204.635 78.6455 203.551 75.059 202.32 71.5698C199.719 64.214 196.222 57.1687 191.842 50.708C189.338 47.0119 186.56 43.4862 183.55 40.1858C182.356 38.8766 179.974 38.8888 178.78 40.1858C177.495 41.5802 177.507 43.5593 178.78 44.9537C180.053 46.3481 181.156 47.6391 182.283 49.0335C182.551 49.3684 182.813 49.7033 183.081 50.0382C183.623 50.7202 182.655 49.4719 183.179 50.1661C183.307 50.3366 183.435 50.5071 183.563 50.6776C184.099 51.3961 184.629 52.1207 185.147 52.8515C187.212 55.7804 189.1 58.8372 190.788 61.9975C191.635 63.5746 192.433 65.1822 193.182 66.8141C193.377 67.2404 193.572 67.6666 193.761 68.0989C193.846 68.2938 193.931 68.4887 194.017 68.6835C194.029 68.714 194.358 69.4873 194.151 68.988C193.944 68.4887 194.267 69.2681 194.279 69.2924C194.358 69.4873 194.443 69.6882 194.522 69.8831C194.699 70.3215 194.87 70.7539 195.04 71.1923C196.344 74.5779 197.434 78.0427 198.3 81.5684C198.519 82.4696 198.738 83.3708 198.909 84.2842C198.951 84.5095 198.982 84.7348 199.025 84.954C199.146 85.6299 198.964 84.2233 199.025 84.9662C199.061 85.4229 199.11 85.8735 199.116 86.3241C199.122 86.7747 199.098 87.2131 199.073 87.6576C199.037 88.2848 199.073 87.4384 199.11 87.414C199.043 87.4506 198.951 88.1447 198.921 88.2544C198.884 88.3883 198.836 88.5223 198.793 88.6562C198.665 88.9912 198.702 88.9242 198.89 88.4431C198.83 88.571 198.769 88.6928 198.702 88.8207C198.635 88.9424 198.555 89.0642 198.482 89.1799C198.275 89.4722 198.324 89.4174 198.622 89.0155C198.531 89.1251 198.427 89.2347 198.33 89.3383L203.606 90.0202C199.274 84.1502 193.633 79.7477 186.913 76.9223C186.2 76.6239 184.958 76.8553 184.33 77.2572C183.556 77.7565 183.118 78.402 182.789 79.2605C182.777 79.2971 182.612 79.7233 182.612 79.7233C182.594 79.7172 182.905 79.0961 182.655 79.6076C182.49 79.9425 182.332 80.2774 182.155 80.6063C181.82 81.2274 181.436 81.8119 181.04 82.3904C180.778 82.7679 181.083 82.4635 181.12 82.3112C181.095 82.4209 180.882 82.6096 180.809 82.6949C180.596 82.9506 180.376 83.1942 180.151 83.4378C179.639 83.9797 179.091 84.4851 178.518 84.954L183.77 85.6299C180.955 80.4358 178.268 75.1442 175.314 70.0292C174.394 68.4338 173.029 67.1186 171.202 66.6619C169.66 66.2783 167.979 66.4488 166.468 66.8811C163.976 67.5874 162.002 69.1463 160.071 70.8087C159.687 71.1436 159.297 71.4724 158.908 71.7951C158.847 71.8438 158.652 72.0448 158.56 72.0752C158.615 72.057 159.188 71.6124 158.694 71.9656C158.384 72.197 158.067 72.4284 157.756 72.6537C156.623 73.4818 155.478 74.2917 154.332 75.1077C153.187 75.9236 151.969 76.8005 150.799 77.6712C150.104 78.1888 149.416 78.7186 148.727 79.2544C148.612 79.3458 148.496 79.431 148.38 79.5224C148.904 79.1144 148.52 79.4128 148.405 79.498C148.112 79.7111 147.82 79.9243 147.527 80.1313C146.412 80.9046 145.255 81.6171 144.061 82.2504C143.939 82.3113 143.823 82.3782 143.701 82.4391C143.61 82.4878 143.086 82.7192 143.494 82.5609C143.878 82.4087 143.452 82.5731 143.391 82.5792C143.665 82.5548 143.909 82.5183 144.177 82.5974C144.28 82.6279 144.841 82.9932 144.408 82.6888C144.402 82.6888 144.926 83.1394 144.676 82.8836C144.378 82.5792 144.993 83.4499 144.792 83.0663C144.731 82.9506 144.56 82.5426 144.707 82.9932C144.877 83.5047 144.652 82.7131 144.627 82.5853C144.567 82.2504 144.518 81.9094 144.457 81.5805C144.341 80.9777 144.201 80.381 144.043 79.7903C143.756 78.7308 143.397 77.6834 143.001 76.6604C142.55 75.4974 142.057 74.3587 141.557 73.22C141.38 72.8181 141.204 72.4162 141.027 72.0143C140.978 71.9047 140.936 71.7951 140.887 71.6855C140.862 71.6368 141.179 72.404 141.051 72.0691C140.972 71.856 140.881 71.649 140.802 71.4358C140.527 70.7173 140.381 69.9744 140.156 69.2437C140.052 68.9149 140.29 69.8587 140.223 69.7796C140.205 69.7552 140.198 69.5604 140.198 69.5116C140.198 69.3594 140.18 69.2072 140.186 69.0489C140.198 68.2816 140.144 69.3594 140.113 69.3533C140.083 69.3411 140.211 68.9149 140.223 68.854C140.235 68.7809 140.296 68.6835 140.302 68.6104C140.302 68.6348 139.888 69.4081 140.119 69.0367C140.205 68.9027 140.278 68.7566 140.351 68.6165C140.625 68.1172 139.906 69.0062 140.326 68.6531C140.387 68.6043 140.491 68.5191 140.533 68.4582C140.722 68.1842 139.912 68.8175 140.387 68.5861C140.442 68.5617 140.698 68.4338 140.71 68.4095C140.686 68.4521 140.046 68.6043 140.351 68.5617C140.558 68.5313 140.789 68.4399 140.99 68.379C141.533 68.2207 140.241 68.4034 140.99 68.379C141.295 68.3669 141.6 68.3547 141.904 68.3669C142.111 68.373 142.319 68.3973 142.526 68.4095C143.117 68.4582 142.319 68.4095 142.276 68.373C142.319 68.4095 142.666 68.4399 142.696 68.446C143.214 68.5435 143.732 68.6652 144.238 68.8053C145.224 69.0793 146.193 69.402 147.198 69.603C149.775 70.1084 152.767 70.2363 155.009 68.6104C156.909 67.2282 158.152 65.1639 158.39 62.8256C158.731 59.4522 155.941 57.0652 153.479 55.3176C152.925 54.9218 152.358 54.5504 151.798 54.1667C151.53 53.9841 151.268 53.8014 151 53.6187C150.866 53.5274 150.738 53.4299 150.61 53.3386C150.366 53.162 149.903 52.6627 150.647 53.3812C150.184 52.9367 149.66 52.5713 149.209 52.1086C149.105 51.999 149.002 51.8954 148.904 51.7797C148.807 51.664 148.459 51.2317 148.831 51.7128C149.203 52.1938 148.868 51.7554 148.788 51.6336C148.685 51.4814 148.593 51.3291 148.502 51.1708C148.441 51.0551 148.392 50.8968 148.313 50.7994C148.472 51.0003 148.593 51.6092 148.435 51.0551C148.398 50.9212 148.362 50.7872 148.325 50.6532C148.137 50.0078 148.35 51.2682 148.344 50.8907C148.344 50.7446 148.325 50.5984 148.325 50.4523C148.325 49.8007 148.313 50.5497 148.252 50.8116C148.313 50.5375 147.808 51.5544 148.118 51.1586C148.167 51.0977 148.204 51.0247 148.246 50.9577C148.429 50.6411 148.508 50.9577 148.033 51.2256C148.283 51.0856 148.545 50.6471 148.746 50.434C149.032 50.1417 149.331 49.8555 149.629 49.5693C150.135 49.0883 150.671 48.6316 151.152 48.1201C152.029 47.1824 152.767 45.8793 152.298 44.5457L146.54 46.9692C148.356 49.819 150.025 52.8027 152.377 55.2628C153.723 56.6755 155.301 57.8264 157.135 58.5023C158.603 59.0442 160.339 59.0686 161.893 59.0625C163.684 59.0625 165.67 58.9103 167.211 57.9177C169.228 56.6268 169.837 54.252 169.904 52.005C169.928 51.2926 169.904 50.5802 169.916 49.8677C169.916 49.6729 169.928 49.478 169.94 49.2832L169.953 49.0883C169.989 48.7473 169.977 48.8325 169.91 49.338C169.983 49.2162 169.989 48.9239 170.026 48.7838C170.056 48.662 170.093 48.5403 170.129 48.4246C170.245 48.114 170.209 48.1871 170.032 48.6438C170.044 48.6438 170.312 48.1445 170.318 48.1566L170.074 48.4733C170.16 48.3698 170.251 48.2723 170.349 48.181C170.873 47.6025 169.886 48.4367 170.544 48.0166C170.763 47.8765 170.982 47.7304 171.202 47.5842C172.268 46.8779 173.151 46.0741 174.034 45.1668C174.199 44.9963 174.376 44.838 174.54 44.6675C175.027 44.1682 174.059 44.9111 174.662 44.5579C174.875 44.43 175.082 44.3082 175.302 44.2047C174.619 44.5274 175.57 44.156 175.728 44.1134C176.855 43.8272 178.025 43.7724 179.158 43.5105C181.711 42.9199 184.129 41.5863 185.853 39.6073H182.027C182.143 39.7535 182.259 39.8935 182.368 40.0397C182.228 39.8874 182.253 39.9361 182.442 40.1919C182.63 40.5146 182.856 40.8191 183.063 41.1296C183.422 41.6777 183.77 42.2318 184.117 42.7859C184.83 43.9368 185.543 45.0877 186.237 46.2507C187.644 48.6072 188.912 51.0429 190.063 53.5335C190.904 55.3541 193.919 54.0632 193.304 52.1695L193.286 52.2182Z" fill="#21AB8E"/>
<path d="M200.523 105.311C187.791 104.141 175.448 99.0142 165.633 90.8181C163.014 88.6321 160.425 86.1476 157.123 85.2891C154.765 84.674 152.279 84.9541 149.861 85.2403C142.514 86.105 136.562 84.5401 130.786 90.0813C126.637 94.0637 120.064 99.952 119.193 105.846C118.188 112.654 121.965 119.584 125.754 124.942C127.624 127.585 130.165 130.423 133.4 130.185C135.709 130.015 137.597 128.273 139.821 127.64C145.139 126.124 150.275 131.592 150.951 137.084C151.628 142.577 149.422 147.947 148.045 153.3C145.907 161.612 145.743 170.429 147.576 178.814C148.917 184.952 151.987 191.528 157.945 193.532C166.017 196.241 173.894 189.202 179.097 182.461C184.416 175.568 189.235 168.286 193.493 160.692C197.453 153.641 200.98 146.175 202.132 138.174C203.673 127.475 200.883 116.679 198.117 106.236" fill="#21AB8E"/>
<path d="M201.072 103.331C199.804 102.997 198.568 102.564 197.288 102.302C196.009 102.041 194.717 101.73 193.444 101.395C190.879 100.725 188.376 99.885 185.908 98.9168C185.275 98.6671 184.635 98.4235 184.001 98.1556C184.574 98.3931 183.91 98.113 183.697 98.0156C183.349 97.8633 182.996 97.705 182.649 97.5467C181.449 96.9926 180.273 96.4019 179.109 95.7747C176.788 94.5203 174.528 93.132 172.353 91.6401C171.823 91.2808 171.305 90.9094 170.787 90.5319C170.544 90.3553 170.306 90.1787 170.069 89.996C169.977 89.929 169.539 89.588 169.91 89.8742C170.312 90.1787 169.733 89.7342 169.654 89.6733C168.625 88.8573 167.638 88.0048 166.645 87.1523C164.336 85.1672 161.978 83.3648 159.109 82.2809C156.148 81.1605 152.937 81.4102 149.861 81.7633C147.509 82.0313 145.151 82.0617 142.788 82.1713C140.424 82.2809 137.957 82.494 135.666 83.2126C132.967 84.059 130.567 85.5143 128.502 87.4324C124.828 90.8424 121.087 94.3985 118.376 98.6488C116.866 101.024 115.915 103.575 115.611 106.37C115.288 109.323 115.775 112.417 116.689 115.23C117.603 118.043 118.943 120.795 120.49 123.347C121.91 125.685 123.476 128.072 125.382 130.045C127.423 132.158 130.244 133.875 133.284 133.717C135.02 133.625 136.549 133.065 138.097 132.298C138.639 132.03 139.169 131.738 139.711 131.464C139.857 131.391 139.998 131.318 140.144 131.251C140.259 131.196 140.741 130.958 140.272 131.184C139.839 131.397 140.192 131.22 140.296 131.184C140.521 131.117 140.735 131.038 140.96 130.983C141.106 130.946 141.971 130.782 141.326 130.898C140.735 131.001 141.502 130.91 141.685 130.91C141.819 130.91 141.959 130.922 142.093 130.928C142.447 130.928 142.361 131.135 141.764 130.873C141.996 130.977 142.313 130.977 142.562 131.05C142.812 131.123 143.098 131.293 143.342 131.318C143.263 131.312 142.568 130.934 143.068 131.214C143.19 131.281 143.318 131.342 143.44 131.409C143.653 131.531 143.866 131.659 144.067 131.793C144.183 131.872 144.299 131.957 144.414 132.036C144.768 132.268 143.744 131.458 144.292 131.951C144.676 132.292 145.048 132.639 145.389 133.017C145.487 133.126 145.578 133.242 145.682 133.351C146.108 133.833 145.523 133.199 145.541 133.163C145.517 133.211 146.059 133.912 146.108 133.991C146.406 134.466 146.662 134.965 146.906 135.471C147.174 136.037 146.632 134.734 146.93 135.556C147.046 135.872 147.144 136.189 147.235 136.512C147.302 136.761 147.363 137.011 147.412 137.267C147.467 137.541 147.332 137.742 147.436 137.34L147.406 137.084C147.424 137.224 147.436 137.364 147.448 137.504C147.521 138.241 147.54 138.984 147.521 139.727C147.509 140.05 147.497 140.372 147.473 140.695C147.454 140.957 147.491 141.578 147.363 141.803C147.4 141.742 147.491 140.975 147.375 141.688C147.351 141.828 147.332 141.962 147.308 142.102C147.235 142.516 147.156 142.93 147.071 143.338C146.461 146.206 145.523 148.983 144.768 151.814C143.19 157.721 142.514 163.932 142.836 170.033C143.366 180.05 146.193 193.458 157.11 197.015C162.539 198.78 168.357 196.911 172.828 193.678C177.574 190.243 181.138 185.774 184.586 181.091C188.034 176.409 191.312 171.47 194.309 166.422C197.307 161.374 200.188 156.022 202.412 150.474C204.672 144.824 206.012 138.856 206.128 132.761C206.25 126.465 205.178 120.156 203.764 114.036C203.429 112.593 203.076 111.15 202.71 109.713C202.522 108.982 202.333 108.288 202.046 107.594C201.894 107.229 201.748 106.857 201.596 106.492C201.498 106.248 200.944 104.628 201.145 105.39C200.724 103.806 198.891 102.686 197.294 103.204C195.698 103.721 194.657 105.359 195.107 107.052C194.961 106.504 195.089 106.93 195.107 107.076C195.132 107.265 195.156 107.46 195.18 107.649C195.223 107.984 195.266 108.319 195.302 108.647C195.424 109.616 195.583 110.517 195.82 111.455C196.186 112.892 196.545 114.335 196.874 115.778C197.203 117.221 197.544 118.768 197.831 120.272C197.959 120.948 198.08 121.63 198.196 122.312C198.251 122.653 198.306 122.994 198.361 123.329C198.391 123.523 198.422 123.718 198.446 123.913C198.464 124.041 198.458 124.802 198.507 124.315C198.543 123.913 198.507 124.309 198.519 124.425C198.543 124.619 198.568 124.814 198.592 125.009C198.635 125.35 198.671 125.691 198.708 126.032C198.787 126.812 198.854 127.591 198.903 128.37C198.994 129.832 199.037 131.293 199.006 132.755C198.976 134.216 198.878 135.684 198.708 137.139C198.696 137.261 198.665 137.876 198.677 137.395C198.683 136.962 198.677 137.395 198.659 137.486C198.598 137.851 198.543 138.211 198.482 138.57C198.361 139.246 198.227 139.922 198.068 140.592C197.447 143.32 196.569 145.981 195.528 148.575C195.473 148.709 195.089 149.598 195.29 149.171C195.491 148.745 195.29 149.184 195.254 149.251C195.18 149.421 195.107 149.592 195.034 149.756C194.736 150.432 194.431 151.102 194.114 151.765C193.523 153.014 192.902 154.256 192.256 155.48C189.631 160.473 186.712 165.32 183.599 170.021C182.003 172.426 180.352 174.795 178.646 177.127C178.256 177.663 177.86 178.193 177.464 178.722C177.263 178.99 177.068 179.252 176.867 179.514C176.752 179.666 176.636 179.812 176.526 179.965C176.459 180.05 175.972 180.695 176.301 180.263C176.581 179.898 176.069 180.555 175.966 180.683C175.789 180.909 175.606 181.128 175.424 181.353C174.997 181.865 174.565 182.37 174.12 182.863C173.279 183.801 172.396 184.708 171.47 185.573C171.007 185.999 170.538 186.419 170.056 186.821C169.831 187.01 169.605 187.187 169.38 187.369C169.069 187.619 169.606 187.193 169.612 187.187C169.453 187.247 169.258 187.448 169.112 187.552C168.131 188.258 167.102 188.892 166.023 189.433C165.786 189.549 165.505 189.641 165.28 189.781C165.908 189.385 165.743 189.592 165.493 189.689C165.347 189.744 165.207 189.799 165.061 189.854C164.488 190.061 163.903 190.231 163.312 190.365C163.056 190.42 162.794 190.463 162.539 190.511C162.149 190.59 162.953 190.463 162.935 190.463C162.794 190.463 162.63 190.493 162.49 190.505C161.893 190.554 161.29 190.554 160.687 190.505C160.571 190.499 160.461 190.481 160.345 190.475C159.864 190.438 161.089 190.615 160.613 190.505C160.351 190.444 160.083 190.402 159.815 190.341C159.547 190.28 159.279 190.201 159.017 190.115C158.707 190.012 157.854 189.543 158.768 190.055C158.341 189.817 157.896 189.634 157.476 189.379C157.238 189.239 157.007 189.086 156.788 188.928C156.702 188.867 156.623 188.806 156.538 188.745C156.184 188.496 157.153 189.275 156.696 188.855C156.337 188.532 155.971 188.216 155.636 187.862C155.441 187.662 155.252 187.454 155.076 187.241C155.009 187.162 154.942 187.083 154.875 186.998C154.503 186.553 154.875 186.9 154.978 187.144C154.808 186.724 154.375 186.304 154.131 185.914C153.821 185.427 153.534 184.927 153.272 184.416C153.01 183.904 152.797 183.436 152.566 182.936C152.401 182.583 152.718 183.302 152.712 183.283C152.663 183.143 152.602 183.009 152.547 182.875C152.438 182.601 152.334 182.327 152.237 182.053C151.42 179.788 150.89 177.425 150.5 175.051C150.44 174.673 150.385 174.296 150.324 173.918C150.287 173.687 150.123 173.358 150.336 174.015C150.293 173.888 150.299 173.723 150.281 173.589C150.19 172.834 150.117 172.073 150.056 171.312C149.946 169.887 149.891 168.456 149.891 167.025C149.891 165.594 149.946 164.163 150.056 162.738C150.111 162.026 150.178 161.313 150.263 160.601C150.281 160.461 150.299 160.315 150.312 160.175C150.366 159.645 150.22 160.796 150.299 160.266C150.354 159.888 150.409 159.511 150.47 159.133C151.414 153.257 153.754 147.71 154.473 141.791C155.13 136.378 153.626 130.569 149.319 126.94C147.162 125.119 144.585 123.864 141.709 123.846C140.046 123.834 138.541 124.291 137.037 124.954C136.519 125.18 136.019 125.435 135.514 125.697C135.264 125.831 135.014 125.959 134.764 126.087C134.624 126.16 134.478 126.233 134.332 126.3C134.222 126.355 133.582 126.647 134.1 126.416C134.551 126.215 134.179 126.379 134.082 126.416C133.93 126.465 133.783 126.519 133.631 126.562C133.467 126.611 132.626 126.793 133.174 126.684C133.723 126.574 132.9 126.653 132.742 126.653C132.126 126.653 132.985 126.641 133.034 126.702C132.967 126.623 132.608 126.605 132.51 126.58C132.407 126.55 132.303 126.513 132.206 126.483C131.615 126.306 132.431 126.532 132.449 126.592C132.425 126.495 131.895 126.3 131.773 126.227C131.56 126.099 131.347 125.898 131.127 125.795C131.712 126.075 131.529 126.117 131.31 125.923C131.164 125.795 131.024 125.673 130.884 125.539C130.457 125.143 130.055 124.717 129.677 124.272C129.501 124.065 129.33 123.852 129.16 123.639C128.916 123.341 129.354 123.895 129.354 123.889C129.269 123.73 129.123 123.572 129.013 123.426C128.264 122.391 127.545 121.319 126.869 120.235C126.138 119.06 125.449 117.854 124.834 116.612C124.554 116.052 124.261 115.48 124.042 114.895C124.085 114.998 124.316 115.589 124.085 114.986C124.036 114.858 123.987 114.737 123.939 114.609C123.792 114.231 123.658 113.854 123.53 113.47C123.335 112.879 123.159 112.283 123.013 111.68C122.939 111.381 122.872 111.077 122.811 110.773C122.775 110.602 122.744 110.425 122.714 110.255C122.696 110.17 122.684 110.084 122.671 109.993C122.629 109.725 122.641 109.823 122.702 110.273C122.757 110.024 122.629 109.609 122.61 109.36C122.586 109.055 122.574 108.751 122.568 108.446C122.556 107.886 122.428 106.875 122.659 106.352C122.641 106.394 122.525 107.113 122.635 106.559C122.653 106.455 122.671 106.358 122.69 106.254C122.738 106.017 122.793 105.779 122.86 105.542C122.933 105.268 123.019 105 123.116 104.732C123.153 104.628 123.189 104.531 123.226 104.428C123.469 103.788 123.299 104.501 123.165 104.562C123.287 104.513 123.427 104.001 123.5 103.861C123.616 103.624 123.744 103.392 123.872 103.161C124.176 102.619 124.505 102.095 124.852 101.584C125.163 101.127 125.529 100.695 125.827 100.232C125.334 100.999 125.87 100.196 126.034 99.9946C126.241 99.7449 126.449 99.4952 126.662 99.2517C127.454 98.3322 128.288 97.4432 129.141 96.5785C130.75 94.9405 132.388 93.2538 134.149 91.7741C134.216 91.7193 134.399 91.6158 134.435 91.5366C134.289 91.8471 133.966 91.8776 134.301 91.6462C134.527 91.494 134.746 91.3356 134.971 91.1834C135.471 90.8607 135.989 90.5745 136.519 90.3187C136.616 90.27 136.714 90.2274 136.811 90.1848C137.36 89.929 136.616 90.2944 136.568 90.2883C136.75 90.3066 137.073 90.0995 137.256 90.0386C137.78 89.862 138.316 89.7159 138.852 89.5941C139.358 89.4784 139.876 89.4236 140.375 89.314C140.412 89.3079 139.571 89.4114 139.961 89.3688C140.101 89.3566 140.235 89.3384 140.375 89.3201C140.655 89.2897 140.936 89.2653 141.21 89.2409C142.288 89.1557 143.366 89.1131 144.445 89.0704C146.93 88.9791 149.373 88.7294 151.841 88.5041C152.499 88.4432 153.157 88.4006 153.815 88.3945C154.144 88.3945 154.466 88.3945 154.795 88.4128C154.978 88.425 155.167 88.4493 155.356 88.4493C155.855 88.4615 154.54 88.2849 155.399 88.4493C156.008 88.5711 156.574 88.7416 157.165 88.9243C157.513 89.0278 157.36 89.174 157.019 88.8512C157.092 88.9182 157.263 88.9608 157.354 89.0035C157.689 89.1618 158.018 89.3384 158.335 89.521C158.835 89.8133 159.322 90.13 159.797 90.4649C159.931 90.5623 160.065 90.6658 160.199 90.7572C160.595 91.0373 160.12 90.8546 160.096 90.6719C160.12 90.8302 160.76 91.2017 160.882 91.3052C161.862 92.1029 162.819 92.931 163.8 93.7226C167.973 97.0778 172.432 99.9276 177.324 102.126C182.216 104.324 187.303 105.956 192.597 106.869C192.89 106.918 193.188 106.967 193.481 107.015C193.804 107.07 194.133 107.125 194.462 107.162C194.175 107.131 193.621 107.04 194.961 107.216C195.546 107.296 196.137 107.363 196.728 107.43C197.983 107.563 199.274 107.43 200.536 107.344C201.553 107.271 202.43 106.62 202.552 105.566C202.668 104.574 202.089 103.581 201.078 103.313L201.072 103.331Z" fill="#21AB8E"/>
</g>
<path d="M19.7506 52.4799C17.2467 57.4244 14.426 62.2349 12.4643 67.429C10.393 72.9154 9.35123 78.7916 8.55925 84.5824C7.29207 93.7955 7.16414 103.088 8.48614 112.301C9.64366 120.375 11.715 128.498 14.6758 136.098C18.4408 145.743 23.9664 154.511 30.7713 162.3C38.0149 170.587 46.873 177.498 56.6144 182.625C66.4715 187.814 77.5045 191.364 88.5679 192.715C99.2353 194.018 109.964 192.721 120.357 190.207C130.171 187.826 139.584 183.88 148.107 178.46C154.296 174.521 160.029 169.856 165.183 164.632C172.329 157.392 178.683 149.226 183.533 140.269C188.199 131.646 191.459 122.251 192.848 112.538C194.2 103.045 193.835 93.418 191.97 84.0222C190.058 74.389 186.628 64.969 182.046 56.2857C177.739 48.1261 172.183 40.5876 165.567 34.1452C159.274 28.0133 151.981 22.8801 144.135 18.9342C136.276 14.9823 127.881 12.163 119.236 10.5311C110.079 8.80781 100.624 8.19889 91.3337 8.96613C80.9526 9.82472 70.7848 12.4248 61.2079 16.5046C51.6005 20.6027 42.6755 26.2292 34.8105 33.1039C32.7452 34.9124 30.7165 36.7818 28.8462 38.7974C26.9759 40.8129 25.3737 42.9259 23.7775 45.1119C20.7497 49.277 18.325 53.8196 16.272 58.5265C14.3529 62.9169 12.7385 67.4229 11.0997 71.9229C10.7098 73.0007 12.4278 73.4635 12.8177 72.3979C16.1684 63.1909 19.7993 53.8074 25.7758 45.934C29.0168 41.6593 33.0011 37.9875 37.1438 34.608C41.1098 31.3685 45.2951 28.4274 49.6693 25.7603C58.2593 20.5296 67.629 16.5777 77.4314 14.2699C86.8681 12.0534 96.5608 11.4566 106.223 12.1752C114.776 12.8084 123.238 14.5317 131.359 17.2962C139.328 20.012 146.901 23.8483 153.766 28.7197C160.736 33.6641 166.98 39.7473 172.11 46.5855C177.77 54.1362 182.144 62.582 185.348 71.4479C188.516 80.2225 190.527 89.4295 190.862 98.7643C191.197 108.02 189.893 117.263 187.005 126.069C183.825 135.75 178.769 144.744 172.585 152.825C167.833 159.036 162.375 164.772 156.349 169.771C149.752 175.239 142.38 179.794 134.515 183.21C124.822 187.424 114.143 189.926 103.609 190.706C93.137 191.485 82.7742 189.993 72.7952 186.797C62.2375 183.411 52.3803 178.369 43.6807 171.458C35.5111 164.967 28.4746 156.984 23.0586 148.063C18.1971 140.068 14.9926 131.366 12.7263 122.318C10.8377 114.779 9.73504 107.1 9.69239 99.3245C9.66803 94.3801 10.0092 89.4356 10.6854 84.5398C11.0692 81.7449 11.5627 78.9621 12.1293 76.1976C12.6958 73.433 13.2624 70.4067 14.1701 67.5813C15.8029 62.4967 18.2641 57.7593 20.5243 52.9366C20.7619 52.4312 20.0186 51.9806 19.7628 52.4921L19.7506 52.4799Z" fill="#63F5DA"/>
<path d="M27.4629 67.1609L34.5481 67.1243C39.2695 67.1 42.1694 69.5052 42.1938 73.4937C42.2181 77.4517 39.3426 79.8874 34.6212 79.9118L31.8919 79.9239L31.9406 88.6011L27.5847 88.6255L27.4629 67.1609ZM31.8371 70.7535L31.8675 76.3008L34.7796 76.2826C36.6194 76.2704 37.716 75.1926 37.7099 73.445C37.7038 71.8191 36.589 70.7231 34.7491 70.7292L31.8371 70.7474V70.7535Z" fill="white"/>
<path d="M27.5849 88.8019C27.5361 88.8019 27.4935 88.7837 27.4569 88.7471C27.4204 88.7106 27.4021 88.668 27.4021 88.6193L27.2803 67.1546C27.2803 67.0511 27.3595 66.972 27.463 66.972L34.5482 66.9354C34.5482 66.9354 34.597 66.9354 34.6213 66.9354C39.3793 66.9354 42.3523 69.4381 42.3706 73.4814C42.395 77.5307 39.422 80.0578 34.6153 80.0821L32.0687 80.0943L32.1175 88.5888C32.1175 88.6923 32.0383 88.7715 31.9347 88.7715L27.5788 88.7958L27.5849 88.8019ZM27.6519 67.3373L27.7676 88.4366L31.758 88.4122L31.7093 79.9177C31.7093 79.869 31.7276 79.8203 31.7641 79.7898C31.8007 79.7533 31.8433 79.735 31.8921 79.735L34.6213 79.7229C39.2697 79.6985 42.0355 77.3663 42.0112 73.4875C41.9868 69.6086 39.2331 67.3008 34.6274 67.3008H34.5482L27.6458 67.3373H27.6519ZM31.8738 76.4834C31.825 76.4834 31.7824 76.4651 31.7458 76.4286C31.7093 76.392 31.691 76.3494 31.691 76.3007L31.6606 70.7534C31.6606 70.7047 31.6788 70.656 31.7154 70.6255C31.7519 70.589 31.7946 70.5707 31.8433 70.5707L34.7554 70.5524C34.7554 70.5524 34.7737 70.5524 34.7797 70.5524C35.7118 70.5524 36.4916 70.8265 37.046 71.344C37.6004 71.8616 37.8929 72.5863 37.8989 73.4448C37.8989 74.3521 37.6187 75.1133 37.0704 75.6491C36.5221 76.1789 35.7362 76.4651 34.7858 76.4651L31.8738 76.4834ZM32.0261 70.93L32.0565 76.1119L34.7858 76.0937C35.6387 76.0937 36.3393 75.844 36.8206 75.3812C37.2958 74.9245 37.5395 74.2547 37.5334 73.4448C37.5334 72.6898 37.2775 72.0565 36.7963 71.6059C36.3089 71.1492 35.59 70.9178 34.7554 70.9117L32.0261 70.9239V70.93Z" fill="white"/>
<path d="M45.1975 73.0739L49.0965 73.0495V74.584C50.1139 73.5367 51.4237 72.7329 53.1722 72.7207C53.6961 72.7207 54.153 72.806 54.5246 72.9277L54.5429 76.7579C54.0494 76.6361 53.5316 76.5508 52.8249 76.5508C50.9241 76.563 49.6996 77.6104 49.1209 78.5968L49.1757 88.498L45.2767 88.5223L45.1914 73.0678L45.1975 73.0739Z" fill="white"/>
<path d="M45.2832 88.7046C45.1796 88.7046 45.1004 88.6255 45.1004 88.5219L45.0151 73.0674C45.0151 73.0187 45.0334 72.97 45.07 72.9395C45.1065 72.903 45.1492 72.8847 45.1979 72.8847L49.0969 72.8604C49.1456 72.8604 49.1944 72.8787 49.2248 72.9152C49.2614 72.9517 49.2797 72.9943 49.2797 73.0431V74.1452C50.425 73.0857 51.7348 72.5437 53.1726 72.5316C53.6599 72.5072 54.1412 72.6046 54.5799 72.7447C54.653 72.769 54.7078 72.836 54.7078 72.9152L54.7261 76.7453C54.7261 76.8001 54.7017 76.8549 54.6591 76.8915C54.6164 76.928 54.5555 76.9402 54.5007 76.928C54.0864 76.8245 53.5381 76.7392 52.8253 76.7271C50.6565 76.7392 49.6086 78.1398 49.304 78.6391L49.3589 88.4915C49.3589 88.5402 49.3406 88.5889 49.304 88.6194C49.2675 88.6559 49.2248 88.6742 49.1761 88.6742L45.2771 88.6985L45.2832 88.7046ZM45.3807 73.2501L45.466 88.3393L48.9994 88.321L48.9446 78.6026C48.9446 78.5721 48.9507 78.5356 48.969 78.5112C49.2614 78.0119 50.4006 76.3922 52.8253 76.3739C52.8436 76.3739 52.8558 76.3739 52.8741 76.3739C53.4955 76.3739 53.9706 76.447 54.3605 76.5322L54.3423 73.0674C53.9828 72.9639 53.5868 72.9091 53.1969 72.9091H53.1726C51.68 72.9152 50.3945 73.5058 49.237 74.7176C49.1883 74.7724 49.1091 74.7907 49.036 74.7602C48.969 74.7298 48.9202 74.6689 48.9202 74.5897V73.2379L45.3807 73.2562V73.2501Z" fill="white"/>
<path d="M57.0401 67.7638C57.034 66.3815 58.1915 65.2124 59.5744 65.2063C60.9573 65.2002 62.0966 66.3572 62.1027 67.7394C62.1088 69.1217 60.9817 70.2908 59.5988 70.2969C58.2159 70.303 57.0462 69.1461 57.0401 67.7638ZM57.6493 73.0067L61.5422 72.9823L61.6275 88.4368L57.7346 88.4612L57.6493 73.0067Z" fill="white"/>
<path d="M57.7408 88.6379C57.6372 88.6379 57.558 88.5587 57.558 88.4552L57.4727 73.0007C57.4727 72.952 57.491 72.9033 57.5276 72.8728C57.5641 72.8363 57.6068 72.818 57.6555 72.818L61.5484 72.7937C61.652 72.8059 61.7312 72.8728 61.7312 72.9764L61.8165 88.4309C61.8165 88.4796 61.7982 88.5283 61.7616 88.5587C61.7251 88.5953 61.6824 88.6136 61.6337 88.6136L57.7408 88.6379ZM57.8383 73.1834L57.9236 88.2726L61.4509 88.2543L61.3656 73.1651L57.8383 73.1834ZM59.5867 70.4737C58.1124 70.4737 56.8635 69.2376 56.8574 67.7579C56.8574 67.0393 57.1377 66.3573 57.6555 65.8337C58.1733 65.31 58.8557 65.0177 59.5684 65.0177H59.5806C61.0367 65.0177 62.2734 66.2538 62.2795 67.7335C62.2856 69.2132 61.061 70.4676 59.5989 70.4737H59.5867ZM59.5867 65.3831H59.5745C58.9531 65.3831 58.3683 65.6388 57.9175 66.0955C57.4666 66.5522 57.223 67.1428 57.223 67.7579C57.229 69.0366 58.3135 70.1083 59.5867 70.1083H59.5989C60.2142 70.1083 60.7991 69.8526 61.2377 69.3959C61.6763 68.9453 61.92 68.3485 61.9139 67.7274C61.9078 66.4487 60.8417 65.377 59.5806 65.377L59.5867 65.3831Z" fill="white"/>
<path d="M66.216 72.952L70.109 72.9277V74.1516C71.1812 73.1043 72.6189 72.3005 74.6781 72.2883C78.0227 72.27 80.7033 74.5535 80.7276 79.1205L80.7764 88.3213L76.8469 88.3457L76.7982 79.3031C76.786 77.2511 75.6163 75.9662 73.7094 75.9784C71.7478 75.9906 70.7121 77.312 70.1333 78.2984L70.1882 88.3883L66.2953 88.4127L66.21 72.9581L66.216 72.952Z" fill="white"/>
<path d="M66.3008 88.5892C66.1972 88.5892 66.118 88.51 66.118 88.4065L66.0327 72.952C66.0327 72.9033 66.051 72.8546 66.0875 72.8241C66.1241 72.7876 66.1667 72.7693 66.2155 72.7693L70.1084 72.745C70.1449 72.745 70.2059 72.7632 70.2363 72.7998C70.2729 72.8363 70.2911 72.8789 70.2911 72.9276V73.7375C71.534 72.6536 72.9656 72.1178 74.6714 72.1056C74.6836 72.1056 74.7019 72.1056 74.7141 72.1056C76.4686 72.1056 77.9734 72.7145 79.0761 73.8593C80.264 75.0954 80.8976 76.9161 80.9098 79.1204L80.9586 88.3213C80.9586 88.4248 80.8794 88.5039 80.7758 88.5039L76.8463 88.5283C76.7976 88.5283 76.7549 88.51 76.7184 88.4735C76.6818 88.437 76.6636 88.3943 76.6636 88.3456L76.6148 79.3031C76.6026 77.3606 75.5 76.161 73.7332 76.161H73.715C72.3016 76.1671 71.1928 76.8857 70.3216 78.3471L70.3764 88.3822C70.3764 88.4309 70.3582 88.4796 70.3216 88.51C70.2851 88.5466 70.2424 88.5648 70.1937 88.5648L66.3008 88.5892ZM66.3982 73.1347L66.4835 88.2238L70.0109 88.2056L69.9561 78.2984C69.9561 78.2679 69.9622 78.2314 69.9804 78.207C70.9247 76.5934 72.1493 75.8079 73.715 75.7957C73.721 75.7957 73.7332 75.7957 73.7393 75.7957C75.7315 75.7957 76.9743 77.1353 76.9865 79.3031L77.0352 88.1629L80.593 88.1447L80.5443 79.1265C80.5321 77.0196 79.9351 75.2842 78.8141 74.115C77.7845 73.0433 76.3711 72.477 74.7202 72.477H74.6775C72.9291 72.4892 71.4791 73.0799 70.2424 74.2916C70.1876 74.3403 70.1084 74.3586 70.0414 74.3282C69.9744 74.2977 69.9317 74.2368 69.9317 74.1577V73.1164L66.3982 73.1347Z" fill="white"/>
<path d="M86.1128 76.3372L83.2312 76.3555L83.2129 72.8602L86.0945 72.842L86.0701 68.9814L89.9996 68.957L90.024 72.8176L94.7454 72.7933L94.7637 76.2885L90.0422 76.3128L90.0788 82.6274C90.091 84.3446 91.0109 85.0144 92.5461 85.0083C93.6183 85.0083 94.325 84.8743 94.8429 84.6551L94.8611 88.059C94.0996 88.4 93.1797 88.5583 91.8882 88.5644C88.0196 88.5888 86.1676 86.421 86.1493 82.6457L86.1128 76.3311V76.3372Z" fill="white"/>
<path d="M91.8274 88.7532C89.9083 88.7532 88.434 88.2174 87.441 87.1579C86.4724 86.1227 85.9728 84.6126 85.9667 82.6518L85.9302 76.5199L83.2313 76.5321C83.1704 76.5321 83.1338 76.5138 83.1034 76.4773C83.0729 76.4408 83.0485 76.3982 83.0485 76.3494L83.0303 72.8542C83.0303 72.7507 83.1095 72.6715 83.213 72.6715L85.9119 72.6594L85.8936 68.9814C85.8936 68.8779 85.9728 68.7988 86.0764 68.7988L90.0058 68.7744C90.0607 68.7744 90.1033 68.7927 90.1338 68.8292C90.1703 68.8658 90.1886 68.9084 90.1886 68.9571L90.2069 72.635L94.7516 72.6106C94.8552 72.6106 94.9344 72.6898 94.9344 72.7933L94.9527 76.2885C94.9527 76.3373 94.9344 76.386 94.8978 76.4164C94.8613 76.453 94.8186 76.4712 94.7699 76.4712L90.2251 76.4956L90.2617 82.6275C90.2678 84.1254 90.9867 84.8257 92.5158 84.8257H92.5402C93.5271 84.8257 94.2338 84.7161 94.7699 84.4908C94.8247 84.4664 94.8917 84.4725 94.9405 84.509C94.9892 84.5456 95.0197 84.6004 95.0197 84.6613L95.038 88.0652C95.038 88.1382 94.9953 88.2052 94.9283 88.2357C94.1363 88.5888 93.1981 88.7532 91.8822 88.7593C91.8639 88.7593 91.8457 88.7593 91.8274 88.7593V88.7532ZM86.1129 76.1546C86.1617 76.1546 86.2043 76.1729 86.2409 76.2094C86.2774 76.2459 86.2957 76.2885 86.2957 76.3373L86.3322 82.6518C86.3444 84.5151 86.8074 85.9461 87.7091 86.9082C88.629 87.8886 90.018 88.3879 91.8335 88.3879H91.8883C93.0885 88.3818 93.9536 88.2417 94.6785 87.9434L94.6603 84.9231C94.118 85.0997 93.4357 85.191 92.5463 85.191C92.5341 85.191 92.528 85.191 92.5158 85.191C90.7856 85.191 89.9023 84.3324 89.8962 82.6335L89.8596 76.319C89.8596 76.2703 89.8779 76.2216 89.9144 76.1911C89.951 76.1546 89.9936 76.1363 90.0424 76.1363L94.5871 76.112L94.5689 72.9821L90.0241 73.0064C89.9205 73.0064 89.8413 72.9273 89.8413 72.8238L89.8231 69.1459L86.2591 69.1641L86.2774 72.842C86.2774 72.9456 86.1982 73.0247 86.0946 73.0247L83.3958 73.0369L83.4141 76.1668L86.1129 76.1546Z" fill="white"/>
<path d="M105.51 88.8023C100.021 88.8327 96.9017 85.0148 96.8712 80.5087C96.8469 75.9418 99.7102 72.1543 104.773 72.1238C109.068 72.0995 111.907 74.9979 111.931 79.0473C111.931 79.9059 111.815 80.7036 111.7 81.2272L100.874 81.2881C101.258 84.1684 103.043 85.3253 105.467 85.307C107.155 85.3009 108.623 84.552 109.446 83.4437L112.248 85.6359C110.816 87.5783 108.428 88.784 105.516 88.8023H105.51ZM100.971 78.4627L108.087 78.4201C108.014 76.8552 106.875 75.3024 104.694 75.3146C102.701 75.3268 101.386 76.435 100.971 78.4627Z" fill="white"/>
<path d="M105.449 88.9847C100.319 88.9847 96.7188 85.5078 96.6945 80.5085C96.6701 75.491 99.9903 71.9653 104.773 71.9409C104.791 71.9409 104.809 71.9409 104.828 71.9409C106.942 71.9409 108.757 72.629 110.079 73.926C111.377 75.1987 112.096 77.0194 112.108 79.041C112.108 80.0883 111.943 80.9408 111.87 81.2636C111.852 81.3488 111.779 81.4036 111.693 81.4036L101.075 81.4645C101.471 83.9063 102.951 85.1181 105.455 85.1241C107.033 85.1181 108.465 84.4482 109.287 83.3339C109.317 83.2974 109.36 83.2669 109.409 83.2608C109.458 83.2547 109.506 83.2669 109.543 83.2974L112.345 85.4895C112.424 85.5504 112.437 85.66 112.382 85.7392C110.877 87.7791 108.367 88.9604 105.504 88.9786C105.485 88.9786 105.461 88.9786 105.443 88.9786L105.449 88.9847ZM104.828 72.3063H104.779C100.916 72.3306 97.0295 74.8699 97.06 80.5085C97.0844 85.2886 100.533 88.6194 105.455 88.6194H105.516C108.197 88.6072 110.548 87.5294 111.992 85.6722L109.476 83.7054C108.568 84.8197 107.088 85.4834 105.467 85.4895C105.455 85.4895 105.437 85.4895 105.425 85.4895C102.695 85.4895 101.056 84.0464 100.691 81.3062C100.685 81.2514 100.697 81.2027 100.734 81.16C100.77 81.1174 100.819 81.0991 100.868 81.0991L111.547 81.0383C111.626 80.6607 111.748 79.9239 111.748 79.041C111.736 77.1168 111.054 75.3874 109.829 74.1818C108.574 72.9517 106.85 72.3002 104.828 72.3002V72.3063ZM100.977 78.6452C100.922 78.6452 100.874 78.6208 100.837 78.5782C100.801 78.5356 100.788 78.4808 100.801 78.426C101.239 76.313 102.622 75.1439 104.706 75.1317C104.712 75.1317 104.724 75.1317 104.73 75.1317C107.069 75.1317 108.209 76.8306 108.282 78.4138C108.282 78.4625 108.264 78.5112 108.233 78.5478C108.197 78.5843 108.154 78.6026 108.099 78.6026L100.983 78.6452H100.977ZM104.73 75.497H104.706C102.86 75.5092 101.66 76.4652 101.209 78.2798L107.898 78.2433C107.758 76.8854 106.728 75.497 104.73 75.497Z" fill="white"/>
<path d="M115.696 72.678L119.589 72.6536V73.8167C120.631 72.7998 121.947 72.0264 123.848 72.0143C125.809 72.0021 127.533 72.8546 128.557 74.5048C129.653 73.1469 131.122 71.9777 133.729 71.9595C136.921 71.9412 139.45 74.1333 139.474 78.4871L139.529 87.9925L135.599 88.0168L135.551 78.6637C135.539 76.7943 134.521 75.6313 132.773 75.6435C131.085 75.6556 130.171 76.8248 129.562 77.866C129.593 78.0792 129.593 78.2984 129.599 78.5419L129.653 88.0473L125.724 88.0716L125.669 78.7185C125.657 76.8491 124.64 75.6861 122.891 75.6983C121.112 75.7104 120.198 77.0318 119.62 78.0183L119.674 88.1082L115.782 88.1325L115.696 72.678Z" fill="white"/>
<path d="M115.781 88.3152C115.678 88.3152 115.598 88.236 115.598 88.1325L115.513 72.678C115.513 72.6292 115.531 72.5805 115.568 72.5501C115.605 72.5135 115.647 72.4953 115.696 72.4953L119.589 72.4709C119.638 72.4709 119.686 72.4892 119.717 72.5257C119.753 72.5623 119.772 72.6049 119.772 72.6536V73.4026C120.972 72.3431 122.275 71.8437 123.847 71.8376C123.859 71.8376 123.872 71.8376 123.884 71.8376C125.846 71.8376 127.539 72.6962 128.575 74.2003C129.556 73.0433 131.03 71.795 133.729 71.7828C133.741 71.7828 133.753 71.7828 133.771 71.7828C137.323 71.7828 139.632 74.4134 139.656 78.4932L139.711 87.9985C139.711 88.102 139.632 88.1812 139.529 88.1812L135.599 88.2056C135.563 88.2056 135.502 88.1873 135.471 88.1507C135.435 88.1142 135.416 88.0716 135.416 88.0229L135.368 78.6698C135.368 77.7929 135.124 77.0683 134.679 76.5751C134.234 76.0879 133.583 75.8322 132.797 75.8322H132.778C131.194 75.8383 130.335 76.9343 129.757 77.9147C129.781 78.1157 129.781 78.3166 129.781 78.5419L129.836 88.0533C129.836 88.1568 129.757 88.236 129.653 88.236L125.724 88.2604C125.663 88.2604 125.626 88.2421 125.596 88.2056C125.565 88.169 125.541 88.1264 125.541 88.0777L125.486 78.7246C125.486 77.8477 125.242 77.1231 124.798 76.6299C124.353 76.1367 123.677 75.8748 122.897 75.887C121.319 75.8992 120.448 76.9892 119.808 78.073L119.863 88.1081C119.863 88.1568 119.845 88.2055 119.808 88.236C119.772 88.2725 119.729 88.2908 119.68 88.2908L115.787 88.3152H115.781ZM115.879 72.8606L115.964 87.9498L119.491 87.9315L119.437 78.0243C119.437 77.9939 119.443 77.9573 119.461 77.933C120.155 76.7456 121.106 75.5338 122.885 75.5277C122.891 75.5277 122.897 75.5277 122.909 75.5277C123.805 75.5277 124.548 75.8261 125.066 76.3924C125.571 76.9526 125.846 77.7625 125.852 78.7307L125.9 87.9011L129.464 87.8828L129.416 78.5602C129.416 78.3166 129.416 78.1096 129.385 77.9086C129.385 77.866 129.385 77.8234 129.409 77.7929C130.031 76.7212 130.981 75.4851 132.772 75.479C132.778 75.479 132.785 75.479 132.797 75.479C133.692 75.479 134.435 75.7774 134.953 76.3437C135.459 76.9039 135.733 77.7138 135.739 78.682L135.788 87.8524L139.352 87.8341L139.303 78.5115C139.279 74.59 137.165 72.1604 133.784 72.1604H133.747C131.054 72.1726 129.641 73.4939 128.721 74.6387C128.684 74.6874 128.63 74.7118 128.569 74.7057C128.508 74.7057 128.453 74.6691 128.423 74.6204C127.46 73.0677 125.858 72.2213 123.908 72.2213H123.872C122.263 72.2334 120.954 72.7876 119.741 73.9689C119.686 74.0176 119.607 74.0359 119.54 74.0054C119.473 73.975 119.43 73.9141 119.43 73.8349V72.8545L115.897 72.8728L115.879 72.8606Z" fill="white"/>
<path d="M143.891 72.5254L147.79 72.501V73.7554C148.984 72.5559 150.482 71.8678 152.602 71.8556C157.513 71.8312 160.48 75.6431 160.504 80.1491C160.528 84.6552 157.604 88.5036 152.7 88.534C150.586 88.5462 149.075 87.8764 147.875 86.689L147.924 95.488L144.025 95.5123L143.897 72.5193L143.891 72.5254ZM147.814 77.8048L147.838 82.6518C148.886 84.1193 150.336 84.8744 152.115 84.8683C154.753 84.8561 156.459 82.8832 156.447 80.1857C156.428 77.4881 154.704 75.5335 152.066 75.5518C150.257 75.5639 148.789 76.3677 147.814 77.8109V77.8048Z" fill="white"/>
<path d="M144.019 95.7015C143.915 95.7015 143.836 95.6224 143.836 95.5189L143.708 72.5258C143.708 72.4223 143.787 72.3432 143.891 72.3432L147.79 72.3188C147.79 72.3188 147.887 72.3371 147.918 72.3736C147.948 72.4102 147.973 72.4528 147.973 72.5015V73.3357C149.221 72.2214 150.702 71.6916 152.603 71.6794C152.621 71.6794 152.639 71.6794 152.657 71.6794C155.021 71.6794 157.05 72.5441 158.524 74.1882C159.907 75.7288 160.675 77.8479 160.687 80.1557C160.711 85.0941 157.354 88.6989 152.7 88.7233C150.805 88.7476 149.313 88.2239 148.058 87.1218L148.107 95.5006C148.107 95.5493 148.088 95.598 148.052 95.6285C148.015 95.665 147.973 95.6833 147.924 95.6833L144.025 95.7076L144.019 95.7015ZM144.074 72.7024L144.201 95.3301L147.735 95.3118L147.686 86.6955C147.686 86.6225 147.729 86.5555 147.796 86.525C147.863 86.4946 147.942 86.5129 147.997 86.5616C149.234 87.7855 150.708 88.3518 152.639 88.3518H152.694C157.208 88.3275 160.346 84.954 160.321 80.1496C160.309 77.9331 159.572 75.8993 158.25 74.4196C156.837 72.8425 154.899 72.0265 152.609 72.0326C150.653 72.0448 149.167 72.6294 147.93 73.8777C147.881 73.9325 147.802 73.9446 147.729 73.9203C147.662 73.8898 147.613 73.8289 147.613 73.7498V72.6781L144.08 72.6963L144.074 72.7024ZM152.085 85.0454C150.263 85.0454 148.783 84.272 147.692 82.7558C147.668 82.7253 147.656 82.6888 147.656 82.6523L147.631 77.8052C147.631 77.7687 147.644 77.7322 147.662 77.7017C148.685 76.1794 150.208 75.3695 152.066 75.3574C152.079 75.3574 152.085 75.3574 152.097 75.3574C154.753 75.3574 156.617 77.3364 156.63 80.174C156.648 83.0237 154.79 85.0271 152.115 85.0454C152.103 85.0454 152.091 85.0454 152.079 85.0454H152.085ZM148.027 82.5853C149.045 83.9797 150.434 84.68 152.121 84.68C154.619 84.6678 156.282 82.8593 156.27 80.18C156.252 77.5129 154.583 75.7288 152.103 75.7288H152.073C150.361 75.741 148.953 76.4778 148.003 77.8661L148.027 82.5975V82.5853Z" fill="white"/>
<path d="M164.782 83.2912C165.738 84.4847 166.877 85.3311 168.352 85.325C169.607 85.3189 170.252 84.5761 170.246 83.6566C170.234 80.959 162.844 82.0125 162.814 76.587C162.802 73.859 165.086 71.7886 168.309 71.7704C170.673 71.7582 172.823 72.8786 173.938 74.3766L171.373 76.66C170.569 75.6857 169.552 74.8941 168.358 74.9002C167.133 74.9063 166.554 75.5822 166.554 76.3799C166.567 79.0166 173.956 78.0545 173.987 83.3887C173.944 86.6403 171.349 88.4306 168.431 88.4488C165.671 88.4671 163.703 87.371 162.217 85.6295L164.782 83.2851V83.2912Z" fill="white"/>
<path d="M168.375 88.6375C165.792 88.6375 163.733 87.6937 162.082 85.7573C162.021 85.6843 162.027 85.5686 162.1 85.5016L164.665 83.1572C164.702 83.1207 164.757 83.1024 164.799 83.1085C164.848 83.1085 164.897 83.139 164.927 83.1755C166.005 84.5151 167.09 85.1423 168.333 85.1423H168.351C168.899 85.1423 169.344 84.984 169.649 84.7039C169.923 84.4421 170.069 84.0828 170.063 83.6626C170.063 82.6701 168.838 82.2134 167.425 81.6836C165.299 80.8859 162.649 79.8934 162.63 76.5869C162.612 73.7067 165 71.6059 168.308 71.5876C168.32 71.5876 168.333 71.5876 168.351 71.5876C170.629 71.5876 172.871 72.635 174.09 74.2669C174.145 74.34 174.132 74.4496 174.065 74.5105L171.501 76.794C171.464 76.8244 171.409 76.8427 171.367 76.8427C171.318 76.8427 171.269 76.8122 171.239 76.7757C170.313 75.6492 169.35 75.0829 168.381 75.0829H168.369C167.364 75.0829 166.743 75.5883 166.749 76.3799C166.749 77.342 167.973 77.7987 169.38 78.3345C171.513 79.1383 174.163 80.137 174.181 83.3947C174.132 86.9752 171.172 88.6254 168.442 88.6375C168.424 88.6375 168.4 88.6375 168.381 88.6375H168.375ZM162.478 85.6538C164.038 87.4136 165.969 88.2722 168.375 88.2722H168.43C170.989 88.26 173.761 86.7255 173.803 83.3947C173.785 80.3927 171.373 79.4793 169.24 78.6816C167.705 78.1032 166.377 77.6038 166.371 76.386C166.371 75.6248 166.883 74.7297 168.357 74.7236C168.357 74.7236 168.369 74.7236 168.375 74.7236C169.417 74.7236 170.434 75.2899 171.397 76.4042L173.694 74.3583C172.524 72.8907 170.453 71.9591 168.357 71.9591H168.32C165.226 71.9774 162.99 73.9259 163.008 76.5869C163.026 79.6437 165.439 80.5449 167.565 81.3426C169.106 81.9211 170.434 82.4204 170.441 83.6565C170.441 84.1741 170.258 84.6369 169.911 84.9657C169.539 85.3189 169.009 85.5016 168.363 85.5077C168.357 85.5077 168.351 85.5077 168.345 85.5077C167.047 85.5077 165.877 84.8683 164.775 83.553L162.484 85.6477L162.478 85.6538Z" fill="white"/>
<path d="M59.2949 135.738C60.5499 135.507 61.7806 136.11 62.9929 137.541C64.2052 138.971 64.9668 140.543 65.2836 142.248C65.6004 143.952 65.4115 145.749 64.7353 147.63C64.059 149.518 63.1147 151.266 61.9024 152.873C60.6901 154.481 59.2889 155.894 57.6866 157.105C56.0844 158.317 54.543 159.06 53.0566 159.334C52.4717 159.444 51.9051 159.468 51.3568 159.419C51.3325 159.937 51.2898 160.862 51.235 162.196C51.1802 163.529 51.1253 164.638 51.0766 165.521C51.0279 166.404 50.9608 167.347 50.8756 168.358C50.7172 170.435 50.4308 171.512 50.0227 171.586C49.6145 171.659 49.1271 171.427 48.5605 170.885C47.994 170.343 47.665 169.826 47.5736 169.326C47.4822 168.827 47.5553 166.617 47.799 162.689C48.5118 150.846 48.5057 142.96 47.7807 139.026C47.6223 138.156 47.8599 137.656 48.4996 137.541C49.0235 137.443 49.7302 137.717 50.6136 138.35C51.497 138.984 52.027 139.769 52.1976 140.701C52.2828 141.17 52.3194 141.687 52.3011 142.26C54.275 138.405 56.5961 136.231 59.2828 135.738H59.2949ZM51.9965 156.003C53.5439 155.717 55.1096 154.889 56.7119 153.513C58.308 152.136 59.5874 150.462 60.5317 148.495C61.482 146.528 61.7988 144.689 61.482 142.972C61.0373 140.555 60.2453 139.453 59.1122 139.66C57.9729 139.867 56.6205 141.127 55.0365 143.435C53.4586 145.743 52.3864 148.562 51.8259 151.887L51.5579 156.088L51.9965 156.009V156.003Z" fill="white"/>
<path d="M72.9596 124.51C73.9648 129.984 74.1354 137.303 73.4714 146.455C73.1058 152.666 72.6367 155.821 72.0519 155.93C71.6437 156.003 71.1137 155.772 70.4557 155.23C69.7978 154.688 69.4383 154.244 69.3713 153.89C69.3043 153.543 69.3957 151.656 69.6455 148.24C69.8891 144.824 69.9988 140.652 69.9683 135.738C69.9379 130.818 69.5724 126.458 68.8718 122.64C68.7986 122.232 68.7986 121.928 68.8839 121.733C68.9692 121.538 69.2007 121.404 69.5784 121.331C69.9562 121.264 70.5776 121.575 71.4487 122.275C72.3138 122.975 72.8195 123.718 72.9657 124.504L72.9596 124.51Z" fill="white"/>
<path d="M92.2466 131.871C93.5991 132.992 94.3728 134.088 94.5678 135.147C94.7627 136.213 94.5982 137.364 94.0743 138.6C94.5068 138.971 94.7505 139.318 94.8054 139.641C94.9577 140.457 95.0308 141.888 95.0308 143.934C95.0308 145.98 95.049 147.32 95.0917 147.941C95.1282 148.568 95.1526 149.067 95.1648 149.439C95.1709 149.816 95.1648 150.182 95.1404 150.547C95.1587 151.296 94.9637 151.71 94.5556 151.783C94.0316 151.881 93.5138 151.497 93.0142 150.644C92.5086 149.792 92.0943 148.641 91.7714 147.192C89.7854 150.961 87.6836 153.05 85.466 153.452C84.1258 153.695 82.7002 153.366 81.1954 152.453C79.6846 151.54 78.8195 150.474 78.5941 149.25C78.2712 147.502 78.5149 145.225 79.3251 142.412C80.1354 139.599 81.3721 136.998 83.0414 134.618C84.7106 132.231 86.4469 130.873 88.2563 130.544C89.5661 130.3 90.9003 130.745 92.2466 131.865V131.871ZM91.6801 137.869C91.1805 135.16 90.3946 133.905 89.3163 134.106C88.1771 134.313 87.0013 135.367 85.7828 137.26C84.5644 139.154 83.6201 141.218 82.9439 143.453C82.2676 145.688 82.0422 147.399 82.2616 148.592C82.3529 149.086 82.6271 149.451 83.0962 149.682C83.5592 149.914 84.0709 149.981 84.6253 149.877C85.9961 149.628 87.3668 148.416 88.7497 146.254C90.1266 144.086 90.9064 141.62 91.0891 138.844C91.0952 138.393 91.2963 138.082 91.6862 137.918V137.875L91.6801 137.869Z" fill="white"/>
<path d="M108.891 130.349C110.225 127.712 111.456 126.288 112.577 126.081C113.698 125.873 114.874 126.275 116.098 127.286C117.323 128.297 118.06 129.472 118.303 130.812C118.687 132.907 118.681 135.561 118.279 138.764C117.56 144.677 116.5 147.764 115.099 148.02C114.459 148.136 114.057 147.758 113.899 146.887C113.789 146.279 113.868 144.975 114.155 142.978C114.435 140.987 114.679 139.026 114.88 137.108C115.081 135.19 115.099 133.771 114.934 132.852C114.764 131.932 114.502 131.281 114.149 130.897C113.789 130.513 113.472 130.343 113.198 130.398C112.918 130.446 112.65 130.587 112.394 130.818C112.132 131.049 111.858 131.396 111.572 131.871C111.279 132.346 111.011 132.809 110.767 133.26C110.518 133.71 110.219 134.344 109.872 135.16C109.525 135.976 109.238 136.67 109.013 137.236C108.787 137.802 108.452 138.624 108.02 139.696C107.587 140.768 107.252 141.584 107.021 142.138C106.789 142.692 106.491 143.441 106.125 144.379C105.754 145.323 105.461 146.053 105.242 146.571C105.023 147.095 104.773 147.667 104.499 148.288C103.969 149.5 103.493 150.145 103.073 150.224C102.653 150.304 102.104 150.066 101.428 149.512C100.752 148.958 100.374 148.434 100.283 147.941C100.258 147.795 100.283 147.381 100.374 146.705C100.618 144.915 100.843 142.71 101.057 140.098C101.27 137.486 101.111 134.587 100.587 131.396C100.283 129.253 100.392 128.133 100.916 128.041C101.556 127.926 102.263 128.139 103.024 128.693C103.786 129.247 104.243 129.923 104.395 130.721C104.541 131.524 104.584 133.108 104.523 135.482C104.462 137.857 104.291 140.092 104.017 142.193C105.942 136.932 107.569 132.98 108.909 130.343L108.891 130.349Z" fill="white"/>
<path d="M139.065 128.687C139.351 130.246 138.736 131.67 137.231 132.955C135.72 134.24 133.911 135.08 131.797 135.47C129.683 135.86 127.74 135.976 125.967 135.817C125.796 137.175 125.802 138.356 125.985 139.361C126.168 140.366 126.625 141.091 127.356 141.529C128.081 141.967 129.159 142.053 130.591 141.791C132.023 141.529 133.448 140.999 134.886 140.208C136.324 139.416 137.116 139.008 137.262 138.984C138.017 138.844 138.45 139.069 138.559 139.647C138.706 140.433 137.981 141.45 136.385 142.686C134.788 143.928 133.15 144.701 131.456 145.012C129.184 145.432 127.198 145.091 125.51 144.007C123.816 142.917 122.781 141.34 122.403 139.27C122.025 137.2 122.178 134.94 122.872 132.474C123.567 130.014 124.651 127.853 126.131 125.983C127.612 124.114 129.208 123.024 130.926 122.707C132.644 122.39 134.362 122.92 136.074 124.29C137.786 125.66 138.785 127.128 139.071 128.687H139.065ZM125.376 116.411C125.23 116.289 125.12 116.161 125.035 116.045C124.95 115.924 124.883 115.692 124.816 115.339C124.748 114.992 124.889 114.505 125.224 113.884C125.559 113.263 125.991 112.909 126.515 112.812C126.923 112.739 127.545 113.013 128.386 113.646C128.599 113.817 128.903 114.054 129.305 114.359C129.708 114.663 130.518 115.242 131.73 116.106C132.942 116.971 133.643 117.525 133.826 117.775C134.009 118.031 134.124 118.292 134.173 118.566C134.222 118.847 134.149 119.133 133.948 119.443C133.747 119.754 133.515 119.93 133.253 119.979C132.991 120.028 132.687 119.985 132.345 119.851C132.004 119.717 131.511 119.48 130.859 119.133C130.207 118.786 129.695 118.536 129.318 118.378C128.94 118.219 128.556 118.049 128.16 117.866C127.764 117.683 127.453 117.543 127.228 117.452C126.996 117.361 126.747 117.239 126.46 117.099C126.18 116.953 125.961 116.837 125.809 116.746C125.656 116.654 125.51 116.545 125.364 116.423L125.376 116.411ZM131.773 126.123C130.664 126.324 129.641 127.097 128.696 128.431C127.752 129.765 127.015 131.354 126.479 133.199C127.831 133.193 129.226 133.059 130.652 132.791C132.077 132.529 133.302 132.054 134.319 131.372C135.337 130.69 135.775 129.953 135.629 129.168C135.483 128.382 134.977 127.645 134.118 126.963C133.253 126.281 132.473 126.001 131.773 126.129V126.123Z" fill="white"/>
<path d="M147.649 137.516C147.753 138.07 148.125 138.29 148.764 138.168C149.873 137.967 151.159 137.407 152.633 136.487C154.107 135.568 154.93 135.093 155.106 135.062C155.63 134.965 155.947 135.196 156.045 135.75C156.197 136.597 155.514 137.729 153.979 139.154C152.45 140.579 150.976 141.426 149.562 141.681C148.149 141.943 146.906 141.773 145.834 141.17C144.762 140.573 144.146 139.861 144 139.045C143.848 138.229 143.836 137.157 143.952 135.823C144.067 134.49 144.262 132.724 144.536 130.52C144.811 128.315 145.012 126.495 145.133 125.058C143.824 125.63 142.934 125.959 142.465 126.044C141.996 126.129 141.496 125.971 140.954 125.575C140.412 125.179 140.101 124.759 140.022 124.321C139.894 123.621 141.667 122.604 145.334 121.27C145.414 118.755 145.286 116.569 144.938 114.706C144.78 113.835 144.987 113.342 145.572 113.232C146.066 113.141 146.736 113.342 147.582 113.835C148.423 114.328 148.923 114.968 149.063 115.753C149.209 116.539 149.215 117.97 149.081 120.04C150.714 119.59 152.03 119.273 153.017 119.09C154.765 118.767 155.709 118.987 155.85 119.742C155.929 120.18 155.521 120.631 154.631 121.094C153.736 121.556 151.829 122.378 148.917 123.548C148.728 125.959 148.441 128.729 148.052 131.859C147.662 134.989 147.528 136.871 147.643 137.51L147.649 137.516Z" fill="white"/>
<path d="M175.254 122.037C175.54 123.596 174.937 125.015 173.438 126.3C171.94 127.585 170.136 128.419 168.029 128.809C165.915 129.198 163.959 129.314 162.15 129.168C161.979 130.526 161.985 131.707 162.168 132.712C162.351 133.717 162.808 134.441 163.539 134.88C164.27 135.318 165.354 135.403 166.792 135.141C168.236 134.874 169.673 134.35 171.111 133.558C172.549 132.767 173.341 132.359 173.481 132.334C174.236 132.194 174.669 132.42 174.779 132.998C174.925 133.784 174.194 134.801 172.586 136.043C170.977 137.285 169.326 138.064 167.639 138.375C165.366 138.795 163.392 138.454 161.711 137.364C160.036 136.274 159.006 134.691 158.622 132.627C158.245 130.556 158.397 128.297 159.091 125.831C159.786 123.371 160.864 121.209 162.326 119.34C163.788 117.477 165.385 116.387 167.103 116.07C168.821 115.753 170.539 116.283 172.25 117.653C173.962 119.023 174.961 120.491 175.248 122.05L175.254 122.037ZM167.962 119.474C166.883 119.675 165.866 120.442 164.903 121.776C163.941 123.109 163.21 124.686 162.698 126.495C163.91 126.543 165.263 126.428 166.749 126.16C168.236 125.886 169.485 125.411 170.508 124.723C171.525 124.041 171.964 123.304 171.818 122.518C171.672 121.733 171.166 120.996 170.307 120.314C169.442 119.632 168.662 119.352 167.962 119.48V119.474Z" fill="white"/>
<path d="M70.2544 98.6483L72.1308 98.6362V99.58C72.9167 98.7397 73.8914 98.2586 75.2195 98.2526C78.095 98.2343 79.9105 100.499 79.9227 103.173C79.9349 105.846 78.1499 108.129 75.2744 108.141C73.9463 108.148 72.9593 107.679 72.1734 106.851L72.2039 112.27L70.3275 112.282L70.2544 98.6423V98.6483ZM72.143 101.602L72.1612 104.841C72.8375 105.858 73.8427 106.394 75.0246 106.388C76.7913 106.376 77.9671 104.987 77.9549 103.191C77.9427 101.389 76.7547 100.012 74.988 100.025C73.7879 100.031 72.7887 100.603 72.143 101.602Z" fill="#DFFDF7"/>
<path d="M91.5839 103.112C91.5961 105.821 89.61 108.068 86.6248 108.087C83.6579 108.105 81.6292 105.876 81.611 103.166C81.5927 100.457 83.6031 98.2098 86.57 98.1915C89.5552 98.1733 91.5656 100.402 91.5839 103.112ZM89.6222 103.124C89.61 101.34 88.3306 99.9513 86.6005 99.9574C84.8337 99.9696 83.5727 101.394 83.5787 103.154C83.5909 104.92 84.8703 106.327 86.6309 106.321C88.3611 106.308 89.6283 104.865 89.6161 103.124H89.6222Z" fill="#DFFDF7"/>
<path d="M100.131 98.4837L102.025 98.4716L102.056 103.617C102.068 106.363 100.496 108.007 97.9314 108.019C95.3483 108.032 93.7582 106.406 93.7399 103.66L93.7095 98.5142L95.6041 98.502L95.6346 103.739C95.6407 105.322 96.4875 106.26 97.9253 106.254C99.3265 106.248 100.173 105.298 100.167 103.714L100.137 98.4776L100.131 98.4837Z" fill="#DFFDF7"/>
<path d="M104.877 98.4595L106.753 98.4473V99.4825C107.393 98.77 108.191 98.2585 109.318 98.2524C109.611 98.2524 109.885 98.3012 110.116 98.3742L110.128 100.213C109.836 100.14 109.544 100.091 109.166 100.091C108.002 100.097 107.241 100.719 106.772 101.504L106.808 107.612L104.932 107.624L104.883 98.4595H104.877Z" fill="#DFFDF7"/>
<path d="M117.06 93.9171L118.936 93.9049L119.01 107.545L117.133 107.557L117.06 93.9171Z" fill="#DFFDF7"/>
<path d="M121.527 105.146C121.521 103.763 122.587 102.759 124.53 102.418L127.491 101.912V101.437C127.485 100.311 126.644 99.6226 125.462 99.6286C124.463 99.6286 123.684 100.091 123.16 100.84L121.752 99.7748C122.563 98.6787 123.872 97.9785 125.511 97.9724C127.985 97.9602 129.355 99.4033 129.368 101.425L129.398 107.478L127.522 107.49V106.455C126.864 107.258 125.724 107.776 124.597 107.782C122.776 107.794 121.533 106.765 121.527 105.146ZM124.932 106.254C126.078 106.248 126.967 105.7 127.509 104.823V103.24L125.03 103.672C123.885 103.879 123.415 104.372 123.415 105.06C123.415 105.767 123.988 106.26 124.932 106.254Z" fill="#DFFDF7"/>
<path d="M84.1816 172.992C95.6654 168.048 107.868 164.723 120.119 162.336C126.047 161.185 132.005 160.199 137.982 159.34C141.144 158.883 144.311 158.463 147.485 158.055C150.659 157.647 153.669 157.55 156.52 156.338C158.671 155.419 158.177 151.491 155.844 151.156C152.78 150.718 149.697 151.418 146.651 151.844C143.605 152.27 140.498 152.727 137.427 153.202C130.927 154.207 124.445 155.327 118.024 156.764C105.547 159.559 93.4357 163.462 82.0737 169.381C79.6308 170.654 81.7752 174.033 84.1877 172.998L84.1816 172.992Z" fill="white"/>
<path d="M108.441 63.6662C108.861 62.4057 108.282 60.9565 107.247 60.1223C105.041 58.3442 101.337 58.6791 101.209 62.1256C101.087 65.4138 107.314 67.0518 108.441 63.6662Z" fill="#1D9175"/>
<path d="M105.516 65.9859C105.206 65.9859 104.877 65.9555 104.542 65.8946C102.604 65.5414 100.685 64.1287 100.758 62.1071C100.813 60.6152 101.502 59.4948 102.69 58.9528C104.121 58.3013 106.113 58.6362 107.527 59.7749C108.77 60.7796 109.324 62.4359 108.867 63.806C108.404 65.1882 107.137 65.9859 105.516 65.9859ZM104.322 59.513C103.878 59.513 103.445 59.5983 103.067 59.7688C102.19 60.1707 101.703 60.9866 101.66 62.1436C101.605 63.6537 103.153 64.7315 104.706 65.0177C105.992 65.2491 107.533 64.9812 108.02 63.5259C108.355 62.5211 107.917 61.2363 106.972 60.4751C106.199 59.854 105.224 59.513 104.322 59.513Z" fill="#1D9175"/>
<path d="M79.2954 14.4711C78.4851 19.3973 79.7401 24.634 82.707 28.653C87.5868 35.272 98.2298 41.3917 106.363 42.6278C105.059 36.9465 100.198 28.1719 96.256 23.879C92.9114 20.2315 88.726 17.26 86.2709 12.967" fill="#518FFF"/>
<path d="M81.9588 6.60311C82.172 6.56049 82.3913 6.56658 82.6289 6.64574C83.0797 6.79188 83.4087 7.15723 83.7194 7.51041C84.6028 8.51514 85.5166 9.48942 86.3756 10.5002C86.5706 10.7316 88.2398 13.4779 87.8134 13.6301C85.5532 14.4461 83.0127 16.2728 80.7464 15.463C80.2042 15.2681 79.6498 15.0063 79.3209 14.5252C78.8213 13.7884 79.0162 10.963 79.3757 10.1531C79.8204 9.16669 80.6429 6.87104 81.9466 6.60311H81.9588Z" fill="#518FFF"/>
<path d="M106.686 43.7966C100.521 40.6728 94.319 37.1958 88.9823 32.775C84.1694 28.7866 79.1312 23.3367 79.0764 16.6933C79.0398 12.4491 80.9893 8.82602 83.414 5.46475H81.7448C82.9205 7.87 84.206 10.0621 86.058 12.0168C87.7516 13.7948 89.6829 15.3232 91.5105 16.9613C96.3782 21.3212 100.21 26.6371 102.306 32.8542C102.909 34.6384 103.421 36.453 103.89 38.2736C104.298 39.869 104.59 41.4949 105.187 43.0354C105.413 43.6078 105.894 44.0219 106.546 43.9245C107.113 43.8392 107.667 43.3338 107.618 42.7066C107.362 39.595 106.266 36.459 105.273 33.5179C104.14 30.1567 102.696 27.0024 100.71 24.0491C98.8699 21.3151 96.7193 18.8002 94.2947 16.5715C92.4304 14.8666 90.4139 13.3382 88.5497 11.6332C86.4601 9.72114 84.4923 7.41331 83.5115 4.71577C83.28 4.0764 82.4149 3.70495 81.8971 4.28952C79.2226 7.28543 77.2609 11.0364 76.8162 15.0553C76.4446 18.4227 77.4193 21.8509 79.0398 24.7799C82.6281 31.2649 89.1468 35.8745 95.4034 39.5524C98.8333 41.5679 102.434 43.2607 106.077 44.8379C106.771 45.1423 107.399 44.1498 106.686 43.7905V43.7966Z" fill="#07018E"/>
<path d="M107.088 44.8072C108.051 39.0163 110.689 33.6334 114.776 29.4136C118.864 25.1937 124.104 22.4657 129.782 21.327C133.205 20.645 136.763 20.572 140.224 21.053L139.529 19.8291C136.117 30.2721 126.461 38.1638 115.91 40.636C112.937 41.3302 109.878 41.5921 106.814 41.4398C105.906 41.3972 105.139 42.2436 105.139 43.1144C105.139 44.0582 105.906 44.7463 106.814 44.7889C118.706 45.3735 130.494 39.0224 137.141 29.2674C139.011 26.5273 140.425 23.5009 141.442 20.3528C141.594 19.89 141.265 19.2019 140.747 19.1288C134.235 18.2276 127.601 19.1105 121.685 22.0395C116.196 24.7553 111.59 29.17 108.794 34.632C107.186 37.7741 106.247 41.1293 105.9 44.6428C105.833 45.3126 106.979 45.477 107.088 44.8011V44.8072Z" fill="#07018E"/>
<path d="M106.9 43.8696C110.159 40.8676 113.486 37.8656 117.171 35.3873C118.926 34.212 120.735 33.1038 122.563 32.0504C123.525 31.4962 124.506 30.9665 125.469 30.4123C126.431 29.8582 127.766 29.365 128.417 28.4333C128.795 27.8975 128.29 27.1546 127.686 27.1607C126.541 27.1729 125.268 28.0862 124.263 28.5917C123.257 29.0971 122.301 29.6268 121.332 30.1688C119.419 31.2344 117.549 32.3609 115.758 33.6214C111.962 36.2885 108.642 39.3392 106.023 43.1815C105.651 43.7234 106.449 44.2715 106.9 43.8574V43.8696Z" fill="#07018E"/>
<path d="M89.0306 22.9956C89.585 26.1742 91.5162 29.1823 93.3378 31.7702C95.5797 34.961 98.114 38.03 101.075 40.5814C102.318 41.6531 103.889 43.1937 105.614 43.2424C106.521 43.2667 106.814 42.1889 106.302 41.58C105.461 40.5814 104.139 39.9664 103.122 39.1382C101.751 38.0178 100.46 36.7817 99.2106 35.5212C96.6154 32.9028 94.2211 30.0409 92.2412 26.9293C91.4005 25.6079 90.5963 24.2013 90.1942 22.679C89.9932 21.9117 88.8966 22.2466 89.0245 23.0017L89.0306 22.9956Z" fill="#07018E"/>
<path d="M105.712 40.9041C105.529 43.7965 105.487 46.6949 105.353 49.5873C105.255 51.609 105.133 53.6428 104.944 55.6583C104.725 58.0027 104.36 60.3227 104.207 62.667C104.14 63.7083 105.669 63.8362 105.968 62.9045C106.687 60.6271 106.967 58.3011 107.18 55.9262C107.369 53.8559 107.467 51.7795 107.454 49.703C107.436 46.7497 107.131 43.8452 106.918 40.9041C106.863 40.1307 105.755 40.1246 105.706 40.9041H105.712Z" fill="#07018E"/>
</svg>
